SplineFontDB: 3.0
FontName: Cantarell-Regular
FullName: Cantarell Regular
FamilyName: Cantarell
Weight: Normal
Copyright: Copyright Copyright 2009?2017 The Cantarell Authors
Version: 0.100
ItalicAngle: 0
UnderlinePosition: -100
UnderlineWidth: 50
Ascent: 800
Descent: 200
InvalidEm: 0
sfntRevision: 0x0000199a
LayerCount: 2
Layer: 0 0 "Back" 1
Layer: 1 0 "Fore" 0
XUID: [1021 795 -106302978 5615943]
StyleMap: 0x0040
FSType: 8
OS2Version: 4
OS2_WeightWidthSlopeOnly: 0
OS2_UseTypoMetrics: 0
CreationTime: 1236980653
ModificationTime: 1520193477
PfmFamily: 17
TTFWeight: 400
TTFWidth: 5
LineGap: 0
VLineGap: 0
Panose: 2 0 5 3 0 0 0 0 0 0
OS2TypoAscent: 739
OS2TypoAOffset: 0
OS2TypoDescent: -217
OS2TypoDOffset: 0
OS2TypoLinegap: 244
OS2WinAscent: 983
OS2WinAOffset: 0
OS2WinDescent: 217
OS2WinDOffset: 0
HheadAscent: 983
HheadAOffset: 0
HheadDescent: -217
HheadDOffset: 0
OS2SubXSize: 650
OS2SubYSize: 600
OS2SubXOff: 0
OS2SubYOff: 75
OS2SupXSize: 650
OS2SupYSize: 600
OS2SupXOff: 0
OS2SupYOff: 350
OS2StrikeYSize: 50
OS2StrikeYPos: 289
OS2CapHeight: 694
OS2XHeight: 482
OS2Vendor: 'ABAT'
OS2CodePages: 00000000.00000000
OS2UnicodeRanges: 00000000.00000000.00000000.00000000
Lookup: 1 0 0 "'aalt' Access All Alternates in Latin lookup 0" { "'aalt' Access All Alternates in Latin lookup 0 subtable"  } ['aalt' ('DFLT' <'dflt' > 'latn' <'AZE ' 'CAT ' 'CRT ' 'KAZ ' 'MOL ' 'NLD ' 'ROM ' 'TAT ' 'TRK ' 'dflt' > ) ]
Lookup: 3 0 0 "'aalt' Access All Alternates in Latin lookup 1" { "'aalt' Access All Alternates in Latin lookup 1 subtable"  } ['aalt' ('DFLT' <'dflt' > 'latn' <'AZE ' 'CAT ' 'CRT ' 'KAZ ' 'MOL ' 'NLD ' 'ROM ' 'TAT ' 'TRK ' 'dflt' > ) ]

StartChar: .notdef
Encoding: 65536 -1 0
Width: 500
Flags: MW
HStem: -217 50<100 400 100 450> 689 50<100 400 100 100>
VStem: 50 50<-167 -167 -167 689> 400 50<-167 689 689 689>
LayerCount: 2
Fore
SplineSet
50 -217 m 1
 50 739 l 1
 450 739 l 1
 450 -217 l 1
 50 -217 l 1
100 -167 m 1
 400 -167 l 1
 400 689 l 1
 100 689 l 1
 100 -167 l 1
EndSplineSet
EndChar

StartChar: A
Encoding: 65 65 1
Width: 699
GlyphClass: 2
Flags: MW
HStem: 0 21G<43 43 43 130 562 562 562 655> 206 72<229 468 229 493 204 468> 623 71<352 352> 674 20G<303 411 411 411>
VStem: 43 612<0 0>
AnchorPoint: "Anchor-3" 350 694 basechar 0
AnchorPoint: "Anchor-0" 350 0 basechar 0
LayerCount: 2
Fore
SplineSet
43 0 m 1xd8
 303 694 l 1
 411 694 l 1
 655 0 l 1
 562 0 l 1
 493 206 l 1
 204 206 l 1
 130 0 l 1
 43 0 l 1xd8
229 278 m 1
 468 278 l 1
 352 623 l 1xe8
 229 278 l 1
EndSplineSet
Substitution2: "Single Substitution lookup 35 subtable" ordfeminine
Substitution2: "'aalt' Access All Alternates in Latin lookup 0 subtable" ordfeminine
EndChar

StartChar: Aacute
Encoding: 193 193 2
Width: 699
GlyphClass: 2
Flags: MW
HStem: 0 21G<43 43 43 130 562 562 562 655> 206 72<229 468 229 493 204 468> 623 71<352 352> 674 20G<303 411 411 411>
VStem: 43 612<0 0>
AnchorPoint: "Anchor-3" 301 801 basechar 0
AnchorPoint: "Anchor-0" 350 0 basechar 0
LayerCount: 2
Fore
SplineSet
334 744 m 1xd8
 302 786 l 1
 448 917 l 1
 498 853 l 1
 334 744 l 1xd8
43 0 m 1
 303 694 l 1
 411 694 l 1
 655 0 l 1
 562 0 l 1
 493 206 l 1
 204 206 l 1
 130 0 l 1
 43 0 l 1
229 278 m 1
 468 278 l 1
 352 623 l 1xe8
 229 278 l 1
EndSplineSet
EndChar

StartChar: Abreve
Encoding: 258 258 3
Width: 699
GlyphClass: 2
Flags: MW
HStem: 0 21G<43 43 43 130 562 562 562 655> 206 72<229 468 229 493 204 468> 623 71<352 352> 674 20G<303 411 411 411> 758 65<332.5 384.5 332.5 384.5>
VStem: 43 612<0 0>
AnchorPoint: "Anchor-3" 350 826 basechar 0
AnchorPoint: "Anchor-0" 350 0 basechar 0
LayerCount: 2
Fore
SplineSet
346 758 m 0xdc
 270 758 210 811 196 890 c 1
 260 927 l 1
 268 865 307 823 358 823 c 0
 411 823 451 865 458 928 c 1
 497 902 l 1
 484 816 423 758 346 758 c 0xdc
43 0 m 1
 303 694 l 1
 411 694 l 1
 655 0 l 1
 562 0 l 1
 493 206 l 1
 204 206 l 1
 130 0 l 1
 43 0 l 1
229 278 m 1
 468 278 l 1
 352 623 l 1xec
 229 278 l 1
EndSplineSet
EndChar

StartChar: uni1EAE
Encoding: 7854 7854 4
Width: 699
GlyphClass: 2
Flags: MW
HStem: 0 21G<43 43 43 130 562 562 562 655> 206 72<229 468 229 493 204 468> 623 71<352 352> 674 20G<303 411 411 411> 751 63<341.5 389.5>
VStem: 43 612<0 0>
AnchorPoint: "Anchor-3" 350 694 basechar 0
AnchorPoint: "Anchor-0" 350 0 basechar 0
LayerCount: 2
Fore
SplineSet
368 911 m 1xdc
 334 941 l 1
 454 1093 l 1
 511 1040 l 1
 368 911 l 1xdc
351 751 m 0
 275 751 218 794 208 859 c 1
 275 895 l 1
 279 847 316 814 367 814 c 0
 420 814 462 847 473 896 c 1
 510 870 l 1
 492 799 428 751 351 751 c 0
43 0 m 1
 303 694 l 1
 411 694 l 1
 655 0 l 1
 562 0 l 1
 493 206 l 1
 204 206 l 1
 130 0 l 1
 43 0 l 1
229 278 m 1
 468 278 l 1
 352 623 l 1xec
 229 278 l 1
EndSplineSet
EndChar

StartChar: uni1EB6
Encoding: 7862 7862 5
Width: 699
GlyphClass: 2
Flags: MW
HStem: -195 114<332 368> 0 21G<43 43 43 130 562 562 562 655> 206 72<229 468 229 493 204 468> 623 71<352 352> 674 20G<303 411 411 411> 758 65<332.5 384.5 332.5 384.5>
VStem: 293 114<-156 -120>
AnchorPoint: "Anchor-3" 350 826 basechar 0
AnchorPoint: "Anchor-0" 350 -205 basechar 0
LayerCount: 2
Fore
SplineSet
346 758 m 0xee
 270 758 210 811 196 890 c 1
 260 927 l 1
 268 865 307 823 358 823 c 0
 411 823 451 865 458 928 c 1
 497 902 l 1
 484 816 423 758 346 758 c 0xee
43 0 m 1
 303 694 l 1
 411 694 l 1
 655 0 l 1
 562 0 l 1
 493 206 l 1
 204 206 l 1
 130 0 l 1
 43 0 l 1
229 278 m 1
 468 278 l 1
 352 623 l 1xf6
 229 278 l 1
350 -195 m 0
 314 -195 293 -174 293 -138 c 0
 293 -102 314 -81 350 -81 c 0
 386 -81 407 -102 407 -138 c 0
 407 -174 386 -195 350 -195 c 0
EndSplineSet
EndChar

StartChar: uni1EB0
Encoding: 7856 7856 6
Width: 699
GlyphClass: 2
Flags: MW
HStem: 0 21G<43 43 43 130 562 562 562 655> 206 72<229 468 229 493 204 468> 623 71<352 352> 674 20G<303 411 411 411> 751 63<341.5 389.5>
VStem: 43 612<0 0>
AnchorPoint: "Anchor-3" 350 694 basechar 0
AnchorPoint: "Anchor-0" 350 0 basechar 0
LayerCount: 2
Fore
SplineSet
359 913 m 1xdc
 227 1036 l 1
 289 1092 l 1
 396 946 l 1
 359 913 l 1xdc
351 751 m 0
 275 751 218 794 208 859 c 1
 275 895 l 1
 279 847 316 814 367 814 c 0
 420 814 462 847 473 896 c 1
 510 870 l 1
 492 799 428 751 351 751 c 0
43 0 m 1
 303 694 l 1
 411 694 l 1
 655 0 l 1
 562 0 l 1
 493 206 l 1
 204 206 l 1
 130 0 l 1
 43 0 l 1
229 278 m 1
 468 278 l 1
 352 623 l 1xec
 229 278 l 1
EndSplineSet
EndChar

StartChar: uni1EB2
Encoding: 7858 7858 7
Width: 699
GlyphClass: 2
Flags: MW
HStem: 0 21G<43 43 43 130 562 562 562 655> 206 72<229 468 229 493 204 468> 623 71<352 352> 674 20G<303 411 411 411> 751 63<341.5 389.5> 1041 60<361.5 369.5>
VStem: 400 69
AnchorPoint: "Anchor-3" 350 694 basechar 0
AnchorPoint: "Anchor-0" 350 0 basechar 0
LayerCount: 2
Fore
SplineSet
348 913 m 1xde
 336 953 l 1
 373 967 399 991 400 1011 c 0
 401 1028 383 1041 356 1041 c 0
 336 1041 308 1034 279 1024 c 1
 264 1076 l 1
 301 1093 346 1101 377 1101 c 0
 437 1101 472 1072 469 1029 c 0
 466 986 423 941 348 913 c 1xde
351 751 m 0
 275 751 218 794 208 859 c 1
 275 895 l 1
 279 847 316 814 367 814 c 0
 420 814 462 847 473 896 c 1
 510 870 l 1
 492 799 428 751 351 751 c 0
43 0 m 1
 303 694 l 1
 411 694 l 1
 655 0 l 1
 562 0 l 1
 493 206 l 1
 204 206 l 1
 130 0 l 1
 43 0 l 1
229 278 m 1
 468 278 l 1
 352 623 l 1xee
 229 278 l 1
EndSplineSet
EndChar

StartChar: uni1EB4
Encoding: 7860 7860 8
Width: 699
GlyphClass: 2
Flags: MW
HStem: 0 21G<43 43 43 130 562 562 562 655> 206 72<229 468 229 493 204 468> 623 71<352 352> 674 20G<303 411 411 411> 751 63<341.5 389.5> 970 61<405.5 439.5 405.5 445> 1011 63<293 324.5>
VStem: 43 612<0 0>
AnchorPoint: "Anchor-3" 350 694 basechar 0
AnchorPoint: "Anchor-0" 350 0 basechar 0
LayerCount: 2
Fore
SplineSet
249 968 m 1xdb
 199 980 l 1
 222 1043 268 1074 312 1074 c 0xdb
 368 1074 385 1031 426 1031 c 0
 453 1031 473 1049 485 1075 c 1
 535 1062 l 1
 518 1002 471 970 419 970 c 0xdd
 357 970 344 1011 305 1011 c 0
 281 1011 261 994 249 968 c 1xdb
351 751 m 0
 275 751 218 794 208 859 c 1
 275 895 l 1
 279 847 316 814 367 814 c 0
 420 814 462 847 473 896 c 1
 510 870 l 1
 492 799 428 751 351 751 c 0
43 0 m 1
 303 694 l 1
 411 694 l 1
 655 0 l 1
 562 0 l 1
 493 206 l 1
 204 206 l 1
 130 0 l 1
 43 0 l 1
229 278 m 1
 468 278 l 1
 352 623 l 1xed
 229 278 l 1
EndSplineSet
EndChar

StartChar: uni01CD
Encoding: 461 461 9
Width: 699
GlyphClass: 2
Flags: MW
HStem: 0 21G<43 43 43 130 562 562 562 655> 206 72<229 468 229 493 204 468> 623 71<352 352> 674 20G<303 411 411 411>
VStem: 43 612<0 0>
AnchorPoint: "Anchor-3" 350 836 basechar 0
AnchorPoint: "Anchor-0" 350 0 basechar 0
LayerCount: 2
Fore
SplineSet
330 754 m 1xd8
 200 880 l 1
 249 922 l 1
 354 822 l 1
 466 923 l 1
 500 893 l 1
 373 754 l 1
 330 754 l 1xd8
43 0 m 1
 303 694 l 1
 411 694 l 1
 655 0 l 1
 562 0 l 1
 493 206 l 1
 204 206 l 1
 130 0 l 1
 43 0 l 1
229 278 m 1
 468 278 l 1
 352 623 l 1xe8
 229 278 l 1
EndSplineSet
EndChar

StartChar: Acircumflex
Encoding: 194 194 10
Width: 699
GlyphClass: 2
Flags: MW
HStem: 0 21G<43 43 43 130 562 562 562 655> 206 72<229 468 229 493 204 468> 623 71<352 352> 674 20G<303 411 411 411>
VStem: 43 612<0 0>
AnchorPoint: "Anchor-3" 350 852 basechar 0
AnchorPoint: "Anchor-0" 350 0 basechar 0
LayerCount: 2
Fore
SplineSet
207 782 m 1xd8
 335 923 l 1
 378 923 l 1
 505 796 l 1
 461 754 l 1
 352 852 l 1
 242 754 l 1
 207 782 l 1xd8
43 0 m 1
 303 694 l 1
 411 694 l 1
 655 0 l 1
 562 0 l 1
 493 206 l 1
 204 206 l 1
 130 0 l 1
 43 0 l 1
229 278 m 1
 468 278 l 1
 352 623 l 1xe8
 229 278 l 1
EndSplineSet
EndChar

StartChar: uni1EA4
Encoding: 7844 7844 11
Width: 699
GlyphClass: 2
Flags: MW
HStem: 0 21G<43 43 43 130 562 562 562 655> 206 72<229 468 229 493 204 468> 623 71<352 352> 674 20G<303 411 411 411>
VStem: 43 629
AnchorPoint: "Anchor-3" 350 694 basechar 0
AnchorPoint: "Anchor-0" 350 0 basechar 0
LayerCount: 2
Fore
SplineSet
529 877 m 1xd8
 495 907 l 1
 615 1059 l 1
 672 1006 l 1
 529 877 l 1xd8
209 776 m 1
 346 892 l 1
 389 892 l 1
 508 790 l 1
 461 748 l 1
 358 822 l 1
 242 748 l 1
 209 776 l 1
43 0 m 1
 303 694 l 1
 411 694 l 1
 655 0 l 1
 562 0 l 1
 493 206 l 1
 204 206 l 1
 130 0 l 1
 43 0 l 1
229 278 m 1
 468 278 l 1
 352 623 l 1xe8
 229 278 l 1
EndSplineSet
EndChar

StartChar: uni1EAC
Encoding: 7852 7852 12
Width: 699
GlyphClass: 2
Flags: MW
HStem: -195 114<332 368> 0 21G<43 43 43 130 562 562 562 655> 206 72<229 468 229 493 204 468> 623 71<352 352> 674 20G<303 411 411 411>
VStem: 293 114<-156 -120>
AnchorPoint: "Anchor-3" 350 852 basechar 0
AnchorPoint: "Anchor-0" 350 -205 basechar 0
LayerCount: 2
Fore
SplineSet
207 782 m 1xec
 335 923 l 1
 378 923 l 1
 505 796 l 1
 461 754 l 1
 352 852 l 1
 242 754 l 1
 207 782 l 1xec
43 0 m 1
 303 694 l 1
 411 694 l 1
 655 0 l 1
 562 0 l 1
 493 206 l 1
 204 206 l 1
 130 0 l 1
 43 0 l 1
229 278 m 1
 468 278 l 1
 352 623 l 1xf4
 229 278 l 1
350 -195 m 0
 314 -195 293 -174 293 -138 c 0
 293 -102 314 -81 350 -81 c 0
 386 -81 407 -102 407 -138 c 0
 407 -174 386 -195 350 -195 c 0
EndSplineSet
EndChar

StartChar: uni1EA6
Encoding: 7846 7846 13
Width: 699
GlyphClass: 2
Flags: MW
HStem: 0 21G<43 43 43 130 562 562 562 655> 206 72<229 468 229 493 204 468> 623 71<352 352> 674 20G<303 411 411 411>
VStem: 43 612<0 0>
AnchorPoint: "Anchor-3" 350 694 basechar 0
AnchorPoint: "Anchor-0" 350 0 basechar 0
LayerCount: 2
Fore
SplineSet
520 879 m 1xd8
 388 1002 l 1
 450 1058 l 1
 557 912 l 1
 520 879 l 1xd8
209 776 m 1
 346 892 l 1
 389 892 l 1
 508 790 l 1
 461 748 l 1
 358 822 l 1
 242 748 l 1
 209 776 l 1
43 0 m 1
 303 694 l 1
 411 694 l 1
 655 0 l 1
 562 0 l 1
 493 206 l 1
 204 206 l 1
 130 0 l 1
 43 0 l 1
229 278 m 1
 468 278 l 1
 352 623 l 1xe8
 229 278 l 1
EndSplineSet
EndChar

StartChar: uni1EA8
Encoding: 7848 7848 14
Width: 699
GlyphClass: 2
Flags: MW
HStem: 0 21G<43 43 43 130 562 562 562 655> 206 72<229 468 229 493 204 468> 623 71<352 352> 674 20G<303 411 411 411> 1007 60<522.5 530.5>
VStem: 561 69
AnchorPoint: "Anchor-3" 350 694 basechar 0
AnchorPoint: "Anchor-0" 350 0 basechar 0
LayerCount: 2
Fore
SplineSet
509 879 m 1xdc
 497 919 l 1
 534 933 560 957 561 977 c 0
 562 994 544 1007 517 1007 c 0
 497 1007 469 1000 440 990 c 1
 425 1042 l 1
 462 1059 507 1067 538 1067 c 0
 598 1067 633 1038 630 995 c 0
 627 952 584 907 509 879 c 1xdc
209 776 m 1
 346 892 l 1
 389 892 l 1
 508 790 l 1
 461 748 l 1
 358 822 l 1
 242 748 l 1
 209 776 l 1
43 0 m 1
 303 694 l 1
 411 694 l 1
 655 0 l 1
 562 0 l 1
 493 206 l 1
 204 206 l 1
 130 0 l 1
 43 0 l 1
229 278 m 1
 468 278 l 1
 352 623 l 1xec
 229 278 l 1
EndSplineSet
EndChar

StartChar: uni1EAA
Encoding: 7850 7850 15
Width: 699
GlyphClass: 2
Flags: MW
HStem: 0 21G<43 43 43 130 562 562 562 655> 206 72<229 468 229 493 204 468> 623 71<352 352> 674 20G<303 411 411 411> 984 61<408.5 442.5 408.5 448> 1025 63<296 327.5>
VStem: 43 612<0 0>
AnchorPoint: "Anchor-3" 350 694 basechar 0
AnchorPoint: "Anchor-0" 350 0 basechar 0
LayerCount: 2
Fore
SplineSet
252 982 m 1xd6
 202 994 l 1
 225 1057 271 1088 315 1088 c 0xd6
 371 1088 388 1045 429 1045 c 0
 456 1045 476 1063 488 1089 c 1
 538 1076 l 1
 521 1016 474 984 422 984 c 0xda
 360 984 347 1025 308 1025 c 0
 284 1025 264 1008 252 982 c 1xd6
209 776 m 1
 346 892 l 1
 389 892 l 1
 508 790 l 1
 461 748 l 1
 358 822 l 1
 242 748 l 1
 209 776 l 1
43 0 m 1
 303 694 l 1
 411 694 l 1
 655 0 l 1
 562 0 l 1
 493 206 l 1
 204 206 l 1
 130 0 l 1
 43 0 l 1
229 278 m 1
 468 278 l 1
 352 623 l 1xea
 229 278 l 1
EndSplineSet
EndChar

StartChar: uni0200
Encoding: 512 512 16
Width: 699
GlyphClass: 2
Flags: MW
HStem: 0 21G<43 43 43 130 562 562 562 655> 206 72<229 468 229 493 204 468> 623 71<352 352> 674 20G<303 411 411 411>
VStem: 43 612<0 0>
AnchorPoint: "Anchor-3" 350 926 basechar 0
AnchorPoint: "Anchor-0" 350 0 basechar 0
LayerCount: 2
Fore
SplineSet
485 764 m 1xd8
 355 885 l 1
 415 939 l 1
 524 800 l 1
 485 764 l 1xd8
295 764 m 1
 165 885 l 1
 225 939 l 1
 334 800 l 1
 295 764 l 1
43 0 m 1
 303 694 l 1
 411 694 l 1
 655 0 l 1
 562 0 l 1
 493 206 l 1
 204 206 l 1
 130 0 l 1
 43 0 l 1
229 278 m 1
 468 278 l 1
 352 623 l 1xe8
 229 278 l 1
EndSplineSet
EndChar

StartChar: Adieresis
Encoding: 196 196 17
Width: 699
GlyphClass: 2
Flags: MW
HStem: 0 21G<43 43 43 130 562 562 562 655> 206 72<229 468 229 493 204 468> 623 71<352 352> 674 20G<303 411 411 411> 777 114<229 265 429 465>
VStem: 190 114<816 852> 390 114<816 852>
AnchorPoint: "Anchor-3" 350 856 basechar 0
AnchorPoint: "Anchor-0" 350 0 basechar 0
LayerCount: 2
Fore
SplineSet
247 777 m 0xde
 211 777 190 798 190 834 c 0
 190 870 211 891 247 891 c 0
 283 891 304 870 304 834 c 0
 304 798 283 777 247 777 c 0xde
447 777 m 0
 411 777 390 798 390 834 c 0
 390 870 411 891 447 891 c 0
 483 891 504 870 504 834 c 0
 504 798 483 777 447 777 c 0
43 0 m 1
 303 694 l 1
 411 694 l 1
 655 0 l 1
 562 0 l 1
 493 206 l 1
 204 206 l 1
 130 0 l 1
 43 0 l 1
229 278 m 1
 468 278 l 1
 352 623 l 1xee
 229 278 l 1
EndSplineSet
EndChar

StartChar: uni1EA0
Encoding: 7840 7840 18
Width: 699
GlyphClass: 2
Flags: MW
HStem: -195 114<332 368> 0 21G<43 43 43 130 562 562 562 655> 206 72<229 468 229 493 204 468> 623 71<352 352> 674 20G<303 411 411 411>
VStem: 293 114<-156 -120>
AnchorPoint: "Anchor-3" 350 694 basechar 0
AnchorPoint: "Anchor-0" 350 -205 basechar 0
LayerCount: 2
Fore
SplineSet
43 0 m 1xec
 303 694 l 1
 411 694 l 1
 655 0 l 1
 562 0 l 1
 493 206 l 1
 204 206 l 1
 130 0 l 1
 43 0 l 1xec
229 278 m 1
 468 278 l 1
 352 623 l 1xf4
 229 278 l 1
350 -195 m 0
 314 -195 293 -174 293 -138 c 0
 293 -102 314 -81 350 -81 c 0
 386 -81 407 -102 407 -138 c 0
 407 -174 386 -195 350 -195 c 0
EndSplineSet
EndChar

StartChar: Agrave
Encoding: 192 192 19
Width: 699
GlyphClass: 2
Flags: MW
HStem: 0 21G<43 43 43 130 562 562 562 655> 206 72<229 468 229 493 204 468> 623 71<352 352> 674 20G<303 411 411 411>
VStem: 43 612<0 0>
AnchorPoint: "Anchor-3" 399 801 basechar 0
AnchorPoint: "Anchor-0" 350 0 basechar 0
LayerCount: 2
Fore
SplineSet
366 744 m 1xd8
 202 853 l 1
 252 917 l 1
 398 786 l 1
 366 744 l 1xd8
43 0 m 1
 303 694 l 1
 411 694 l 1
 655 0 l 1
 562 0 l 1
 493 206 l 1
 204 206 l 1
 130 0 l 1
 43 0 l 1
229 278 m 1
 468 278 l 1
 352 623 l 1xe8
 229 278 l 1
EndSplineSet
EndChar

StartChar: uni1EA2
Encoding: 7842 7842 20
Width: 699
GlyphClass: 2
Flags: MW
HStem: 0 21G<43 43 43 130 562 562 562 655> 206 72<229 468 229 493 204 468> 623 71<352 352> 674 20G<303 411 411 411> 899 63<340.5 354.5>
VStem: 387 67<852 871>
AnchorPoint: "Anchor-3" 350 962 basechar 0
AnchorPoint: "Anchor-0" 350 0 basechar 0
LayerCount: 2
Fore
SplineSet
342 739 m 1xdc
 327 781 l 1
 363 801 387 832 387 859 c 0
 387 883 368 899 341 899 c 0
 321 899 293 890 265 876 c 1
 246 930 l 1
 282 952 324 962 357 962 c 0
 417 962 454 929 454 878 c 0
 454 826 415 774 342 739 c 1xdc
43 0 m 1
 303 694 l 1
 411 694 l 1
 655 0 l 1
 562 0 l 1
 493 206 l 1
 204 206 l 1
 130 0 l 1
 43 0 l 1
229 278 m 1
 468 278 l 1
 352 623 l 1xec
 229 278 l 1
EndSplineSet
EndChar

StartChar: uni0202
Encoding: 514 514 21
Width: 699
GlyphClass: 2
Flags: MW
HStem: 0 21G<43 43 43 130 562 562 562 655> 206 72<229 468 229 493 204 468> 623 71<352 352> 674 20G<303 411 411 411> 862 65<321 369.5>
VStem: 43 612<0 0>
AnchorPoint: "Anchor-3" 350 908 basechar 0
AnchorPoint: "Anchor-0" 350 0 basechar 0
LayerCount: 2
Fore
SplineSet
249 757 m 1xdc
 210 783 l 1
 223 869 282 927 358 927 c 0
 431 927 491 874 504 795 c 1
 440 758 l 1
 433 820 394 862 345 862 c 0
 297 862 256 823 249 757 c 1xdc
43 0 m 1
 303 694 l 1
 411 694 l 1
 655 0 l 1
 562 0 l 1
 493 206 l 1
 204 206 l 1
 130 0 l 1
 43 0 l 1
229 278 m 1
 468 278 l 1
 352 623 l 1xec
 229 278 l 1
EndSplineSet
EndChar

StartChar: Amacron
Encoding: 256 256 22
Width: 699
GlyphClass: 2
Flags: MW
HStem: 0 21G<43 43 43 130 562 562 562 655> 206 72<229 468 229 493 204 468> 623 71<352 352> 674 20G<303 411 411 411> 788 66<193 506 193 506>
VStem: 43 612<0 0>
AnchorPoint: "Anchor-3" 350 857 basechar 0
AnchorPoint: "Anchor-0" 350 0 basechar 0
LayerCount: 2
Fore
SplineSet
193 788 m 1xdc
 193 854 l 1
 506 854 l 1
 506 788 l 1
 193 788 l 1xdc
43 0 m 1
 303 694 l 1
 411 694 l 1
 655 0 l 1
 562 0 l 1
 493 206 l 1
 204 206 l 1
 130 0 l 1
 43 0 l 1
229 278 m 1
 468 278 l 1
 352 623 l 1xec
 229 278 l 1
EndSplineSet
EndChar

StartChar: Aogonek
Encoding: 260 260 23
Width: 699
GlyphClass: 2
Flags: MW
HStem: -229 54<584 595.5> 0 21G<43 43 43 130 562 562 562 576 655 655> 206 72<229 468 229 493 204 468> 623 71<352 352> 674 20G<303 411 411 411>
VStem: 477 71<-135.5 -103.5>
AnchorPoint: "Anchor-3" 350 694 basechar 0
AnchorPoint: "Anchor-0" 350 0 basechar 0
LayerCount: 2
Fore
SplineSet
43 0 m 1xec
 303 694 l 1
 411 694 l 1
 655 0 l 1
 591 -18 548 -65 548 -118 c 0
 548 -153 568 -175 600 -175 c 0
 614 -175 630 -171 644 -165 c 1
 650 -209 l 1
 633 -220 611 -229 580 -229 c 0
 516 -229 477 -192 477 -132 c 0
 477 -75 514 -27 576 0 c 1
 562 0 l 1
 493 206 l 1
 204 206 l 1
 130 0 l 1
 43 0 l 1xec
229 278 m 1
 468 278 l 1
 352 623 l 1xf4
 229 278 l 1
EndSplineSet
EndChar

StartChar: Aring
Encoding: 197 197 24
Width: 699
GlyphClass: 2
Flags: MW
HStem: 0 21G<43 43 43 130 562 562 562 655> 206 72<229 468 229 493 204 468> 623 71<352 352> 674 20G<303 411 411 411> 742 58<337.5 365 337.5 380> 892 58<335 362.5>
VStem: 246 58<833.5 861 833.5 876> 396 58<831 858.5>
AnchorPoint: "Anchor-3" 350 950 basechar 0
AnchorPoint: "Anchor-0" 350 0 basechar 0
LayerCount: 2
Fore
SplineSet
348 742 m 0xdf
 287 742 246 783 246 844 c 0
 246 908 288 950 352 950 c 0
 413 950 454 909 454 848 c 0
 454 784 412 742 348 742 c 0xdf
352 800 m 0
 378 800 396 818 396 844 c 0
 396 873 377 892 348 892 c 0
 322 892 304 874 304 848 c 0
 304 819 323 800 352 800 c 0
43 0 m 1
 303 694 l 1
 411 694 l 1
 655 0 l 1
 562 0 l 1
 493 206 l 1
 204 206 l 1
 130 0 l 1
 43 0 l 1
229 278 m 1
 468 278 l 1
 352 623 l 1xef
 229 278 l 1
EndSplineSet
EndChar

StartChar: Aringacute
Encoding: 506 506 25
Width: 699
GlyphClass: 2
Flags: MW
HStem: 0 21G<43 43 43 130 562 562 562 655> 206 72<229 468 229 493 204 468> 623 71<352 352> 674 20G<303 411 411 411> 742 58<337.5 365 337.5 380> 892 58<335 362.5>
VStem: 246 58<833.5 861 833.5 876> 396 58<831 852 816 858.5>
AnchorPoint: "Anchor-3" 350 694 basechar 0
AnchorPoint: "Anchor-0" 350 0 basechar 0
LayerCount: 2
Fore
SplineSet
348 742 m 0xdf
 287 742 246 783 246 844 c 0
 246 908 288 950 352 950 c 0
 382 950 408 940 425 922 c 1
 551 1001 l 1
 590 929 l 1
 452 870 l 1
 453 863 454 856 454 848 c 0
 454 784 412 742 348 742 c 0xdf
352 800 m 0
 378 800 396 818 396 844 c 0
 396 873 377 892 348 892 c 0
 322 892 304 874 304 848 c 0
 304 819 323 800 352 800 c 0
43 0 m 1
 303 694 l 1
 411 694 l 1
 655 0 l 1
 562 0 l 1
 493 206 l 1
 204 206 l 1
 130 0 l 1
 43 0 l 1
229 278 m 1
 468 278 l 1
 352 623 l 1xef
 229 278 l 1
EndSplineSet
EndChar

StartChar: Atilde
Encoding: 195 195 26
Width: 699
GlyphClass: 2
Flags: MW
HStem: 0 21G<43 43 43 130 562 562 562 655> 206 72<229 468 229 493 204 468> 623 71<352 352> 674 20G<303 411 411 411> 764 64<391 426.5 391 438.5> 815 66<272 305.5>
VStem: 43 612<0 0>
AnchorPoint: "Anchor-3" 351 876 basechar 0
AnchorPoint: "Anchor-0" 350 0 basechar 0
LayerCount: 2
Fore
SplineSet
228 762 m 1xd6
 175 776 l 1xd6
 195 848 240 881 288 881 c 0
 349 881 369 828 413 828 c 0
 440 828 462 848 473 883 c 1
 526 869 l 1xda
 512 800 467 764 410 764 c 0
 343 764 326 815 285 815 c 0
 259 815 238 794 228 762 c 1xd6
43 0 m 1
 303 694 l 1
 411 694 l 1
 655 0 l 1
 562 0 l 1
 493 206 l 1
 204 206 l 1
 130 0 l 1
 43 0 l 1
229 278 m 1
 468 278 l 1
 352 623 l 1xea
 229 278 l 1
EndSplineSet
EndChar

StartChar: AE
Encoding: 198 198 27
Width: 961
GlyphClass: 2
Flags: MW
HStem: 0 72<545 898 545 898> 202 80<289 462 289 462 244 462> 323 72<545 871 545 871> 622 72<545 898 545 545>
VStem: 462 83<72 202 202 202 282 323 395 589 589 589>
AnchorPoint: "Anchor-3" 511 694 basechar 0
AnchorPoint: "Anchor-0" 511 0 basechar 0
LayerCount: 2
Fore
SplineSet
40 0 m 1
 438 694 l 1
 898 694 l 1
 898 622 l 1
 545 622 l 1
 545 395 l 1
 871 395 l 1
 871 323 l 1
 545 323 l 1
 545 72 l 1
 898 72 l 1
 898 0 l 1
 462 0 l 1
 462 202 l 1
 244 202 l 1
 130 0 l 1
 40 0 l 1
289 282 m 1
 462 282 l 1
 462 589 l 1
 289 282 l 1
EndSplineSet
EndChar

StartChar: AEacute
Encoding: 508 508 28
Width: 961
GlyphClass: 2
Flags: MW
HStem: 0 72<545 898 545 898> 202 80<289 462 289 462 244 462> 323 72<545 871 545 871> 622 72<545 898 545 545>
VStem: 462 83<72 202 202 202 282 323 395 589 589 589>
AnchorPoint: "Anchor-3" 462 801 basechar 0
AnchorPoint: "Anchor-0" 511 0 basechar 0
LayerCount: 2
Fore
SplineSet
495 744 m 1
 463 786 l 1
 609 917 l 1
 659 853 l 1
 495 744 l 1
40 0 m 1
 438 694 l 1
 898 694 l 1
 898 622 l 1
 545 622 l 1
 545 395 l 1
 871 395 l 1
 871 323 l 1
 545 323 l 1
 545 72 l 1
 898 72 l 1
 898 0 l 1
 462 0 l 1
 462 202 l 1
 244 202 l 1
 130 0 l 1
 40 0 l 1
289 282 m 1
 462 282 l 1
 462 589 l 1
 289 282 l 1
EndSplineSet
EndChar

StartChar: B
Encoding: 66 66 29
Width: 662
GlyphClass: 2
Flags: MW
HStem: 0 71<189 348> 327 69<189 372 189 381> 623 71<189 307 189 189>
VStem: 106 83<71 71 71 327 396 623> 465 85<496.5 544.5> 517 85<145 228>
AnchorPoint: "Anchor-3" 328 694 basechar 0
AnchorPoint: "Anchor-0" 328 0 basechar 0
LayerCount: 2
Fore
SplineSet
106 0 m 1xf4
 106 694 l 1
 317 694 l 2
 465 694 550 633 550 527 c 0xf8
 550 466 520 409 472 382 c 1
 553 355 602 289 602 202 c 0
 602 75 508 0 348 0 c 2
 106 0 l 1xf4
381 396 m 2
 383 396 386 396 388 396 c 0
 443 424 465 456 465 505 c 0
 465 584 413 623 307 623 c 2
 189 623 l 1
 189 396 l 1
 381 396 l 2
189 71 m 1
 358 71 l 2
 469 71 517 105 517 185 c 0xf4
 517 271 460 327 372 327 c 2
 189 327 l 1
 189 71 l 1
EndSplineSet
EndChar

StartChar: C
Encoding: 67 67 30
Width: 669
GlyphClass: 2
Flags: MW
HStem: -10 73<345 442.5> 630 73<336.5 448>
VStem: 67 85<269.5 442.5 269.5 448>
AnchorPoint: "Anchor-3" 380 694 basechar 0
AnchorPoint: "Anchor-0" 380 0 basechar 0
LayerCount: 2
Fore
SplineSet
409 -10 m 0
 204 -10 67 130 67 339 c 0
 67 557 210 703 425 703 c 0
 493 703 565 687 616 660 c 1
 592 598 l 1
 539 618 476 630 420 630 c 0
 253 630 152 527 152 358 c 0
 152 181 262 63 428 63 c 0
 481 63 543 75 593 95 c 1
 612 34 l 1
 546 5 476 -10 409 -10 c 0
EndSplineSet
EndChar

StartChar: Cacute
Encoding: 262 262 31
Width: 669
GlyphClass: 2
Flags: MW
HStem: -10 73<345 442.5> 630 73<336.5 448>
VStem: 67 85<269.5 442.5 269.5 448>
AnchorPoint: "Anchor-3" 331 801 basechar 0
AnchorPoint: "Anchor-0" 380 0 basechar 0
LayerCount: 2
Fore
SplineSet
364 744 m 1
 332 786 l 1
 478 917 l 1
 528 853 l 1
 364 744 l 1
409 -10 m 0
 204 -10 67 130 67 339 c 0
 67 557 210 703 425 703 c 0
 493 703 565 687 616 660 c 1
 592 598 l 1
 539 618 476 630 420 630 c 0
 253 630 152 527 152 358 c 0
 152 181 262 63 428 63 c 0
 481 63 543 75 593 95 c 1
 612 34 l 1
 546 5 476 -10 409 -10 c 0
EndSplineSet
EndChar

StartChar: Ccaron
Encoding: 268 268 32
Width: 669
GlyphClass: 2
Flags: MW
HStem: -10 73<345 442.5> 630 73<336.5 448>
VStem: 67 85<269.5 442.5 269.5 448>
AnchorPoint: "Anchor-3" 380 836 basechar 0
AnchorPoint: "Anchor-0" 380 0 basechar 0
LayerCount: 2
Fore
SplineSet
360 754 m 1
 230 880 l 1
 279 922 l 1
 384 822 l 1
 496 923 l 1
 530 893 l 1
 403 754 l 1
 360 754 l 1
409 -10 m 0
 204 -10 67 130 67 339 c 0
 67 557 210 703 425 703 c 0
 493 703 565 687 616 660 c 1
 592 598 l 1
 539 618 476 630 420 630 c 0
 253 630 152 527 152 358 c 0
 152 181 262 63 428 63 c 0
 481 63 543 75 593 95 c 1
 612 34 l 1
 546 5 476 -10 409 -10 c 0
EndSplineSet
EndChar

StartChar: Ccedilla
Encoding: 199 199 33
Width: 669
GlyphClass: 2
Flags: MW
HStem: -227 21G<358.5 415.5> -227 55<367.5 402 367.5 415.5> -89 44 -10 73<402 409 402 403> -6 21G<348 348> 630 73<336.5 448>
VStem: 67 85<269.5 442.5 269.5 448> 437 71<-152.5 -126.5>
AnchorPoint: "Anchor-3" 380 694 basechar 0
AnchorPoint: "Anchor-0" 489 -230 basechar 0
LayerCount: 2
Fore
SplineSet
409 -10 m 0x56
 407 -10 404 -10 402 -10 c 2
 394 -45 l 1
 465 -50 508 -83 508 -132 c 0
 508 -189 455 -227 376 -227 c 0x77
 341 -227 308 -220 282 -207 c 1x96
 299 -155 l 1
 323 -166 352 -172 383 -172 c 0
 421 -172 437 -163 437 -142 c 0
 437 -111 402 -94 328 -89 c 1
 348 -6 l 1x6f
 177 20 67 152 67 339 c 0
 67 557 210 703 425 703 c 0
 493 703 565 687 616 660 c 1
 592 598 l 1
 539 618 476 630 420 630 c 0
 253 630 152 527 152 358 c 0
 152 181 262 63 428 63 c 0
 481 63 543 75 593 95 c 1
 612 34 l 1
 546 5 476 -10 409 -10 c 0x56
EndSplineSet
EndChar

StartChar: uni1E08
Encoding: 7688 7688 34
Width: 669
GlyphClass: 2
Flags: MW
HStem: -227 21G<358.5 415.5> -227 55<367.5 402 367.5 415.5> -89 44 -10 73<402 409 402 403> -6 21G<348 348> 630 73<336.5 448>
VStem: 67 85<269.5 442.5 269.5 448> 437 71<-152.5 -126.5>
AnchorPoint: "Anchor-3" 331 801 basechar 0
AnchorPoint: "Anchor-0" 489 -230 basechar 0
LayerCount: 2
Fore
SplineSet
364 744 m 1x56
 332 786 l 1
 478 917 l 1
 528 853 l 1
 364 744 l 1x56
409 -10 m 0
 407 -10 404 -10 402 -10 c 2
 394 -45 l 1
 465 -50 508 -83 508 -132 c 0
 508 -189 455 -227 376 -227 c 0x77
 341 -227 308 -220 282 -207 c 1x96
 299 -155 l 1
 323 -166 352 -172 383 -172 c 0
 421 -172 437 -163 437 -142 c 0
 437 -111 402 -94 328 -89 c 1
 348 -6 l 1x6f
 177 20 67 152 67 339 c 0
 67 557 210 703 425 703 c 0
 493 703 565 687 616 660 c 1
 592 598 l 1
 539 618 476 630 420 630 c 0
 253 630 152 527 152 358 c 0
 152 181 262 63 428 63 c 0
 481 63 543 75 593 95 c 1
 612 34 l 1
 546 5 476 -10 409 -10 c 0
EndSplineSet
EndChar

StartChar: Ccircumflex
Encoding: 264 264 35
Width: 669
GlyphClass: 2
Flags: MW
HStem: -10 73<345 442.5> 630 73<336.5 448>
VStem: 67 85<269.5 442.5 269.5 448>
AnchorPoint: "Anchor-3" 380 852 basechar 0
AnchorPoint: "Anchor-0" 380 0 basechar 0
LayerCount: 2
Fore
SplineSet
237 782 m 1
 365 923 l 1
 408 923 l 1
 535 796 l 1
 491 754 l 1
 382 852 l 1
 272 754 l 1
 237 782 l 1
409 -10 m 0
 204 -10 67 130 67 339 c 0
 67 557 210 703 425 703 c 0
 493 703 565 687 616 660 c 1
 592 598 l 1
 539 618 476 630 420 630 c 0
 253 630 152 527 152 358 c 0
 152 181 262 63 428 63 c 0
 481 63 543 75 593 95 c 1
 612 34 l 1
 546 5 476 -10 409 -10 c 0
EndSplineSet
EndChar

StartChar: Cdotaccent
Encoding: 266 266 36
Width: 669
GlyphClass: 2
Flags: MW
HStem: -10 73<345 442.5> 630 73<336.5 448> 778 114<359 395>
VStem: 67 85<269.5 442.5 269.5 448> 320 114<817 853>
AnchorPoint: "Anchor-3" 380 856 basechar 0
AnchorPoint: "Anchor-0" 380 0 basechar 0
LayerCount: 2
Fore
SplineSet
377 778 m 0
 341 778 320 799 320 835 c 0
 320 871 341 892 377 892 c 0
 413 892 434 871 434 835 c 0
 434 799 413 778 377 778 c 0
409 -10 m 0
 204 -10 67 130 67 339 c 0
 67 557 210 703 425 703 c 0
 493 703 565 687 616 660 c 1
 592 598 l 1
 539 618 476 630 420 630 c 0
 253 630 152 527 152 358 c 0
 152 181 262 63 428 63 c 0
 481 63 543 75 593 95 c 1
 612 34 l 1
 546 5 476 -10 409 -10 c 0
EndSplineSet
EndChar

StartChar: D
Encoding: 68 68 37
Width: 737
GlyphClass: 2
Flags: MW
HStem: 0 72<189 318> 622 72<189 323 189 189>
VStem: 106 83<72 72 72 622> 586 85<259.5 435>
AnchorPoint: "Anchor-3" 336 694 basechar 0
AnchorPoint: "Anchor-1" 173 347 basechar 0
AnchorPoint: "Anchor-0" 336 0 basechar 0
LayerCount: 2
Fore
SplineSet
106 0 m 1
 106 694 l 1
 333 694 l 2
 545 694 671 570 671 360 c 0
 671 137 528 0 318 0 c 2
 106 0 l 1
189 72 m 1
 328 72 l 2
 493 72 586 172 586 347 c 0
 586 523 492 622 323 622 c 2
 189 622 l 1
 189 72 l 1
EndSplineSet
EndChar

StartChar: uni01C4
Encoding: 452 452 38
Width: 1399
GlyphClass: 2
Flags: MW
HStem: 0 72<189 318 898 1347> 622 72<189 323 189 189 803 1224>
VStem: 106 83<72 72 72 622> 586 85<259.5 435>
AnchorPoint: "Anchor-6" 336 694 baselig 0
AnchorPoint: "Anchor-5" 336 0 baselig 0
AnchorPoint: "Anchor-1" 173 347 basechar 0
AnchorPoint: "Anchor-6" 1068 836 baselig 1
AnchorPoint: "Anchor-5" 1068 0 baselig 1
LayerCount: 2
Fore
SplineSet
1048 754 m 1
 918 880 l 1
 967 922 l 1
 1072 822 l 1
 1184 923 l 1
 1218 893 l 1
 1091 754 l 1
 1048 754 l 1
106 0 m 1
 106 694 l 1
 333 694 l 2
 545 694 671 570 671 360 c 0
 671 137 528 0 318 0 c 2
 106 0 l 1
789 0 m 1
 789 53 l 1
 1224 622 l 1
 803 622 l 1
 803 694 l 1
 1334 694 l 1
 1334 642 l 1
 898 72 l 1
 1347 72 l 1
 1347 0 l 1
 789 0 l 1
189 72 m 1
 328 72 l 2
 493 72 586 172 586 347 c 0
 586 523 492 622 323 622 c 2
 189 622 l 1
 189 72 l 1
EndSplineSet
EndChar

StartChar: Eth
Encoding: 208 208 39
Width: 737
GlyphClass: 2
Flags: MW
HStem: 0 72<189 318> 318 58<34 106 34 106 189 311> 622 72<189 323 189 189>
VStem: 106 83<72 72 72 318 376 622> 586 85<259.5 435>
AnchorPoint: "Anchor-3" 336 694 basechar 0
AnchorPoint: "Anchor-1" 173 347 basechar 0
AnchorPoint: "Anchor-0" 336 0 basechar 0
LayerCount: 2
Fore
SplineSet
106 0 m 1
 106 318 l 1
 34 318 l 1
 34 376 l 1
 106 376 l 1
 106 694 l 1
 333 694 l 2
 545 694 671 570 671 360 c 0
 671 137 528 0 318 0 c 2
 106 0 l 1
189 72 m 1
 328 72 l 2
 493 72 586 172 586 347 c 0
 586 523 492 622 323 622 c 2
 189 622 l 1
 189 376 l 1
 311 376 l 1
 311 318 l 1
 189 318 l 1
 189 72 l 1
EndSplineSet
EndChar

StartChar: Dcaron
Encoding: 270 270 40
Width: 737
GlyphClass: 2
Flags: MW
HStem: 0 72<189 318> 622 72<189 323 189 189>
VStem: 106 83<72 72 72 622> 586 85<259.5 435>
AnchorPoint: "Anchor-3" 336 836 basechar 0
AnchorPoint: "Anchor-1" 173 347 basechar 0
AnchorPoint: "Anchor-0" 336 0 basechar 0
LayerCount: 2
Fore
SplineSet
316 754 m 1
 186 880 l 1
 235 922 l 1
 340 822 l 1
 452 923 l 1
 486 893 l 1
 359 754 l 1
 316 754 l 1
106 0 m 1
 106 694 l 1
 333 694 l 2
 545 694 671 570 671 360 c 0
 671 137 528 0 318 0 c 2
 106 0 l 1
189 72 m 1
 328 72 l 2
 493 72 586 172 586 347 c 0
 586 523 492 622 323 622 c 2
 189 622 l 1
 189 72 l 1
EndSplineSet
EndChar

StartChar: Dcroat
Encoding: 272 272 41
Width: 737
GlyphClass: 2
Flags: MW
HStem: 0 72<189 318> 318 58<34 106 34 106 189 311> 622 72<189 323 189 189>
VStem: 106 83<72 72 72 318 376 622> 586 85<259.5 435>
AnchorPoint: "Anchor-3" 336 694 basechar 0
AnchorPoint: "Anchor-1" 173 347 basechar 0
AnchorPoint: "Anchor-0" 336 0 basechar 0
LayerCount: 2
Fore
SplineSet
106 0 m 1
 106 318 l 1
 34 318 l 1
 34 376 l 1
 106 376 l 1
 106 694 l 1
 333 694 l 2
 545 694 671 570 671 360 c 0
 671 137 528 0 318 0 c 2
 106 0 l 1
189 72 m 1
 328 72 l 2
 493 72 586 172 586 347 c 0
 586 523 492 622 323 622 c 2
 189 622 l 1
 189 376 l 1
 311 376 l 1
 311 318 l 1
 189 318 l 1
 189 72 l 1
EndSplineSet
EndChar

StartChar: uni1E0C
Encoding: 7692 7692 42
Width: 737
GlyphClass: 2
Flags: MW
HStem: -195 114<318 354> 0 72<189 318> 622 72<189 323 189 189>
VStem: 106 83<72 72 72 622> 279 114<-156 -120> 586 85<259.5 435>
AnchorPoint: "Anchor-3" 336 694 basechar 0
AnchorPoint: "Anchor-1" 173 347 basechar 0
AnchorPoint: "Anchor-0" 336 -205 basechar 0
LayerCount: 2
Fore
SplineSet
106 0 m 1
 106 694 l 1
 333 694 l 2
 545 694 671 570 671 360 c 0
 671 137 528 0 318 0 c 2
 106 0 l 1
189 72 m 1
 328 72 l 2
 493 72 586 172 586 347 c 0
 586 523 492 622 323 622 c 2
 189 622 l 1
 189 72 l 1
336 -195 m 0
 300 -195 279 -174 279 -138 c 0
 279 -102 300 -81 336 -81 c 0
 372 -81 393 -102 393 -138 c 0
 393 -174 372 -195 336 -195 c 0
EndSplineSet
EndChar

StartChar: uni1E0E
Encoding: 7694 7694 43
Width: 737
GlyphClass: 2
Flags: MW
HStem: -171 65<179 492 179 492> 0 72<189 318> 622 72<189 323 189 189>
VStem: 106 83<72 72 72 622> 586 85<259.5 435>
AnchorPoint: "Anchor-3" 336 694 basechar 0
AnchorPoint: "Anchor-1" 173 347 basechar 0
AnchorPoint: "Anchor-0" 336 -172 basechar 0
LayerCount: 2
Fore
SplineSet
106 0 m 1
 106 694 l 1
 333 694 l 2
 545 694 671 570 671 360 c 0
 671 137 528 0 318 0 c 2
 106 0 l 1
189 72 m 1
 328 72 l 2
 493 72 586 172 586 347 c 0
 586 523 492 622 323 622 c 2
 189 622 l 1
 189 72 l 1
179 -171 m 1
 179 -106 l 1
 492 -106 l 1
 492 -171 l 1
 179 -171 l 1
EndSplineSet
EndChar

StartChar: uni01C5
Encoding: 453 453 44
Width: 1208
GlyphClass: 2
Flags: MW
HStem: 0 67<882 1169 882 1169> 0 72<189 318> 415 67<779 1053 779 1157> 622 72<189 323 189 189>
VStem: 106 83<72 72 72 622> 586 85<259.5 435>
AnchorPoint: "Anchor-6" 336 694 baselig 0
AnchorPoint: "Anchor-5" 336 0 baselig 0
AnchorPoint: "Anchor-1" 173 347 basechar 0
AnchorPoint: "Anchor-6" 972 642 baselig 1
AnchorPoint: "Anchor-5" 972 0 baselig 1
LayerCount: 2
Fore
SplineSet
953 567 m 1xbc
 823 693 l 1
 872 735 l 1
 977 635 l 1
 1089 736 l 1
 1123 706 l 1
 996 567 l 1
 953 567 l 1xbc
106 0 m 1
 106 694 l 1
 333 694 l 2
 545 694 671 570 671 360 c 0
 671 137 528 0 318 0 c 2
 106 0 l 1
189 72 m 1x7c
 328 72 l 2
 493 72 586 172 586 347 c 0
 586 523 492 622 323 622 c 2
 189 622 l 1
 189 72 l 1x7c
779 0 m 1xbc
 779 49 l 1
 1053 415 l 1
 779 415 l 1
 779 482 l 1
 1157 482 l 1
 1157 433 l 1
 882 67 l 1
 1169 67 l 1
 1169 0 l 1
 779 0 l 1xbc
EndSplineSet
EndChar

StartChar: E
Encoding: 69 69 45
Width: 605
GlyphClass: 2
Flags: MW
HStem: 0 72<189 542 189 542> 323 72<189 515 189 515> 622 72<189 542 189 189>
VStem: 106 83<72 323 395 622>
AnchorPoint: "Anchor-3" 335 694 basechar 0
AnchorPoint: "Anchor-0" 315 0 basechar 0
LayerCount: 2
Fore
SplineSet
106 0 m 1
 106 694 l 1
 542 694 l 1
 542 622 l 1
 189 622 l 1
 189 395 l 1
 515 395 l 1
 515 323 l 1
 189 323 l 1
 189 72 l 1
 542 72 l 1
 542 0 l 1
 106 0 l 1
EndSplineSet
EndChar

StartChar: Eacute
Encoding: 201 201 46
Width: 605
GlyphClass: 2
Flags: MW
HStem: 0 72<189 542 189 542> 323 72<189 515 189 515> 622 72<189 542 189 189>
VStem: 106 83<72 323 395 622>
AnchorPoint: "Anchor-3" 286 801 basechar 0
AnchorPoint: "Anchor-0" 315 0 basechar 0
LayerCount: 2
Fore
SplineSet
319 744 m 1
 287 786 l 1
 433 917 l 1
 483 853 l 1
 319 744 l 1
106 0 m 1
 106 694 l 1
 542 694 l 1
 542 622 l 1
 189 622 l 1
 189 395 l 1
 515 395 l 1
 515 323 l 1
 189 323 l 1
 189 72 l 1
 542 72 l 1
 542 0 l 1
 106 0 l 1
EndSplineSet
EndChar

StartChar: Ebreve
Encoding: 276 276 47
Width: 605
GlyphClass: 2
Flags: MW
HStem: 0 72<189 542 189 542> 323 72<189 515 189 515> 622 72<189 542 189 189> 758 65<317.5 369.5 317.5 369.5>
VStem: 106 83<72 323 395 622>
AnchorPoint: "Anchor-3" 335 826 basechar 0
AnchorPoint: "Anchor-0" 315 0 basechar 0
LayerCount: 2
Fore
SplineSet
331 758 m 0
 255 758 195 811 181 890 c 1
 245 927 l 1
 253 865 292 823 343 823 c 0
 396 823 436 865 443 928 c 1
 482 902 l 1
 469 816 408 758 331 758 c 0
106 0 m 1
 106 694 l 1
 542 694 l 1
 542 622 l 1
 189 622 l 1
 189 395 l 1
 515 395 l 1
 515 323 l 1
 189 323 l 1
 189 72 l 1
 542 72 l 1
 542 0 l 1
 106 0 l 1
EndSplineSet
EndChar

StartChar: Ecaron
Encoding: 282 282 48
Width: 605
GlyphClass: 2
Flags: MW
HStem: 0 72<189 542 189 542> 323 72<189 515 189 515> 622 72<189 542 189 189>
VStem: 106 83<72 323 395 622>
AnchorPoint: "Anchor-3" 335 836 basechar 0
AnchorPoint: "Anchor-0" 315 0 basechar 0
LayerCount: 2
Fore
SplineSet
315 754 m 1
 185 880 l 1
 234 922 l 1
 339 822 l 1
 451 923 l 1
 485 893 l 1
 358 754 l 1
 315 754 l 1
106 0 m 1
 106 694 l 1
 542 694 l 1
 542 622 l 1
 189 622 l 1
 189 395 l 1
 515 395 l 1
 515 323 l 1
 189 323 l 1
 189 72 l 1
 542 72 l 1
 542 0 l 1
 106 0 l 1
EndSplineSet
EndChar

StartChar: uni1E1C
Encoding: 7708 7708 49
Width: 605
GlyphClass: 2
Flags: MW
HStem: -227 21G<293.5 350.5> -227 55<302.5 337 302.5 350.5> -89 44 0 72<189 284 339 339 339 542> 323 72<189 515 189 515> 622 72<189 542 189 189> 758 65<317.5 369.5 317.5 369.5>
VStem: 106 83<72 323 395 622> 372 71<-152.5 -126.5>
AnchorPoint: "Anchor-3" 335 826 basechar 0
AnchorPoint: "Anchor-0" 424 -230 basechar 0
LayerCount: 2
Fore
SplineSet
331 758 m 0x7f80
 255 758 195 811 181 890 c 1
 245 927 l 1
 253 865 292 823 343 823 c 0
 396 823 436 865 443 928 c 1
 482 902 l 1
 469 816 408 758 331 758 c 0x7f80
106 0 m 1
 106 694 l 1
 542 694 l 1
 542 622 l 1
 189 622 l 1
 189 395 l 1
 515 395 l 1
 515 323 l 1
 189 323 l 1
 189 72 l 1
 542 72 l 1
 542 0 l 1
 339 0 l 1
 329 -45 l 1
 400 -50 443 -83 443 -132 c 0
 443 -189 390 -227 311 -227 c 0x7f80
 276 -227 243 -220 217 -207 c 1xbf80
 234 -155 l 1
 258 -166 287 -172 318 -172 c 0
 356 -172 372 -163 372 -142 c 0
 372 -111 337 -94 263 -89 c 1
 284 0 l 1
 106 0 l 1
EndSplineSet
EndChar

StartChar: Ecircumflex
Encoding: 202 202 50
Width: 605
GlyphClass: 2
Flags: MW
HStem: 0 72<189 542 189 542> 323 72<189 515 189 515> 622 72<189 542 189 189>
VStem: 106 83<72 323 395 622>
AnchorPoint: "Anchor-3" 335 852 basechar 0
AnchorPoint: "Anchor-0" 315 0 basechar 0
LayerCount: 2
Fore
SplineSet
192 782 m 1
 320 923 l 1
 363 923 l 1
 490 796 l 1
 446 754 l 1
 337 852 l 1
 227 754 l 1
 192 782 l 1
106 0 m 1
 106 694 l 1
 542 694 l 1
 542 622 l 1
 189 622 l 1
 189 395 l 1
 515 395 l 1
 515 323 l 1
 189 323 l 1
 189 72 l 1
 542 72 l 1
 542 0 l 1
 106 0 l 1
EndSplineSet
EndChar

StartChar: uni1EBE
Encoding: 7870 7870 51
Width: 605
GlyphClass: 2
Flags: MW
HStem: 0 72<189 542 189 542> 323 72<189 515 189 515> 622 72<189 542 189 189>
VStem: 106 83<72 323 395 622>
AnchorPoint: "Anchor-3" 335 694 basechar 0
AnchorPoint: "Anchor-0" 315 0 basechar 0
LayerCount: 2
Fore
SplineSet
514 877 m 1
 480 907 l 1
 600 1059 l 1
 657 1006 l 1
 514 877 l 1
194 776 m 1
 331 892 l 1
 374 892 l 1
 493 790 l 1
 446 748 l 1
 343 822 l 1
 227 748 l 1
 194 776 l 1
106 0 m 1
 106 694 l 1
 542 694 l 1
 542 622 l 1
 189 622 l 1
 189 395 l 1
 515 395 l 1
 515 323 l 1
 189 323 l 1
 189 72 l 1
 542 72 l 1
 542 0 l 1
 106 0 l 1
EndSplineSet
EndChar

StartChar: uni1EC6
Encoding: 7878 7878 52
Width: 605
GlyphClass: 2
Flags: MW
HStem: -195 114<297 333> 0 72<189 542 189 542> 323 72<189 515 189 515> 622 72<189 542 189 189>
VStem: 106 83<72 323 395 622> 258 114<-156 -120>
AnchorPoint: "Anchor-3" 335 852 basechar 0
AnchorPoint: "Anchor-0" 315 -205 basechar 0
LayerCount: 2
Fore
SplineSet
192 782 m 1
 320 923 l 1
 363 923 l 1
 490 796 l 1
 446 754 l 1
 337 852 l 1
 227 754 l 1
 192 782 l 1
106 0 m 1
 106 694 l 1
 542 694 l 1
 542 622 l 1
 189 622 l 1
 189 395 l 1
 515 395 l 1
 515 323 l 1
 189 323 l 1
 189 72 l 1
 542 72 l 1
 542 0 l 1
 106 0 l 1
315 -195 m 0
 279 -195 258 -174 258 -138 c 0
 258 -102 279 -81 315 -81 c 0
 351 -81 372 -102 372 -138 c 0
 372 -174 351 -195 315 -195 c 0
EndSplineSet
EndChar

StartChar: uni1EC0
Encoding: 7872 7872 53
Width: 605
GlyphClass: 2
Flags: MW
HStem: 0 72<189 542 189 542> 323 72<189 515 189 515> 622 72<189 542 189 189>
VStem: 106 83<72 323 395 622>
AnchorPoint: "Anchor-3" 335 694 basechar 0
AnchorPoint: "Anchor-0" 315 0 basechar 0
LayerCount: 2
Fore
SplineSet
505 879 m 1
 373 1002 l 1
 435 1058 l 1
 542 912 l 1
 505 879 l 1
194 776 m 1
 331 892 l 1
 374 892 l 1
 493 790 l 1
 446 748 l 1
 343 822 l 1
 227 748 l 1
 194 776 l 1
106 0 m 1
 106 694 l 1
 542 694 l 1
 542 622 l 1
 189 622 l 1
 189 395 l 1
 515 395 l 1
 515 323 l 1
 189 323 l 1
 189 72 l 1
 542 72 l 1
 542 0 l 1
 106 0 l 1
EndSplineSet
EndChar

StartChar: uni1EC2
Encoding: 7874 7874 54
Width: 605
GlyphClass: 2
Flags: MW
HStem: 0 72<189 542 189 542> 323 72<189 515 189 515> 622 72<189 542 189 189> 1007 60<507.5 515.5>
VStem: 106 83<72 323 395 622> 546 69
AnchorPoint: "Anchor-3" 335 694 basechar 0
AnchorPoint: "Anchor-0" 315 0 basechar 0
LayerCount: 2
Fore
SplineSet
494 879 m 1
 482 919 l 1
 519 933 545 957 546 977 c 0
 547 994 529 1007 502 1007 c 0
 482 1007 454 1000 425 990 c 1
 410 1042 l 1
 447 1059 492 1067 523 1067 c 0
 583 1067 618 1038 615 995 c 0
 612 952 569 907 494 879 c 1
194 776 m 1
 331 892 l 1
 374 892 l 1
 493 790 l 1
 446 748 l 1
 343 822 l 1
 227 748 l 1
 194 776 l 1
106 0 m 1
 106 694 l 1
 542 694 l 1
 542 622 l 1
 189 622 l 1
 189 395 l 1
 515 395 l 1
 515 323 l 1
 189 323 l 1
 189 72 l 1
 542 72 l 1
 542 0 l 1
 106 0 l 1
EndSplineSet
EndChar

StartChar: uni1EC4
Encoding: 7876 7876 55
Width: 605
GlyphClass: 2
Flags: MW
HStem: 0 72<189 542 189 542> 323 72<189 515 189 515> 622 72<189 542 189 189> 984 61<393.5 427.5 393.5 433> 1025 63<281 312.5>
VStem: 106 83<72 323 395 622>
AnchorPoint: "Anchor-3" 335 694 basechar 0
AnchorPoint: "Anchor-0" 315 0 basechar 0
LayerCount: 2
Fore
SplineSet
237 982 m 1xec
 187 994 l 1
 210 1057 256 1088 300 1088 c 0xec
 356 1088 373 1045 414 1045 c 0
 441 1045 461 1063 473 1089 c 1
 523 1076 l 1
 506 1016 459 984 407 984 c 0xf4
 345 984 332 1025 293 1025 c 0
 269 1025 249 1008 237 982 c 1xec
194 776 m 1
 331 892 l 1
 374 892 l 1
 493 790 l 1
 446 748 l 1
 343 822 l 1
 227 748 l 1
 194 776 l 1
106 0 m 1
 106 694 l 1
 542 694 l 1
 542 622 l 1
 189 622 l 1
 189 395 l 1
 515 395 l 1
 515 323 l 1
 189 323 l 1
 189 72 l 1
 542 72 l 1
 542 0 l 1
 106 0 l 1
EndSplineSet
EndChar

StartChar: uni0204
Encoding: 516 516 56
Width: 605
GlyphClass: 2
Flags: MW
HStem: 0 72<189 542 189 542> 323 72<189 515 189 515> 622 72<189 542 189 189>
VStem: 106 83<72 323 395 622>
AnchorPoint: "Anchor-3" 335 926 basechar 0
AnchorPoint: "Anchor-0" 315 0 basechar 0
LayerCount: 2
Fore
SplineSet
470 764 m 1
 340 885 l 1
 400 939 l 1
 509 800 l 1
 470 764 l 1
280 764 m 1
 150 885 l 1
 210 939 l 1
 319 800 l 1
 280 764 l 1
106 0 m 1
 106 694 l 1
 542 694 l 1
 542 622 l 1
 189 622 l 1
 189 395 l 1
 515 395 l 1
 515 323 l 1
 189 323 l 1
 189 72 l 1
 542 72 l 1
 542 0 l 1
 106 0 l 1
EndSplineSet
EndChar

StartChar: Edieresis
Encoding: 203 203 57
Width: 605
GlyphClass: 2
Flags: MW
HStem: 0 72<189 542 189 542> 323 72<189 515 189 515> 622 72<189 542 189 189> 777 114<214 250 414 450>
VStem: 106 83<72 323 395 622> 175 114<816 852> 375 114<816 852>
AnchorPoint: "Anchor-3" 335 856 basechar 0
AnchorPoint: "Anchor-0" 315 0 basechar 0
LayerCount: 2
Fore
SplineSet
232 777 m 0xf6
 196 777 175 798 175 834 c 0
 175 870 196 891 232 891 c 0
 268 891 289 870 289 834 c 0
 289 798 268 777 232 777 c 0xf6
432 777 m 0
 396 777 375 798 375 834 c 0
 375 870 396 891 432 891 c 0
 468 891 489 870 489 834 c 0
 489 798 468 777 432 777 c 0
106 0 m 1xe8
 106 694 l 1
 542 694 l 1
 542 622 l 1
 189 622 l 1
 189 395 l 1
 515 395 l 1
 515 323 l 1
 189 323 l 1
 189 72 l 1
 542 72 l 1
 542 0 l 1
 106 0 l 1xe8
EndSplineSet
EndChar

StartChar: Edotaccent
Encoding: 278 278 58
Width: 605
GlyphClass: 2
Flags: MW
HStem: 0 72<189 542 189 542> 323 72<189 515 189 515> 622 72<189 542 189 189> 778 114<314 350>
VStem: 106 83<72 323 395 622> 275 114<817 853>
AnchorPoint: "Anchor-3" 335 856 basechar 0
AnchorPoint: "Anchor-0" 315 0 basechar 0
LayerCount: 2
Fore
SplineSet
332 778 m 0
 296 778 275 799 275 835 c 0
 275 871 296 892 332 892 c 0
 368 892 389 871 389 835 c 0
 389 799 368 778 332 778 c 0
106 0 m 1
 106 694 l 1
 542 694 l 1
 542 622 l 1
 189 622 l 1
 189 395 l 1
 515 395 l 1
 515 323 l 1
 189 323 l 1
 189 72 l 1
 542 72 l 1
 542 0 l 1
 106 0 l 1
EndSplineSet
EndChar

StartChar: uni1EB8
Encoding: 7864 7864 59
Width: 605
GlyphClass: 2
Flags: MW
HStem: -195 114<297 333> 0 72<189 542 189 542> 323 72<189 515 189 515> 622 72<189 542 189 189>
VStem: 106 83<72 323 395 622> 258 114<-156 -120>
AnchorPoint: "Anchor-3" 335 694 basechar 0
AnchorPoint: "Anchor-0" 315 -205 basechar 0
LayerCount: 2
Fore
SplineSet
106 0 m 1
 106 694 l 1
 542 694 l 1
 542 622 l 1
 189 622 l 1
 189 395 l 1
 515 395 l 1
 515 323 l 1
 189 323 l 1
 189 72 l 1
 542 72 l 1
 542 0 l 1
 106 0 l 1
315 -195 m 0
 279 -195 258 -174 258 -138 c 0
 258 -102 279 -81 315 -81 c 0
 351 -81 372 -102 372 -138 c 0
 372 -174 351 -195 315 -195 c 0
EndSplineSet
EndChar

StartChar: Egrave
Encoding: 200 200 60
Width: 605
GlyphClass: 2
Flags: MW
HStem: 0 72<189 542 189 542> 323 72<189 515 189 515> 622 72<189 542 189 189>
VStem: 106 83<72 323 395 622>
AnchorPoint: "Anchor-3" 384 801 basechar 0
AnchorPoint: "Anchor-0" 315 0 basechar 0
LayerCount: 2
Fore
SplineSet
351 744 m 1
 187 853 l 1
 237 917 l 1
 383 786 l 1
 351 744 l 1
106 0 m 1
 106 694 l 1
 542 694 l 1
 542 622 l 1
 189 622 l 1
 189 395 l 1
 515 395 l 1
 515 323 l 1
 189 323 l 1
 189 72 l 1
 542 72 l 1
 542 0 l 1
 106 0 l 1
EndSplineSet
EndChar

StartChar: uni1EBA
Encoding: 7866 7866 61
Width: 605
GlyphClass: 2
Flags: MW
HStem: 0 72<189 542 189 542> 323 72<189 515 189 515> 622 72<189 542 189 189> 899 63<325.5 339.5>
VStem: 106 83<72 323 395 622> 372 67<852 871>
AnchorPoint: "Anchor-3" 335 962 basechar 0
AnchorPoint: "Anchor-0" 315 0 basechar 0
LayerCount: 2
Fore
SplineSet
327 739 m 1
 312 781 l 1
 348 801 372 832 372 859 c 0
 372 883 353 899 326 899 c 0
 306 899 278 890 250 876 c 1
 231 930 l 1
 267 952 309 962 342 962 c 0
 402 962 439 929 439 878 c 0
 439 826 400 774 327 739 c 1
106 0 m 1
 106 694 l 1
 542 694 l 1
 542 622 l 1
 189 622 l 1
 189 395 l 1
 515 395 l 1
 515 323 l 1
 189 323 l 1
 189 72 l 1
 542 72 l 1
 542 0 l 1
 106 0 l 1
EndSplineSet
EndChar

StartChar: uni0206
Encoding: 518 518 62
Width: 605
GlyphClass: 2
Flags: MW
HStem: 0 72<189 542 189 542> 323 72<189 515 189 515> 622 72<189 542 189 189> 862 65<306 354.5>
VStem: 106 83<72 323 395 622>
AnchorPoint: "Anchor-3" 335 908 basechar 0
AnchorPoint: "Anchor-0" 315 0 basechar 0
LayerCount: 2
Fore
SplineSet
234 757 m 1
 195 783 l 1
 208 869 267 927 343 927 c 0
 416 927 476 874 489 795 c 1
 425 758 l 1
 418 820 379 862 330 862 c 0
 282 862 241 823 234 757 c 1
106 0 m 1
 106 694 l 1
 542 694 l 1
 542 622 l 1
 189 622 l 1
 189 395 l 1
 515 395 l 1
 515 323 l 1
 189 323 l 1
 189 72 l 1
 542 72 l 1
 542 0 l 1
 106 0 l 1
EndSplineSet
EndChar

StartChar: Emacron
Encoding: 274 274 63
Width: 605
GlyphClass: 2
Flags: MW
HStem: 0 72<189 542 189 542> 323 72<189 515 189 515> 622 72<189 542 189 189> 788 66<178 491 178 491>
VStem: 106 83<72 323 395 622>
AnchorPoint: "Anchor-3" 335 857 basechar 0
AnchorPoint: "Anchor-0" 315 0 basechar 0
LayerCount: 2
Fore
SplineSet
178 788 m 1
 178 854 l 1
 491 854 l 1
 491 788 l 1
 178 788 l 1
106 0 m 1
 106 694 l 1
 542 694 l 1
 542 622 l 1
 189 622 l 1
 189 395 l 1
 515 395 l 1
 515 323 l 1
 189 323 l 1
 189 72 l 1
 542 72 l 1
 542 0 l 1
 106 0 l 1
EndSplineSet
EndChar

StartChar: uni1E16
Encoding: 7702 7702 64
Width: 605
GlyphClass: 2
Flags: MW
HStem: 0 72<189 542 189 542> 323 72<189 515 189 515> 622 72<189 542 189 189> 788 66<178 491 178 491>
VStem: 106 83<72 323 395 622>
AnchorPoint: "Anchor-3" 286 964 basechar 0
AnchorPoint: "Anchor-0" 315 0 basechar 0
LayerCount: 2
Fore
SplineSet
319 907 m 1
 287 949 l 1
 433 1080 l 1
 483 1016 l 1
 319 907 l 1
178 788 m 1
 178 854 l 1
 491 854 l 1
 491 788 l 1
 178 788 l 1
106 0 m 1
 106 694 l 1
 542 694 l 1
 542 622 l 1
 189 622 l 1
 189 395 l 1
 515 395 l 1
 515 323 l 1
 189 323 l 1
 189 72 l 1
 542 72 l 1
 542 0 l 1
 106 0 l 1
EndSplineSet
EndChar

StartChar: uni1E14
Encoding: 7700 7700 65
Width: 605
GlyphClass: 2
Flags: MW
HStem: 0 72<189 542 189 542> 323 72<189 515 189 515> 622 72<189 542 189 189> 788 66<178 491 178 491>
VStem: 106 83<72 323 395 622>
AnchorPoint: "Anchor-3" 384 964 basechar 0
AnchorPoint: "Anchor-0" 315 0 basechar 0
LayerCount: 2
Fore
SplineSet
351 907 m 1
 187 1016 l 1
 237 1080 l 1
 383 949 l 1
 351 907 l 1
178 788 m 1
 178 854 l 1
 491 854 l 1
 491 788 l 1
 178 788 l 1
106 0 m 1
 106 694 l 1
 542 694 l 1
 542 622 l 1
 189 622 l 1
 189 395 l 1
 515 395 l 1
 515 323 l 1
 189 323 l 1
 189 72 l 1
 542 72 l 1
 542 0 l 1
 106 0 l 1
EndSplineSet
EndChar

StartChar: Eogonek
Encoding: 280 280 66
Width: 605
GlyphClass: 2
Flags: MW
HStem: -229 54<471 482.5> 0 72<189 463 189 542> 323 72<189 515 189 515> 622 72<189 542 189 189>
VStem: 106 83<72 323 395 622> 364 71<-135.5 -103.5>
AnchorPoint: "Anchor-3" 335 694 basechar 0
AnchorPoint: "Anchor-0" 315 0 basechar 0
LayerCount: 2
Fore
SplineSet
106 0 m 1
 106 694 l 1
 542 694 l 1
 542 622 l 1
 189 622 l 1
 189 395 l 1
 515 395 l 1
 515 323 l 1
 189 323 l 1
 189 72 l 1
 542 72 l 1
 542 0 l 1
 478 -18 435 -65 435 -118 c 0
 435 -153 455 -175 487 -175 c 0
 501 -175 517 -171 531 -165 c 1
 537 -209 l 1
 520 -220 498 -229 467 -229 c 0
 403 -229 364 -192 364 -132 c 0
 364 -75 401 -27 463 0 c 1
 106 0 l 1
EndSplineSet
EndChar

StartChar: uni1EBC
Encoding: 7868 7868 67
Width: 605
GlyphClass: 2
Flags: MW
HStem: 0 72<189 542 189 542> 323 72<189 515 189 515> 622 72<189 542 189 189> 764 64<376 411.5 376 423.5> 815 66<257 290.5>
VStem: 106 83<72 323 395 622>
AnchorPoint: "Anchor-3" 336 876 basechar 0
AnchorPoint: "Anchor-0" 315 0 basechar 0
LayerCount: 2
Fore
SplineSet
213 762 m 1xec
 160 776 l 1xec
 180 848 225 881 273 881 c 0
 334 881 354 828 398 828 c 0
 425 828 447 848 458 883 c 1
 511 869 l 1xf4
 497 800 452 764 395 764 c 0
 328 764 311 815 270 815 c 0
 244 815 223 794 213 762 c 1xec
106 0 m 1
 106 694 l 1
 542 694 l 1
 542 622 l 1
 189 622 l 1
 189 395 l 1
 515 395 l 1
 515 323 l 1
 189 323 l 1
 189 72 l 1
 542 72 l 1
 542 0 l 1
 106 0 l 1
EndSplineSet
EndChar

StartChar: F
Encoding: 70 70 68
Width: 588
GlyphClass: 2
Flags: MW
HStem: 0 21G<106 106 106 189> 322 72<189 508 189 508> 622 72<189 537 189 189>
VStem: 106 83<0 322 394 622>
AnchorPoint: "Anchor-3" 273 694 basechar 0
AnchorPoint: "Anchor-0" 273 0 basechar 0
LayerCount: 2
Fore
SplineSet
106 0 m 1
 106 694 l 1
 537 694 l 1
 537 622 l 1
 189 622 l 1
 189 394 l 1
 508 394 l 1
 508 322 l 1
 189 322 l 1
 189 0 l 1
 106 0 l 1
EndSplineSet
EndChar

StartChar: G
Encoding: 71 71 69
Width: 744
GlyphClass: 2
Flags: MW
HStem: -9 73<343.5 454.5 343.5 463> 296 72<388 585 388 668> 630 73<335.5 451.5>
VStem: 67 85<268 443.5 268 451> 585 83<102 296 296 296>
AnchorPoint: "Anchor-3" 406 694 basechar 0
AnchorPoint: "Anchor-0" 406 0 basechar 0
LayerCount: 2
Fore
SplineSet
415 -9 m 0
 205 -9 67 130 67 342 c 0
 67 560 212 703 431 703 c 0
 507 703 580 687 641 657 c 1
 617 593 l 1
 556 616 483 630 420 630 c 0
 251 630 152 530 152 357 c 0
 152 179 260 64 427 64 c 0
 482 64 536 77 585 102 c 1
 585 296 l 1
 388 296 l 1
 388 368 l 1
 668 368 l 1
 668 74 l 1
 598 19 511 -9 415 -9 c 0
EndSplineSet
EndChar

StartChar: Gbreve
Encoding: 286 286 70
Width: 744
GlyphClass: 2
Flags: MW
HStem: -9 73<343.5 454.5 343.5 463> 296 72<388 585 388 668> 630 73<335.5 451.5> 758 65<388.5 440.5 388.5 440.5>
VStem: 67 85<268 443.5 268 451> 585 83<102 296 296 296>
AnchorPoint: "Anchor-3" 406 826 basechar 0
AnchorPoint: "Anchor-0" 406 0 basechar 0
LayerCount: 2
Fore
SplineSet
402 758 m 0
 326 758 266 811 252 890 c 1
 316 927 l 1
 324 865 363 823 414 823 c 0
 467 823 507 865 514 928 c 1
 553 902 l 1
 540 816 479 758 402 758 c 0
415 -9 m 0
 205 -9 67 130 67 342 c 0
 67 560 212 703 431 703 c 0
 507 703 580 687 641 657 c 1
 617 593 l 1
 556 616 483 630 420 630 c 0
 251 630 152 530 152 357 c 0
 152 179 260 64 427 64 c 0
 482 64 536 77 585 102 c 1
 585 296 l 1
 388 296 l 1
 388 368 l 1
 668 368 l 1
 668 74 l 1
 598 19 511 -9 415 -9 c 0
EndSplineSet
EndChar

StartChar: Gcaron
Encoding: 486 486 71
Width: 744
GlyphClass: 2
Flags: MW
HStem: -9 73<343.5 454.5 343.5 463> 296 72<388 585 388 668> 630 73<335.5 451.5>
VStem: 67 85<268 443.5 268 451> 585 83<102 296 296 296>
AnchorPoint: "Anchor-3" 406 836 basechar 0
AnchorPoint: "Anchor-0" 406 0 basechar 0
LayerCount: 2
Fore
SplineSet
386 754 m 1
 256 880 l 1
 305 922 l 1
 410 822 l 1
 522 923 l 1
 556 893 l 1
 429 754 l 1
 386 754 l 1
415 -9 m 0
 205 -9 67 130 67 342 c 0
 67 560 212 703 431 703 c 0
 507 703 580 687 641 657 c 1
 617 593 l 1
 556 616 483 630 420 630 c 0
 251 630 152 530 152 357 c 0
 152 179 260 64 427 64 c 0
 482 64 536 77 585 102 c 1
 585 296 l 1
 388 296 l 1
 388 368 l 1
 668 368 l 1
 668 74 l 1
 598 19 511 -9 415 -9 c 0
EndSplineSet
EndChar

StartChar: Gcircumflex
Encoding: 284 284 72
Width: 744
GlyphClass: 2
Flags: MW
HStem: -9 73<343.5 454.5 343.5 463> 296 72<388 585 388 668> 630 73<335.5 451.5>
VStem: 67 85<268 443.5 268 451> 585 83<102 296 296 296>
AnchorPoint: "Anchor-3" 406 852 basechar 0
AnchorPoint: "Anchor-0" 406 0 basechar 0
LayerCount: 2
Fore
SplineSet
263 782 m 1
 391 923 l 1
 434 923 l 1
 561 796 l 1
 517 754 l 1
 408 852 l 1
 298 754 l 1
 263 782 l 1
415 -9 m 0
 205 -9 67 130 67 342 c 0
 67 560 212 703 431 703 c 0
 507 703 580 687 641 657 c 1
 617 593 l 1
 556 616 483 630 420 630 c 0
 251 630 152 530 152 357 c 0
 152 179 260 64 427 64 c 0
 482 64 536 77 585 102 c 1
 585 296 l 1
 388 296 l 1
 388 368 l 1
 668 368 l 1
 668 74 l 1
 598 19 511 -9 415 -9 c 0
EndSplineSet
EndChar

StartChar: uni0122
Encoding: 290 290 73
Width: 744
GlyphClass: 2
Flags: MW
HStem: -227 162<339 443 368 394> -9 73<343.5 454.5 343.5 463> 296 72<388 585 388 668> 630 73<335.5 451.5>
VStem: 67 85<268 443.5 268 451> 368 75<-97 -65 -97 -65> 585 83<102 296 296 296>
AnchorPoint: "Anchor-3" 406 694 basechar 0
AnchorPoint: "Anchor-0" 406 -231 basechar 0
LayerCount: 2
Fore
SplineSet
415 -9 m 0
 205 -9 67 130 67 342 c 0
 67 560 212 703 431 703 c 0
 507 703 580 687 641 657 c 1
 617 593 l 1
 556 616 483 630 420 630 c 0
 251 630 152 530 152 357 c 0
 152 179 260 64 427 64 c 0
 482 64 536 77 585 102 c 1
 585 296 l 1
 388 296 l 1
 388 368 l 1
 668 368 l 1
 668 74 l 1
 598 19 511 -9 415 -9 c 0
339 -227 m 1
 357 -194 368 -132 368 -65 c 1
 443 -65 l 1
 443 -129 427 -181 394 -227 c 1
 339 -227 l 1
EndSplineSet
EndChar

StartChar: Gdotaccent
Encoding: 288 288 74
Width: 744
GlyphClass: 2
Flags: MW
HStem: -9 73<343.5 454.5 343.5 463> 296 72<388 585 388 668> 630 73<335.5 451.5> 778 114<385 421>
VStem: 67 85<268 443.5 268 451> 346 114<817 853> 585 83<102 296 296 296>
AnchorPoint: "Anchor-3" 406 856 basechar 0
AnchorPoint: "Anchor-0" 406 0 basechar 0
LayerCount: 2
Fore
SplineSet
403 778 m 0
 367 778 346 799 346 835 c 0
 346 871 367 892 403 892 c 0
 439 892 460 871 460 835 c 0
 460 799 439 778 403 778 c 0
415 -9 m 0
 205 -9 67 130 67 342 c 0
 67 560 212 703 431 703 c 0
 507 703 580 687 641 657 c 1
 617 593 l 1
 556 616 483 630 420 630 c 0
 251 630 152 530 152 357 c 0
 152 179 260 64 427 64 c 0
 482 64 536 77 585 102 c 1
 585 296 l 1
 388 296 l 1
 388 368 l 1
 668 368 l 1
 668 74 l 1
 598 19 511 -9 415 -9 c 0
EndSplineSet
EndChar

StartChar: uni1E20
Encoding: 7712 7712 75
Width: 744
GlyphClass: 2
Flags: MW
HStem: -9 73<343.5 454.5 343.5 463> 296 72<388 585 388 668> 630 73<335.5 451.5> 788 66<249 562 249 562>
VStem: 67 85<268 443.5 268 451> 585 83<102 296 296 296>
AnchorPoint: "Anchor-3" 406 857 basechar 0
AnchorPoint: "Anchor-0" 406 0 basechar 0
LayerCount: 2
Fore
SplineSet
249 788 m 1
 249 854 l 1
 562 854 l 1
 562 788 l 1
 249 788 l 1
415 -9 m 0
 205 -9 67 130 67 342 c 0
 67 560 212 703 431 703 c 0
 507 703 580 687 641 657 c 1
 617 593 l 1
 556 616 483 630 420 630 c 0
 251 630 152 530 152 357 c 0
 152 179 260 64 427 64 c 0
 482 64 536 77 585 102 c 1
 585 296 l 1
 388 296 l 1
 388 368 l 1
 668 368 l 1
 668 74 l 1
 598 19 511 -9 415 -9 c 0
EndSplineSet
EndChar

StartChar: H
Encoding: 72 72 76
Width: 749
GlyphClass: 2
Flags: MW
HStem: 0 21G<106 106 106 189 560 560 560 643> 323 72<189 560 189 560> 674 20G<106 189 189 189 560 643 643 643>
VStem: 106 83<0 323 395 694> 560 83<0 323 323 323 395 694 0 694>
AnchorPoint: "Anchor-3" 375 694 basechar 0
AnchorPoint: "Anchor-1" 375 539 basechar 0
AnchorPoint: "Anchor-0" 375 0 basechar 0
LayerCount: 2
Fore
SplineSet
106 0 m 1
 106 694 l 1
 189 694 l 1
 189 395 l 1
 560 395 l 1
 560 694 l 1
 643 694 l 1
 643 0 l 1
 560 0 l 1
 560 323 l 1
 189 323 l 1
 189 0 l 1
 106 0 l 1
EndSplineSet
EndChar

StartChar: Hbar
Encoding: 294 294 77
Width: 749
GlyphClass: 2
Flags: MW
HStem: 0 21G<106 106 106 189 560 560 560 643> 323 72<189 560 189 560> 509 60<18 106 18 106 189 560 643 731> 509 185<18 189 18 189 106 189 106 560>
VStem: 106 83<0 323 395 509 569 694> 560 83<0 323 323 323 395 509 0 509 569 694>
AnchorPoint: "Anchor-3" 375 694 basechar 0
AnchorPoint: "Anchor-1" 375 539 basechar 0
AnchorPoint: "Anchor-0" 375 0 basechar 0
LayerCount: 2
Fore
SplineSet
106 0 m 1xec
 106 509 l 1
 18 509 l 1
 18 569 l 1
 106 569 l 1xec
 106 694 l 1
 189 694 l 1xdc
 189 569 l 1
 560 569 l 1xec
 560 694 l 1
 643 694 l 1xdc
 643 569 l 1
 731 569 l 1
 731 509 l 1
 643 509 l 1
 643 0 l 1
 560 0 l 1
 560 323 l 1
 189 323 l 1
 189 0 l 1
 106 0 l 1xec
189 395 m 1
 560 395 l 1
 560 509 l 1
 189 509 l 1
 189 395 l 1
EndSplineSet
EndChar

StartChar: uni1E2A
Encoding: 7722 7722 78
Width: 749
GlyphClass: 2
Flags: MW
HStem: -212 63<365.5 410 365.5 411> 0 21G<106 106 106 189 560 560 560 643> 323 72<189 560 189 560> 674 20G<106 189 189 189 560 643 643 643>
VStem: 106 83<0 323 395 694> 560 83<0 323 323 323 395 694 0 694>
AnchorPoint: "Anchor-3" 375 694 basechar 0
AnchorPoint: "Anchor-1" 375 539 basechar 0
AnchorPoint: "Anchor-0" 375 -212 basechar 0
LayerCount: 2
Fore
SplineSet
106 0 m 1
 106 694 l 1
 189 694 l 1
 189 395 l 1
 560 395 l 1
 560 694 l 1
 643 694 l 1
 643 0 l 1
 560 0 l 1
 560 323 l 1
 189 323 l 1
 189 0 l 1
 106 0 l 1
374 -212 m 0
 308 -212 248 -169 224 -105 c 1
 288 -67 l 1
 306 -116 345 -149 386 -149 c 0
 434 -149 468 -121 486 -67 c 1
 525 -93 l 1
 500 -171 448 -212 374 -212 c 0
EndSplineSet
EndChar

StartChar: Hcircumflex
Encoding: 292 292 79
Width: 749
GlyphClass: 2
Flags: MW
HStem: 0 21G<106 106 106 189 560 560 560 643> 323 72<189 560 189 560> 674 20G<106 189 189 189 560 643 643 643>
VStem: 106 83<0 323 395 694> 560 83<0 323 323 323 395 694 0 694>
AnchorPoint: "Anchor-3" 375 852 basechar 0
AnchorPoint: "Anchor-1" 375 539 basechar 0
AnchorPoint: "Anchor-0" 375 0 basechar 0
LayerCount: 2
Fore
SplineSet
232 782 m 1
 360 923 l 1
 403 923 l 1
 530 796 l 1
 486 754 l 1
 377 852 l 1
 267 754 l 1
 232 782 l 1
106 0 m 1
 106 694 l 1
 189 694 l 1
 189 395 l 1
 560 395 l 1
 560 694 l 1
 643 694 l 1
 643 0 l 1
 560 0 l 1
 560 323 l 1
 189 323 l 1
 189 0 l 1
 106 0 l 1
EndSplineSet
EndChar

StartChar: uni1E24
Encoding: 7716 7716 80
Width: 749
GlyphClass: 2
Flags: MW
HStem: -195 114<357 393> 0 21G<106 106 106 189 560 560 560 643> 323 72<189 560 189 560> 674 20G<106 189 189 189 560 643 643 643>
VStem: 106 83<0 323 395 694> 318 114<-156 -120> 560 83<0 323 323 323 395 694 0 694>
AnchorPoint: "Anchor-3" 375 694 basechar 0
AnchorPoint: "Anchor-1" 375 539 basechar 0
AnchorPoint: "Anchor-0" 375 -205 basechar 0
LayerCount: 2
Fore
SplineSet
106 0 m 1
 106 694 l 1
 189 694 l 1
 189 395 l 1
 560 395 l 1
 560 694 l 1
 643 694 l 1
 643 0 l 1
 560 0 l 1
 560 323 l 1
 189 323 l 1
 189 0 l 1
 106 0 l 1
375 -195 m 0
 339 -195 318 -174 318 -138 c 0
 318 -102 339 -81 375 -81 c 0
 411 -81 432 -102 432 -138 c 0
 432 -174 411 -195 375 -195 c 0
EndSplineSet
EndChar

StartChar: I
Encoding: 73 73 81
Width: 295
GlyphClass: 2
Flags: MW
HStem: 0 21G<106 106 106 189> 674 20G<106 189 189 189>
VStem: 106 83<0 694 0 694>
AnchorPoint: "Anchor-3" 148 694 basechar 0
AnchorPoint: "Anchor-0" 148 0 basechar 0
LayerCount: 2
Fore
SplineSet
106 0 m 1
 106 694 l 1
 189 694 l 1
 189 0 l 1
 106 0 l 1
EndSplineSet
EndChar

StartChar: Iacute
Encoding: 205 205 82
Width: 295
GlyphClass: 2
Flags: MW
HStem: 0 21G<106 106 106 189> 674 20G<106 189 189 189>
VStem: 106 83<0 694 0 694>
AnchorPoint: "Anchor-3" 99 801 basechar 0
AnchorPoint: "Anchor-0" 148 0 basechar 0
LayerCount: 2
Fore
SplineSet
132 744 m 1
 100 786 l 1
 246 917 l 1
 296 853 l 1
 132 744 l 1
106 0 m 1
 106 694 l 1
 189 694 l 1
 189 0 l 1
 106 0 l 1
EndSplineSet
EndChar

StartChar: Ibreve
Encoding: 300 300 83
Width: 295
GlyphClass: 2
Flags: MW
HStem: 0 21G<106 106 106 189> 674 20G<106 189 189 189> 758 65<130.5 182.5 130.5 182.5>
VStem: 106 83<0 694 0 694>
AnchorPoint: "Anchor-3" 148 826 basechar 0
AnchorPoint: "Anchor-0" 148 0 basechar 0
LayerCount: 2
Fore
SplineSet
144 758 m 0
 68 758 8 811 -6 890 c 1
 58 927 l 1
 66 865 105 823 156 823 c 0
 209 823 249 865 256 928 c 1
 295 902 l 1
 282 816 221 758 144 758 c 0
106 0 m 1
 106 694 l 1
 189 694 l 1
 189 0 l 1
 106 0 l 1
EndSplineSet
EndChar

StartChar: uni01CF
Encoding: 463 463 84
Width: 295
GlyphClass: 2
Flags: MW
HStem: 0 21G<106 106 106 189> 674 20G<106 189 189 189>
VStem: 106 83<0 694 0 694>
AnchorPoint: "Anchor-3" 148 836 basechar 0
AnchorPoint: "Anchor-0" 148 0 basechar 0
LayerCount: 2
Fore
SplineSet
128 754 m 1
 -2 880 l 1
 47 922 l 1
 152 822 l 1
 264 923 l 1
 298 893 l 1
 171 754 l 1
 128 754 l 1
106 0 m 1
 106 694 l 1
 189 694 l 1
 189 0 l 1
 106 0 l 1
EndSplineSet
EndChar

StartChar: Icircumflex
Encoding: 206 206 85
Width: 295
GlyphClass: 2
Flags: MW
HStem: 0 21G<106 106 106 189> 674 20G<106 189 189 189>
VStem: 106 83<0 694 0 694>
AnchorPoint: "Anchor-3" 148 852 basechar 0
AnchorPoint: "Anchor-0" 148 0 basechar 0
LayerCount: 2
Fore
SplineSet
5 782 m 1
 133 923 l 1
 176 923 l 1
 303 796 l 1
 259 754 l 1
 150 852 l 1
 40 754 l 1
 5 782 l 1
106 0 m 1
 106 694 l 1
 189 694 l 1
 189 0 l 1
 106 0 l 1
EndSplineSet
EndChar

StartChar: uni0208
Encoding: 520 520 86
Width: 295
GlyphClass: 2
Flags: MW
HStem: 0 21G<106 106 106 189> 674 20G<106 189 189 189>
VStem: 106 83<0 694 0 694>
AnchorPoint: "Anchor-3" 148 926 basechar 0
AnchorPoint: "Anchor-0" 148 0 basechar 0
LayerCount: 2
Fore
SplineSet
283 764 m 1
 153 885 l 1
 213 939 l 1
 322 800 l 1
 283 764 l 1
93 764 m 1
 -37 885 l 1
 23 939 l 1
 132 800 l 1
 93 764 l 1
106 0 m 1
 106 694 l 1
 189 694 l 1
 189 0 l 1
 106 0 l 1
EndSplineSet
EndChar

StartChar: Idieresis
Encoding: 207 207 87
Width: 295
GlyphClass: 2
Flags: MW
HStem: 0 21G<106 106 106 189> 674 20G<106 189 189 189> 777 114<27 63 227 263>
VStem: -12 114<816 852> 106 83<0 694 0 694> 188 114<816 852>
AnchorPoint: "Anchor-3" 148 856 basechar 0
AnchorPoint: "Anchor-0" 148 0 basechar 0
LayerCount: 2
Fore
SplineSet
45 777 m 0xf4
 9 777 -12 798 -12 834 c 0
 -12 870 9 891 45 891 c 0
 81 891 102 870 102 834 c 0
 102 798 81 777 45 777 c 0xf4
245 777 m 0
 209 777 188 798 188 834 c 0
 188 870 209 891 245 891 c 0
 281 891 302 870 302 834 c 0
 302 798 281 777 245 777 c 0
106 0 m 1xe8
 106 694 l 1
 189 694 l 1
 189 0 l 1
 106 0 l 1xe8
EndSplineSet
EndChar

StartChar: uni1E2E
Encoding: 7726 7726 88
Width: 295
GlyphClass: 2
Flags: MW
HStem: 0 21G<106 106 106 189> 674 20G<106 189 189 189> 777 114<27 63 227 263>
VStem: -12 114<816 852> 106 83<0 694 0 694> 188 114<816 852>
AnchorPoint: "Anchor-3" 99 963 basechar 0
AnchorPoint: "Anchor-0" 148 0 basechar 0
LayerCount: 2
Fore
SplineSet
132 906 m 1xe8
 100 948 l 1
 246 1079 l 1
 296 1015 l 1
 132 906 l 1xe8
45 777 m 0xf4
 9 777 -12 798 -12 834 c 0
 -12 870 9 891 45 891 c 0
 81 891 102 870 102 834 c 0
 102 798 81 777 45 777 c 0xf4
245 777 m 0
 209 777 188 798 188 834 c 0
 188 870 209 891 245 891 c 0
 281 891 302 870 302 834 c 0
 302 798 281 777 245 777 c 0
106 0 m 1xe8
 106 694 l 1
 189 694 l 1
 189 0 l 1
 106 0 l 1xe8
EndSplineSet
EndChar

StartChar: Idotaccent
Encoding: 304 304 89
Width: 295
GlyphClass: 2
Flags: MW
HStem: 0 21G<106 106 106 189> 674 20G<106 189 189 189> 778 114<127 163>
VStem: 88 114<817 853> 106 83<0 694 0 694>
AnchorPoint: "Anchor-3" 148 856 basechar 0
AnchorPoint: "Anchor-0" 148 0 basechar 0
LayerCount: 2
Fore
SplineSet
145 778 m 0xf0
 109 778 88 799 88 835 c 0
 88 871 109 892 145 892 c 0
 181 892 202 871 202 835 c 0
 202 799 181 778 145 778 c 0xf0
106 0 m 1xe8
 106 694 l 1
 189 694 l 1
 189 0 l 1
 106 0 l 1xe8
EndSplineSet
EndChar

StartChar: uni1ECA
Encoding: 7882 7882 90
Width: 295
GlyphClass: 2
Flags: MW
HStem: -195 114<130 166> 0 21G<106 106 106 189> 674 20G<106 189 189 189>
VStem: 91 114<-156 -120> 106 83<0 694 0 694>
AnchorPoint: "Anchor-3" 148 694 basechar 0
AnchorPoint: "Anchor-0" 148 -205 basechar 0
LayerCount: 2
Fore
SplineSet
106 0 m 1xe8
 106 694 l 1
 189 694 l 1
 189 0 l 1
 106 0 l 1xe8
148 -195 m 0xf0
 112 -195 91 -174 91 -138 c 0
 91 -102 112 -81 148 -81 c 0
 184 -81 205 -102 205 -138 c 0
 205 -174 184 -195 148 -195 c 0xf0
EndSplineSet
EndChar

StartChar: Igrave
Encoding: 204 204 91
Width: 295
GlyphClass: 2
Flags: MW
HStem: 0 21G<106 106 106 189> 674 20G<106 189 189 189>
VStem: 106 83<0 694 0 694>
AnchorPoint: "Anchor-3" 197 801 basechar 0
AnchorPoint: "Anchor-0" 148 0 basechar 0
LayerCount: 2
Fore
SplineSet
164 744 m 1
 0 853 l 1
 50 917 l 1
 196 786 l 1
 164 744 l 1
106 0 m 1
 106 694 l 1
 189 694 l 1
 189 0 l 1
 106 0 l 1
EndSplineSet
EndChar

StartChar: uni1EC8
Encoding: 7880 7880 92
Width: 295
GlyphClass: 2
Flags: MW
HStem: 0 21G<106 106 106 189> 674 20G<106 189 189 189> 899 63<138.5 152.5>
VStem: 106 83<0 694 0 694> 185 67<852 871>
AnchorPoint: "Anchor-3" 148 962 basechar 0
AnchorPoint: "Anchor-0" 148 0 basechar 0
LayerCount: 2
Fore
SplineSet
140 739 m 1xf0
 125 781 l 1
 161 801 185 832 185 859 c 0
 185 883 166 899 139 899 c 0
 119 899 91 890 63 876 c 1
 44 930 l 1
 80 952 122 962 155 962 c 0
 215 962 252 929 252 878 c 0xe8
 252 826 213 774 140 739 c 1xf0
106 0 m 1xf0
 106 694 l 1
 189 694 l 1
 189 0 l 1
 106 0 l 1xf0
EndSplineSet
EndChar

StartChar: uni020A
Encoding: 522 522 93
Width: 295
GlyphClass: 2
Flags: MW
HStem: 0 21G<106 106 106 189> 674 20G<106 189 189 189> 862 65<119 167.5>
VStem: 106 83<0 694 0 694>
AnchorPoint: "Anchor-3" 148 908 basechar 0
AnchorPoint: "Anchor-0" 148 0 basechar 0
LayerCount: 2
Fore
SplineSet
47 757 m 1
 8 783 l 1
 21 869 80 927 156 927 c 0
 229 927 289 874 302 795 c 1
 238 758 l 1
 231 820 192 862 143 862 c 0
 95 862 54 823 47 757 c 1
106 0 m 1
 106 694 l 1
 189 694 l 1
 189 0 l 1
 106 0 l 1
EndSplineSet
EndChar

StartChar: Imacron
Encoding: 298 298 94
Width: 295
GlyphClass: 2
Flags: MW
HStem: 0 21G<106 106 106 189> 674 20G<106 189 189 189> 782 65<22 273 22 273>
VStem: 106 83<0 694 0 694>
AnchorPoint: "Anchor-3" 148 847 basechar 0
AnchorPoint: "Anchor-0" 148 0 basechar 0
LayerCount: 2
Fore
SplineSet
22 782 m 1
 22 847 l 1
 273 847 l 1
 273 782 l 1
 22 782 l 1
106 0 m 1
 106 694 l 1
 189 694 l 1
 189 0 l 1
 106 0 l 1
EndSplineSet
EndChar

StartChar: Iogonek
Encoding: 302 302 95
Width: 295
GlyphClass: 2
Flags: MW
HStem: -229 54<138 149.5> 0 21G<106 106 106 130 209 209> 674 20G<106 189 189 189>
VStem: 31 71<-135.5 -103.5> 106 83<6 694 6 694 6 694>
AnchorPoint: "Anchor-3" 148 694 basechar 0
AnchorPoint: "Anchor-0" 148 0 basechar 0
LayerCount: 2
Fore
SplineSet
106 0 m 1
 106 694 l 1
 189 694 l 1
 189 6 l 1xe8
 209 0 l 1
 145 -18 102 -65 102 -118 c 0
 102 -153 122 -175 154 -175 c 0
 168 -175 184 -171 198 -165 c 1
 204 -209 l 1
 187 -220 165 -229 134 -229 c 0
 70 -229 31 -192 31 -132 c 0
 31 -75 68 -27 130 0 c 1xf0
 106 0 l 1
EndSplineSet
EndChar

StartChar: Itilde
Encoding: 296 296 96
Width: 295
GlyphClass: 2
Flags: MW
HStem: 0 21G<106 106 106 189> 674 20G<106 189 189 189> 764 64<189 224.5 189 236.5> 815 66<70 103.5>
VStem: 106 83<0 694 0 694>
AnchorPoint: "Anchor-3" 149 876 basechar 0
AnchorPoint: "Anchor-0" 148 0 basechar 0
LayerCount: 2
Fore
SplineSet
26 762 m 1xd8
 -27 776 l 1xd8
 -7 848 38 881 86 881 c 0
 147 881 167 828 211 828 c 0
 238 828 260 848 271 883 c 1
 324 869 l 1xe8
 310 800 265 764 208 764 c 0
 141 764 124 815 83 815 c 0
 57 815 36 794 26 762 c 1xd8
106 0 m 1
 106 694 l 1
 189 694 l 1
 189 0 l 1
 106 0 l 1
EndSplineSet
EndChar

StartChar: J
Encoding: 74 74 97
Width: 450
GlyphClass: 2
Flags: MW
HStem: -10 73<150 198.5 150 226> 674 20G<269 352 352 352>
VStem: 269 83<191 200 200 694>
AnchorPoint: "Anchor-3" 309 694 basechar 0
AnchorPoint: "Anchor-0" 234 0 basechar 0
LayerCount: 2
Fore
SplineSet
167 -10 m 0
 125 -10 83 0 43 24 c 1
 67 86 l 1
 95 72 135 63 165 63 c 0
 232 63 269 109 269 191 c 2
 269 694 l 1
 352 694 l 1
 352 200 l 2
 352 65 285 -10 167 -10 c 0
EndSplineSet
Substitution2: "Single Substitution lookup 13 subtable" Jacute
Substitution2: "'aalt' Access All Alternates in Latin lookup 0 subtable" Jacute
EndChar

StartChar: Jacute
Encoding: 65537 -1 98
Width: 450
GlyphClass: 2
Flags: MW
HStem: -10 73<150 198.5 150 226> 674 20G<269 352 352 352>
VStem: 269 83<191 200 200 694>
AnchorPoint: "Anchor-3" 260 801 basechar 0
AnchorPoint: "Anchor-0" 234 0 basechar 0
LayerCount: 2
Fore
SplineSet
293 744 m 1
 261 786 l 1
 407 917 l 1
 457 853 l 1
 293 744 l 1
167 -10 m 0
 125 -10 83 0 43 24 c 1
 67 86 l 1
 95 72 135 63 165 63 c 0
 232 63 269 109 269 191 c 2
 269 694 l 1
 352 694 l 1
 352 200 l 2
 352 65 285 -10 167 -10 c 0
EndSplineSet
EndChar

StartChar: Jcircumflex
Encoding: 308 308 99
Width: 450
GlyphClass: 2
Flags: MW
HStem: -10 73<150 198.5 150 226> 674 20G<269 352 352 352>
VStem: 269 83<191 200 200 694>
AnchorPoint: "Anchor-3" 309 852 basechar 0
AnchorPoint: "Anchor-0" 234 0 basechar 0
LayerCount: 2
Fore
SplineSet
166 782 m 1
 294 923 l 1
 337 923 l 1
 464 796 l 1
 420 754 l 1
 311 852 l 1
 201 754 l 1
 166 782 l 1
167 -10 m 0
 125 -10 83 0 43 24 c 1
 67 86 l 1
 95 72 135 63 165 63 c 0
 232 63 269 109 269 191 c 2
 269 694 l 1
 352 694 l 1
 352 200 l 2
 352 65 285 -10 167 -10 c 0
EndSplineSet
EndChar

StartChar: K
Encoding: 75 75 100
Width: 636
GlyphClass: 2
Flags: MW
HStem: 0 21G<106 106 106 189 503 503 503 613> 674 20G<106 189 189 189 497 598 598 598>
VStem: 106 83<0 694 0 694>
AnchorPoint: "Anchor-3" 320 694 basechar 0
AnchorPoint: "Anchor-0" 320 0 basechar 0
LayerCount: 2
Fore
SplineSet
503 0 m 1
 191 361 l 1
 497 694 l 1
 598 694 l 1
 291 367 l 1
 613 0 l 1
 503 0 l 1
106 0 m 1
 106 694 l 1
 189 694 l 1
 189 0 l 1
 106 0 l 1
EndSplineSet
EndChar

StartChar: uni0136
Encoding: 310 310 101
Width: 636
GlyphClass: 2
Flags: MW
HStem: -227 162<253 357 282 308> 0 21G<106 106 106 189 503 503 503 613> 674 20G<106 189 189 189 497 598 598 598>
VStem: 106 83<0 694 0 694> 282 75<-97 -65 -97 -65>
AnchorPoint: "Anchor-3" 320 694 basechar 0
AnchorPoint: "Anchor-0" 320 -231 basechar 0
LayerCount: 2
Fore
SplineSet
503 0 m 1
 191 361 l 1
 497 694 l 1
 598 694 l 1
 291 367 l 1
 613 0 l 1
 503 0 l 1
106 0 m 1
 106 694 l 1
 189 694 l 1
 189 0 l 1
 106 0 l 1
253 -227 m 1
 271 -194 282 -132 282 -65 c 1
 357 -65 l 1
 357 -129 341 -181 308 -227 c 1
 253 -227 l 1
EndSplineSet
EndChar

StartChar: L
Encoding: 76 76 102
Width: 545
GlyphClass: 2
Flags: MW
HStem: 0 74<189 500 189 500> 674 20G<106 189 189 189>
VStem: 106 83<74 694 74 694 74 694>
AnchorPoint: "Anchor-4" 313 482 basechar 0
AnchorPoint: "Anchor-3" 149 694 basechar 0
AnchorPoint: "Anchor-2" 415 352 basechar 0
AnchorPoint: "Anchor-1" 174 347 basechar 0
AnchorPoint: "Anchor-0" 304 0 basechar 0
LayerCount: 2
Fore
SplineSet
106 0 m 1
 106 694 l 1
 189 694 l 1
 189 74 l 1
 500 74 l 1
 500 0 l 1
 106 0 l 1
EndSplineSet
EndChar

StartChar: uni01C7
Encoding: 455 455 103
Width: 995
GlyphClass: 2
Flags: MW
HStem: -10 73<695 743.5 695 771> 0 74<189 500 189 500> 674 20G<106 189 189 189 814 897 897 897>
VStem: 106 83<74 694 74 694 74 694> 814 83<191 200 200 694>
AnchorPoint: "Anchor-6" 149 694 baselig 0
AnchorPoint: "Anchor-5" 304 0 baselig 0
AnchorPoint: "Anchor-4" 313 482 basechar 0
AnchorPoint: "Anchor-2" 415 352 basechar 0
AnchorPoint: "Anchor-1" 174 347 basechar 0
AnchorPoint: "Anchor-6" 854 694 baselig 1
AnchorPoint: "Anchor-5" 779 0 baselig 1
LayerCount: 2
Fore
SplineSet
106 0 m 1x78
 106 694 l 1
 189 694 l 1
 189 74 l 1
 500 74 l 1
 500 0 l 1
 106 0 l 1x78
712 -10 m 0xb8
 670 -10 628 0 588 24 c 1
 612 86 l 1
 640 72 680 63 710 63 c 0
 777 63 814 109 814 191 c 2
 814 694 l 1
 897 694 l 1
 897 200 l 2
 897 65 830 -10 712 -10 c 0xb8
EndSplineSet
EndChar

StartChar: Lacute
Encoding: 313 313 104
Width: 545
GlyphClass: 2
Flags: MW
HStem: 0 74<189 500 189 500> 674 20G<106 189 189 189>
VStem: 106 83<74 694 74 694 74 694>
AnchorPoint: "Anchor-4" 313 482 basechar 0
AnchorPoint: "Anchor-3" 100 801 basechar 0
AnchorPoint: "Anchor-2" 415 352 basechar 0
AnchorPoint: "Anchor-1" 174 347 basechar 0
AnchorPoint: "Anchor-0" 304 0 basechar 0
LayerCount: 2
Fore
SplineSet
133 744 m 1
 101 786 l 1
 247 917 l 1
 297 853 l 1
 133 744 l 1
106 0 m 1
 106 694 l 1
 189 694 l 1
 189 74 l 1
 500 74 l 1
 500 0 l 1
 106 0 l 1
EndSplineSet
EndChar

StartChar: Lcaron
Encoding: 317 317 105
Width: 545
GlyphClass: 2
Flags: MW
HStem: 0 74<189 500 189 500> 674 20G<106 189 189 189> 721 20G<358 358> 729 20G<284 284>
VStem: 106 83<74 694 74 694 74 694>
AnchorPoint: "Anchor-4" 313 482 basechar 0
AnchorPoint: "Anchor-3" 149 694 basechar 0
AnchorPoint: "Anchor-2" 415 352 basechar 0
AnchorPoint: "Anchor-1" 174 347 basechar 0
AnchorPoint: "Anchor-0" 304 0 basechar 0
LayerCount: 2
Fore
SplineSet
316 553 m 1xd8
 268 559 l 1
 284 749 l 1xd8
 358 741 l 1xe8
 316 553 l 1xd8
106 0 m 1
 106 694 l 1
 189 694 l 1
 189 74 l 1
 500 74 l 1
 500 0 l 1
 106 0 l 1
EndSplineSet
EndChar

StartChar: uni013B
Encoding: 315 315 106
Width: 545
GlyphClass: 2
Flags: MW
HStem: -227 162<237 341 266 292> 0 74<189 500 189 500> 674 20G<106 189 189 189>
VStem: 106 83<74 694 74 694 74 694> 266 75<-97 -65 -97 -65>
AnchorPoint: "Anchor-4" 313 482 basechar 0
AnchorPoint: "Anchor-3" 149 694 basechar 0
AnchorPoint: "Anchor-2" 415 352 basechar 0
AnchorPoint: "Anchor-1" 174 347 basechar 0
AnchorPoint: "Anchor-0" 304 -231 basechar 0
LayerCount: 2
Fore
SplineSet
106 0 m 1
 106 694 l 1
 189 694 l 1
 189 74 l 1
 500 74 l 1
 500 0 l 1
 106 0 l 1
237 -227 m 1
 255 -194 266 -132 266 -65 c 1
 341 -65 l 1
 341 -129 325 -181 292 -227 c 1
 237 -227 l 1
EndSplineSet
EndChar

StartChar: Ldot
Encoding: 319 319 107
Width: 545
GlyphClass: 2
Flags: MW
HStem: 0 74<189 500 189 500> 294 128<362 400> 674 20G<106 189 189 189>
VStem: 106 83<74 694 74 694 74 694> 317 128<339.5 376.5>
AnchorPoint: "Anchor-4" 313 482 basechar 0
AnchorPoint: "Anchor-3" 149 694 basechar 0
AnchorPoint: "Anchor-2" 415 352 basechar 0
AnchorPoint: "Anchor-1" 174 347 basechar 0
AnchorPoint: "Anchor-0" 304 0 basechar 0
LayerCount: 2
Fore
SplineSet
106 0 m 1
 106 694 l 1
 189 694 l 1
 189 74 l 1
 500 74 l 1
 500 0 l 1
 106 0 l 1
381 294 m 0
 343 294 317 321 317 358 c 0
 317 395 343 422 381 422 c 0
 419 422 445 395 445 358 c 0
 445 321 419 294 381 294 c 0
EndSplineSet
EndChar

StartChar: uni1E36
Encoding: 7734 7734 108
Width: 545
GlyphClass: 2
Flags: MW
HStem: -195 114<286 322> 0 74<189 500 189 500> 674 20G<106 189 189 189>
VStem: 106 83<74 694 74 694 74 694> 247 114<-156 -120>
AnchorPoint: "Anchor-4" 313 482 basechar 0
AnchorPoint: "Anchor-3" 149 694 basechar 0
AnchorPoint: "Anchor-2" 415 352 basechar 0
AnchorPoint: "Anchor-1" 174 347 basechar 0
AnchorPoint: "Anchor-0" 304 -205 basechar 0
LayerCount: 2
Fore
SplineSet
106 0 m 1
 106 694 l 1
 189 694 l 1
 189 74 l 1
 500 74 l 1
 500 0 l 1
 106 0 l 1
304 -195 m 0
 268 -195 247 -174 247 -138 c 0
 247 -102 268 -81 304 -81 c 0
 340 -81 361 -102 361 -138 c 0
 361 -174 340 -195 304 -195 c 0
EndSplineSet
EndChar

StartChar: uni01C8
Encoding: 456 456 109
Width: 796
GlyphClass: 2
Flags: MW
HStem: -227 21G<567 567> 0 74<189 500 189 500> 462 20G<631 711 711 711> 595 114<653 689> 674 20G<106 189 189 189>
VStem: 106 83<74 694 74 694 74 694> 614 114<634 670> 631 80<-35 -23 -23 482>
AnchorPoint: "Anchor-6" 149 694 baselig 0
AnchorPoint: "Anchor-5" 304 0 baselig 0
AnchorPoint: "Anchor-4" 313 482 basechar 0
AnchorPoint: "Anchor-2" 415 352 basechar 0
AnchorPoint: "Anchor-1" 174 347 basechar 0
AnchorPoint: "Anchor-6" 671 674 baselig 1
AnchorPoint: "Anchor-5" 671 0 baselig 1
LayerCount: 2
Fore
SplineSet
671 595 m 0xf6
 635 595 614 616 614 652 c 0
 614 688 635 709 671 709 c 0
 707 709 728 688 728 652 c 0
 728 616 707 595 671 595 c 0xf6
106 0 m 1
 106 694 l 1
 189 694 l 1xed
 189 74 l 1
 500 74 l 1
 500 0 l 1
 106 0 l 1
567 -227 m 1
 541 -179 l 1
 595 -148 631 -91 631 -35 c 2
 631 482 l 1
 711 482 l 1
 711 -23 l 2
 711 -111 658 -187 567 -227 c 1
EndSplineSet
EndChar

StartChar: uni1E3A
Encoding: 7738 7738 110
Width: 545
GlyphClass: 2
Flags: MW
HStem: -171 65<147 460 147 460> 0 74<189 500 189 500> 674 20G<106 189 189 189>
VStem: 106 83<74 694 74 694 74 694>
AnchorPoint: "Anchor-4" 313 482 basechar 0
AnchorPoint: "Anchor-3" 149 694 basechar 0
AnchorPoint: "Anchor-2" 415 352 basechar 0
AnchorPoint: "Anchor-1" 174 347 basechar 0
AnchorPoint: "Anchor-0" 304 -172 basechar 0
LayerCount: 2
Fore
SplineSet
106 0 m 1
 106 694 l 1
 189 694 l 1
 189 74 l 1
 500 74 l 1
 500 0 l 1
 106 0 l 1
147 -171 m 1
 147 -106 l 1
 460 -106 l 1
 460 -171 l 1
 147 -171 l 1
EndSplineSet
EndChar

StartChar: Lslash
Encoding: 321 321 111
Width: 545
GlyphClass: 2
Flags: MW
HStem: 0 74<189 500 189 500> 674 20G<106 189 189 189>
VStem: 106 83<74 271 271 271 392 694>
AnchorPoint: "Anchor-4" 313 482 basechar 0
AnchorPoint: "Anchor-3" 149 694 basechar 0
AnchorPoint: "Anchor-2" 415 352 basechar 0
AnchorPoint: "Anchor-1" 174 347 basechar 0
AnchorPoint: "Anchor-0" 304 0 basechar 0
LayerCount: 2
Fore
SplineSet
106 0 m 1
 106 271 l 1
 65 249 l 1
 31 306 l 1
 106 347 l 1
 106 694 l 1
 189 694 l 1
 189 392 l 1
 284 444 l 1
 317 386 l 1
 189 316 l 1
 189 74 l 1
 500 74 l 1
 500 0 l 1
 106 0 l 1
EndSplineSet
EndChar

StartChar: M
Encoding: 77 77 112
Width: 887
GlyphClass: 2
Flags: MW
HStem: 0 21G<106 106 106 185 702 702 702 781> 674 20G<106 191 191 191 699 781 781 781>
VStem: 106 79<0 545 0 694> 702 79<0 554 554 554>
AnchorPoint: "Anchor-3" 444 694 basechar 0
AnchorPoint: "Anchor-0" 444 0 basechar 0
LayerCount: 2
Fore
SplineSet
106 0 m 1
 106 694 l 1
 191 694 l 1
 445 197 l 1
 699 694 l 1
 781 694 l 1
 781 0 l 1
 702 0 l 1
 702 554 l 1
 475 108 l 1
 410 108 l 1
 185 545 l 1
 185 0 l 1
 106 0 l 1
EndSplineSet
EndChar

StartChar: uni1E42
Encoding: 7746 7746 113
Width: 887
GlyphClass: 2
Flags: MW
HStem: -195 114<426 462> 0 21G<106 106 106 185 702 702 702 781> 674 20G<106 191 191 191 699 781 781 781>
VStem: 106 79<0 545 0 694> 387 114<-156 -120> 702 79<0 554 554 554>
AnchorPoint: "Anchor-3" 444 694 basechar 0
AnchorPoint: "Anchor-0" 444 -205 basechar 0
LayerCount: 2
Fore
SplineSet
106 0 m 1
 106 694 l 1
 191 694 l 1
 445 197 l 1
 699 694 l 1
 781 694 l 1
 781 0 l 1
 702 0 l 1
 702 554 l 1
 475 108 l 1
 410 108 l 1
 185 545 l 1
 185 0 l 1
 106 0 l 1
444 -195 m 0
 408 -195 387 -174 387 -138 c 0
 387 -102 408 -81 444 -81 c 0
 480 -81 501 -102 501 -138 c 0
 501 -174 480 -195 444 -195 c 0
EndSplineSet
EndChar

StartChar: N
Encoding: 78 78 114
Width: 778
GlyphClass: 2
Flags: MW
HStem: 0 21G<106 106 106 184 577 577 577 672> 0 111<577 594 594 594 594 672> 583 111<184 184> 674 20G<106 201 201 201 594 672 672 672>
VStem: 106 78<0 583 0 694> 594 78<111 694 0 694>
AnchorPoint: "Anchor-3" 389 694 basechar 0
AnchorPoint: "Anchor-0" 389 0 basechar 0
LayerCount: 2
Fore
SplineSet
106 0 m 1x9c
 106 694 l 1
 201 694 l 1
 594 111 l 1x5c
 594 694 l 1
 672 694 l 1
 672 0 l 1
 577 0 l 1
 184 583 l 1xac
 184 0 l 1
 106 0 l 1x9c
EndSplineSet
EndChar

StartChar: uni01CA
Encoding: 458 458 115
Width: 1228
GlyphClass: 2
Flags: MW
HStem: -10 73<928 976.5 928 1004> 0 21G<106 106 106 184 577 577 577 672> 0 111<577 594 594 594 594 672> 583 111<184 184> 674 20G<106 201 201 201 594 672 672 672 1047 1130 1130 1130>
VStem: 106 78<0 583 0 694> 594 78<111 694 0 694> 1047 83<191 200 200 694>
AnchorPoint: "Anchor-6" 389 694 baselig 0
AnchorPoint: "Anchor-5" 389 0 baselig 0
AnchorPoint: "Anchor-5" 1012 0 baselig 1
AnchorPoint: "Anchor-6" 1087 694 baselig 1
LayerCount: 2
Fore
SplineSet
106 0 m 1x57
 106 694 l 1
 201 694 l 1
 594 111 l 1x2f
 594 694 l 1
 672 694 l 1
 672 0 l 1
 577 0 l 1
 184 583 l 1
 184 0 l 1
 106 0 l 1x57
945 -10 m 0x8f
 903 -10 861 0 821 24 c 1
 845 86 l 1
 873 72 913 63 943 63 c 0
 1010 63 1047 109 1047 191 c 2
 1047 694 l 1
 1130 694 l 1
 1130 200 l 2
 1130 65 1063 -10 945 -10 c 0x8f
EndSplineSet
EndChar

StartChar: Nacute
Encoding: 323 323 116
Width: 778
GlyphClass: 2
Flags: MW
HStem: 0 21G<106 106 106 184 577 577 577 672> 0 111<577 594 594 594 594 672> 583 111<184 184> 674 20G<106 201 201 201 594 672 672 672>
VStem: 106 78<0 583 0 694> 594 78<111 694 0 694>
AnchorPoint: "Anchor-3" 340 801 basechar 0
AnchorPoint: "Anchor-0" 389 0 basechar 0
LayerCount: 2
Fore
SplineSet
373 744 m 1x9c
 341 786 l 1
 487 917 l 1
 537 853 l 1
 373 744 l 1x9c
106 0 m 1
 106 694 l 1
 201 694 l 1
 594 111 l 1x5c
 594 694 l 1
 672 694 l 1
 672 0 l 1
 577 0 l 1
 184 583 l 1xac
 184 0 l 1
 106 0 l 1
EndSplineSet
EndChar

StartChar: Ncaron
Encoding: 327 327 117
Width: 778
GlyphClass: 2
Flags: MW
HStem: 0 21G<106 106 106 184 577 577 577 672> 0 111<577 594 594 594 594 672> 583 111<184 184> 674 20G<106 201 201 201 594 672 672 672>
VStem: 106 78<0 583 0 694> 594 78<111 694 0 694>
AnchorPoint: "Anchor-3" 389 836 basechar 0
AnchorPoint: "Anchor-0" 389 0 basechar 0
LayerCount: 2
Fore
SplineSet
369 754 m 1x9c
 239 880 l 1
 288 922 l 1
 393 822 l 1
 505 923 l 1
 539 893 l 1
 412 754 l 1
 369 754 l 1x9c
106 0 m 1
 106 694 l 1
 201 694 l 1
 594 111 l 1x5c
 594 694 l 1
 672 694 l 1
 672 0 l 1
 577 0 l 1
 184 583 l 1xac
 184 0 l 1
 106 0 l 1
EndSplineSet
EndChar

StartChar: uni0145
Encoding: 325 325 118
Width: 778
GlyphClass: 2
Flags: MW
HStem: -227 162<322 426 351 377> 0 21G<106 106 106 184 577 577 577 672> 0 111<577 594 594 594 594 672> 583 111<184 184> 674 20G<106 201 201 201 594 672 672 672>
VStem: 106 78<0 583 0 694> 351 75<-97 -65 -97 -65> 594 78<111 694 0 694>
AnchorPoint: "Anchor-3" 389 694 basechar 0
AnchorPoint: "Anchor-0" 389 -231 basechar 0
LayerCount: 2
Fore
SplineSet
106 0 m 1xcd
 106 694 l 1
 201 694 l 1
 594 111 l 1xaf
 594 694 l 1
 672 694 l 1
 672 0 l 1
 577 0 l 1
 184 583 l 1xd5
 184 0 l 1
 106 0 l 1xcd
322 -227 m 1
 340 -194 351 -132 351 -65 c 1
 426 -65 l 1
 426 -129 410 -181 377 -227 c 1
 322 -227 l 1
EndSplineSet
EndChar

StartChar: uni1E44
Encoding: 7748 7748 119
Width: 778
GlyphClass: 2
Flags: MW
HStem: 0 21G<106 106 106 184 577 577 577 672> 0 111<577 594 594 594 594 672> 583 111<184 184> 674 20G<106 201 201 201 594 672 672 672> 778 114<368 404>
VStem: 106 78<0 583 0 694> 329 114<817 853> 594 78<111 694 0 694>
AnchorPoint: "Anchor-3" 389 856 basechar 0
AnchorPoint: "Anchor-0" 389 0 basechar 0
LayerCount: 2
Fore
SplineSet
386 778 m 0x9f
 350 778 329 799 329 835 c 0
 329 871 350 892 386 892 c 0
 422 892 443 871 443 835 c 0
 443 799 422 778 386 778 c 0x9f
106 0 m 1
 106 694 l 1
 201 694 l 1
 594 111 l 1x5f
 594 694 l 1
 672 694 l 1
 672 0 l 1
 577 0 l 1
 184 583 l 1xaf
 184 0 l 1
 106 0 l 1
EndSplineSet
EndChar

StartChar: uni1E46
Encoding: 7750 7750 120
Width: 778
GlyphClass: 2
Flags: MW
HStem: -195 114<371 407> 0 21G<106 106 106 184 577 577 577 672> 0 111<577 594 594 594 594 672> 583 111<184 184> 674 20G<106 201 201 201 594 672 672 672>
VStem: 106 78<0 583 0 694> 332 114<-156 -120> 594 78<111 694 0 694>
AnchorPoint: "Anchor-3" 389 694 basechar 0
AnchorPoint: "Anchor-0" 389 -205 basechar 0
LayerCount: 2
Fore
SplineSet
106 0 m 1xcd
 106 694 l 1
 201 694 l 1
 594 111 l 1xaf
 594 694 l 1
 672 694 l 1
 672 0 l 1
 577 0 l 1
 184 583 l 1xd5
 184 0 l 1
 106 0 l 1xcd
389 -195 m 0
 353 -195 332 -174 332 -138 c 0
 332 -102 353 -81 389 -81 c 0
 425 -81 446 -102 446 -138 c 0
 446 -174 425 -195 389 -195 c 0
EndSplineSet
EndChar

StartChar: Eng
Encoding: 330 330 121
Width: 778
Flags: MW
HStem: -227 21G<549 549> 0 21G<106 106 106 184> 580 114<184 184> 674 20G<106 201 201 201 594 672 672 672>
VStem: 106 78<0 580 0 694> 592 80<-35 -23 -23 -22 -22 -22> 594 78<114 694>
LayerCount: 2
Fore
SplineSet
106 0 m 1xda
 106 694 l 1
 201 694 l 1
 594 114 l 1
 594 694 l 1
 672 694 l 1
 672 -23 l 2xda
 672 -113 623 -194 549 -227 c 1
 522 -179 l 1
 564 -155 592 -98 592 -35 c 2
 592 -22 l 1
 184 580 l 1xec
 184 0 l 1
 106 0 l 1xda
EndSplineSet
EndChar

StartChar: uni01CB
Encoding: 459 459 122
Width: 1029
GlyphClass: 2
Flags: MW
HStem: -227 21G<800 800> 0 21G<106 106 106 184 577 577 577 672> 0 111<577 594 594 594 594 672> 462 20G<864 944 944 944> 583 111<184 184> 595 114<886 922> 674 20G<106 201 201 201 594 672 672 672>
VStem: 106 78<0 583 0 694> 594 78<111 694 0 694> 847 114<634 670> 864 80<-35 -23 -23 482>
AnchorPoint: "Anchor-6" 389 694 baselig 0
AnchorPoint: "Anchor-5" 389 0 baselig 0
AnchorPoint: "Anchor-5" 904 0 baselig 1
AnchorPoint: "Anchor-6" 904 674 baselig 1
LayerCount: 2
Fore
SplineSet
904 595 m 0xd5c0
 868 595 847 616 847 652 c 0
 847 688 868 709 904 709 c 0
 940 709 961 688 961 652 c 0
 961 616 940 595 904 595 c 0xd5c0
106 0 m 1
 106 694 l 1
 201 694 l 1
 594 111 l 1xb3a0
 594 694 l 1
 672 694 l 1
 672 0 l 1
 577 0 l 1
 184 583 l 1xd9a0
 184 0 l 1
 106 0 l 1
800 -227 m 1
 774 -179 l 1
 828 -148 864 -91 864 -35 c 2
 864 482 l 1
 944 482 l 1
 944 -23 l 2
 944 -111 891 -187 800 -227 c 1
EndSplineSet
EndChar

StartChar: uni1E48
Encoding: 7752 7752 123
Width: 778
GlyphClass: 2
Flags: MW
HStem: -171 65<232 545 232 545> 0 21G<106 106 106 184 577 577 577 672> 0 111<577 594 594 594 594 672> 583 111<184 184> 674 20G<106 201 201 201 594 672 672 672>
VStem: 106 78<0 583 0 694> 594 78<111 694 0 694>
AnchorPoint: "Anchor-3" 389 694 basechar 0
AnchorPoint: "Anchor-0" 389 -172 basechar 0
LayerCount: 2
Fore
SplineSet
106 0 m 1xce
 106 694 l 1
 201 694 l 1
 594 111 l 1xae
 594 694 l 1
 672 694 l 1
 672 0 l 1
 577 0 l 1
 184 583 l 1xd6
 184 0 l 1
 106 0 l 1xce
232 -171 m 1
 232 -106 l 1
 545 -106 l 1
 545 -171 l 1
 232 -171 l 1
EndSplineSet
EndChar

StartChar: Ntilde
Encoding: 209 209 124
Width: 778
GlyphClass: 2
Flags: MW
HStem: 0 21G<106 106 106 184 577 577 577 672> 0 111<577 594 594 594 594 672> 583 111<184 184> 674 20G<106 201 201 201 594 672 672 672> 764 64<430 465.5 430 477.5> 815 66<311 344.5>
VStem: 106 78<0 583 0 694> 594 78<111 694 0 694>
AnchorPoint: "Anchor-3" 390 876 basechar 0
AnchorPoint: "Anchor-0" 389 0 basechar 0
LayerCount: 2
Fore
SplineSet
267 762 m 1x97
 214 776 l 1xa7
 234 848 279 881 327 881 c 0
 388 881 408 828 452 828 c 0
 479 828 501 848 512 883 c 1
 565 869 l 1x9b
 551 800 506 764 449 764 c 0
 382 764 365 815 324 815 c 0
 298 815 277 794 267 762 c 1x97
106 0 m 1
 106 694 l 1
 201 694 l 1
 594 111 l 1x5b
 594 694 l 1
 672 694 l 1
 672 0 l 1
 577 0 l 1
 184 583 l 1
 184 0 l 1
 106 0 l 1
EndSplineSet
EndChar

StartChar: O
Encoding: 79 79 125
Width: 788
GlyphClass: 2
Flags: MW
HStem: -7 72<323 467.5 323 486> 630 73<316 460.5>
VStem: 68 85<268.5 438 268.5 451.5> 635 85<260.5 430>
AnchorPoint: "Anchor-4" 585 694 basechar 0
AnchorPoint: "Anchor-3" 394 694 basechar 0
AnchorPoint: "Anchor-1" 394 347 basechar 0
AnchorPoint: "Anchor-0" 394 0 basechar 0
LayerCount: 2
Fore
SplineSet
386 -7 m 0
 195 -7 68 133 68 344 c 0
 68 559 199 703 396 703 c 0
 590 703 720 564 720 356 c 0
 720 138 586 -7 386 -7 c 0
396 65 m 0
 539 65 635 177 635 344 c 0
 635 516 535 630 386 630 c 0
 246 630 153 520 153 356 c 0
 153 181 250 65 396 65 c 0
EndSplineSet
Substitution2: "Single Substitution lookup 35 subtable" ordmasculine
Substitution2: "'aalt' Access All Alternates in Latin lookup 0 subtable" ordmasculine
EndChar

StartChar: Oacute
Encoding: 211 211 126
Width: 788
GlyphClass: 2
Flags: MW
HStem: -7 72<323 467.5 323 486> 630 73<316 460.5>
VStem: 68 85<268.5 438 268.5 451.5> 635 85<260.5 430>
AnchorPoint: "Anchor-4" 585 694 basechar 0
AnchorPoint: "Anchor-3" 345 801 basechar 0
AnchorPoint: "Anchor-1" 394 347 basechar 0
AnchorPoint: "Anchor-0" 394 0 basechar 0
LayerCount: 2
Fore
SplineSet
378 744 m 1
 346 786 l 1
 492 917 l 1
 542 853 l 1
 378 744 l 1
386 -7 m 0
 195 -7 68 133 68 344 c 0
 68 559 199 703 396 703 c 0
 590 703 720 564 720 356 c 0
 720 138 586 -7 386 -7 c 0
396 65 m 0
 539 65 635 177 635 344 c 0
 635 516 535 630 386 630 c 0
 246 630 153 520 153 356 c 0
 153 181 250 65 396 65 c 0
EndSplineSet
EndChar

StartChar: Obreve
Encoding: 334 334 127
Width: 788
GlyphClass: 2
Flags: MW
HStem: -7 72<323 467.5 323 486> 630 73<316 460.5> 758 65<376.5 428.5 376.5 428.5>
VStem: 68 85<268.5 438 268.5 451.5> 635 85<260.5 430>
AnchorPoint: "Anchor-4" 585 694 basechar 0
AnchorPoint: "Anchor-3" 394 826 basechar 0
AnchorPoint: "Anchor-1" 394 347 basechar 0
AnchorPoint: "Anchor-0" 394 0 basechar 0
LayerCount: 2
Fore
SplineSet
390 758 m 0
 314 758 254 811 240 890 c 1
 304 927 l 1
 312 865 351 823 402 823 c 0
 455 823 495 865 502 928 c 1
 541 902 l 1
 528 816 467 758 390 758 c 0
386 -7 m 0
 195 -7 68 133 68 344 c 0
 68 559 199 703 396 703 c 0
 590 703 720 564 720 356 c 0
 720 138 586 -7 386 -7 c 0
396 65 m 0
 539 65 635 177 635 344 c 0
 635 516 535 630 386 630 c 0
 246 630 153 520 153 356 c 0
 153 181 250 65 396 65 c 0
EndSplineSet
EndChar

StartChar: uni01D1
Encoding: 465 465 128
Width: 788
GlyphClass: 2
Flags: MW
HStem: -7 72<323 467.5 323 486> 630 73<316 460.5>
VStem: 68 85<268.5 438 268.5 451.5> 635 85<260.5 430>
AnchorPoint: "Anchor-4" 585 694 basechar 0
AnchorPoint: "Anchor-3" 394 836 basechar 0
AnchorPoint: "Anchor-1" 394 347 basechar 0
AnchorPoint: "Anchor-0" 394 0 basechar 0
LayerCount: 2
Fore
SplineSet
374 754 m 1
 244 880 l 1
 293 922 l 1
 398 822 l 1
 510 923 l 1
 544 893 l 1
 417 754 l 1
 374 754 l 1
386 -7 m 0
 195 -7 68 133 68 344 c 0
 68 559 199 703 396 703 c 0
 590 703 720 564 720 356 c 0
 720 138 586 -7 386 -7 c 0
396 65 m 0
 539 65 635 177 635 344 c 0
 635 516 535 630 386 630 c 0
 246 630 153 520 153 356 c 0
 153 181 250 65 396 65 c 0
EndSplineSet
EndChar

StartChar: Ocircumflex
Encoding: 212 212 129
Width: 788
GlyphClass: 2
Flags: MW
HStem: -7 72<323 467.5 323 486> 630 73<316 460.5>
VStem: 68 85<268.5 438 268.5 451.5> 635 85<260.5 430>
AnchorPoint: "Anchor-4" 585 694 basechar 0
AnchorPoint: "Anchor-3" 394 852 basechar 0
AnchorPoint: "Anchor-1" 394 347 basechar 0
AnchorPoint: "Anchor-0" 394 0 basechar 0
LayerCount: 2
Fore
SplineSet
251 782 m 1
 379 923 l 1
 422 923 l 1
 549 796 l 1
 505 754 l 1
 396 852 l 1
 286 754 l 1
 251 782 l 1
386 -7 m 0
 195 -7 68 133 68 344 c 0
 68 559 199 703 396 703 c 0
 590 703 720 564 720 356 c 0
 720 138 586 -7 386 -7 c 0
396 65 m 0
 539 65 635 177 635 344 c 0
 635 516 535 630 386 630 c 0
 246 630 153 520 153 356 c 0
 153 181 250 65 396 65 c 0
EndSplineSet
EndChar

StartChar: uni1ED0
Encoding: 7888 7888 130
Width: 788
GlyphClass: 2
Flags: MW
HStem: -7 72<323 467.5 323 486> 630 73<316 460.5>
VStem: 68 85<268.5 438 268.5 451.5> 635 85<260.5 430>
AnchorPoint: "Anchor-4" 585 694 basechar 0
AnchorPoint: "Anchor-3" 394 694 basechar 0
AnchorPoint: "Anchor-1" 394 347 basechar 0
AnchorPoint: "Anchor-0" 394 0 basechar 0
LayerCount: 2
Fore
SplineSet
573 877 m 1
 539 907 l 1
 659 1059 l 1
 716 1006 l 1
 573 877 l 1
253 776 m 1
 390 892 l 1
 433 892 l 1
 552 790 l 1
 505 748 l 1
 402 822 l 1
 286 748 l 1
 253 776 l 1
386 -7 m 0
 195 -7 68 133 68 344 c 0
 68 559 199 703 396 703 c 0
 590 703 720 564 720 356 c 0
 720 138 586 -7 386 -7 c 0
396 65 m 0
 539 65 635 177 635 344 c 0
 635 516 535 630 386 630 c 0
 246 630 153 520 153 356 c 0
 153 181 250 65 396 65 c 0
EndSplineSet
EndChar

StartChar: uni1ED8
Encoding: 7896 7896 131
Width: 788
GlyphClass: 2
Flags: MW
HStem: -195 114<376 412> -7 72<323 467.5 323 486> 630 73<316 460.5>
VStem: 68 85<268.5 438 268.5 451.5> 337 114<-156 -120> 635 85<260.5 430>
AnchorPoint: "Anchor-4" 585 694 basechar 0
AnchorPoint: "Anchor-3" 394 852 basechar 0
AnchorPoint: "Anchor-1" 394 347 basechar 0
AnchorPoint: "Anchor-0" 394 -205 basechar 0
LayerCount: 2
Fore
SplineSet
251 782 m 1
 379 923 l 1
 422 923 l 1
 549 796 l 1
 505 754 l 1
 396 852 l 1
 286 754 l 1
 251 782 l 1
386 -7 m 0
 195 -7 68 133 68 344 c 0
 68 559 199 703 396 703 c 0
 590 703 720 564 720 356 c 0
 720 138 586 -7 386 -7 c 0
396 65 m 0
 539 65 635 177 635 344 c 0
 635 516 535 630 386 630 c 0
 246 630 153 520 153 356 c 0
 153 181 250 65 396 65 c 0
394 -195 m 0
 358 -195 337 -174 337 -138 c 0
 337 -102 358 -81 394 -81 c 0
 430 -81 451 -102 451 -138 c 0
 451 -174 430 -195 394 -195 c 0
EndSplineSet
EndChar

StartChar: uni1ED2
Encoding: 7890 7890 132
Width: 788
GlyphClass: 2
Flags: MW
HStem: -7 72<323 467.5 323 486> 630 73<316 460.5>
VStem: 68 85<268.5 438 268.5 451.5> 635 85<260.5 430>
AnchorPoint: "Anchor-4" 585 694 basechar 0
AnchorPoint: "Anchor-3" 394 694 basechar 0
AnchorPoint: "Anchor-1" 394 347 basechar 0
AnchorPoint: "Anchor-0" 394 0 basechar 0
LayerCount: 2
Fore
SplineSet
564 879 m 1
 432 1002 l 1
 494 1058 l 1
 601 912 l 1
 564 879 l 1
253 776 m 1
 390 892 l 1
 433 892 l 1
 552 790 l 1
 505 748 l 1
 402 822 l 1
 286 748 l 1
 253 776 l 1
386 -7 m 0
 195 -7 68 133 68 344 c 0
 68 559 199 703 396 703 c 0
 590 703 720 564 720 356 c 0
 720 138 586 -7 386 -7 c 0
396 65 m 0
 539 65 635 177 635 344 c 0
 635 516 535 630 386 630 c 0
 246 630 153 520 153 356 c 0
 153 181 250 65 396 65 c 0
EndSplineSet
EndChar

StartChar: uni1ED4
Encoding: 7892 7892 133
Width: 788
GlyphClass: 2
Flags: MW
HStem: -7 72<323 467.5 323 486> 630 73<316 460.5> 1007 60<566.5 574.5>
VStem: 68 85<268.5 438 268.5 451.5> 605 69 635 85<260.5 430>
AnchorPoint: "Anchor-4" 585 694 basechar 0
AnchorPoint: "Anchor-3" 394 694 basechar 0
AnchorPoint: "Anchor-1" 394 347 basechar 0
AnchorPoint: "Anchor-0" 394 0 basechar 0
LayerCount: 2
Fore
SplineSet
553 879 m 1xd4
 541 919 l 1
 578 933 604 957 605 977 c 0
 606 994 588 1007 561 1007 c 0
 541 1007 513 1000 484 990 c 1
 469 1042 l 1
 506 1059 551 1067 582 1067 c 0
 642 1067 677 1038 674 995 c 0xf8
 671 952 628 907 553 879 c 1xd4
253 776 m 1
 390 892 l 1
 433 892 l 1
 552 790 l 1
 505 748 l 1
 402 822 l 1
 286 748 l 1
 253 776 l 1
386 -7 m 0
 195 -7 68 133 68 344 c 0
 68 559 199 703 396 703 c 0
 590 703 720 564 720 356 c 0xd4
 720 138 586 -7 386 -7 c 0
396 65 m 0xd4
 539 65 635 177 635 344 c 0
 635 516 535 630 386 630 c 0
 246 630 153 520 153 356 c 0
 153 181 250 65 396 65 c 0xd4
EndSplineSet
EndChar

StartChar: uni1ED6
Encoding: 7894 7894 134
Width: 788
GlyphClass: 2
Flags: MW
HStem: -7 72<323 467.5 323 486> 630 73<316 460.5> 984 61<452.5 486.5 452.5 492> 1025 63<340 371.5>
VStem: 68 85<268.5 438 268.5 451.5> 635 85<260.5 430>
AnchorPoint: "Anchor-4" 585 694 basechar 0
AnchorPoint: "Anchor-3" 394 694 basechar 0
AnchorPoint: "Anchor-1" 394 347 basechar 0
AnchorPoint: "Anchor-0" 394 0 basechar 0
LayerCount: 2
Fore
SplineSet
296 982 m 1xdc
 246 994 l 1
 269 1057 315 1088 359 1088 c 0xdc
 415 1088 432 1045 473 1045 c 0
 500 1045 520 1063 532 1089 c 1
 582 1076 l 1
 565 1016 518 984 466 984 c 0xec
 404 984 391 1025 352 1025 c 0
 328 1025 308 1008 296 982 c 1xdc
253 776 m 1
 390 892 l 1
 433 892 l 1
 552 790 l 1
 505 748 l 1
 402 822 l 1
 286 748 l 1
 253 776 l 1
386 -7 m 0
 195 -7 68 133 68 344 c 0
 68 559 199 703 396 703 c 0
 590 703 720 564 720 356 c 0
 720 138 586 -7 386 -7 c 0
396 65 m 0
 539 65 635 177 635 344 c 0
 635 516 535 630 386 630 c 0
 246 630 153 520 153 356 c 0
 153 181 250 65 396 65 c 0
EndSplineSet
EndChar

StartChar: uni020C
Encoding: 524 524 135
Width: 788
GlyphClass: 2
Flags: MW
HStem: -7 72<323 467.5 323 486> 630 73<316 460.5>
VStem: 68 85<268.5 438 268.5 451.5> 635 85<260.5 430>
AnchorPoint: "Anchor-4" 585 694 basechar 0
AnchorPoint: "Anchor-3" 394 926 basechar 0
AnchorPoint: "Anchor-1" 394 347 basechar 0
AnchorPoint: "Anchor-0" 394 0 basechar 0
LayerCount: 2
Fore
SplineSet
529 764 m 1
 399 885 l 1
 459 939 l 1
 568 800 l 1
 529 764 l 1
339 764 m 1
 209 885 l 1
 269 939 l 1
 378 800 l 1
 339 764 l 1
386 -7 m 0
 195 -7 68 133 68 344 c 0
 68 559 199 703 396 703 c 0
 590 703 720 564 720 356 c 0
 720 138 586 -7 386 -7 c 0
396 65 m 0
 539 65 635 177 635 344 c 0
 635 516 535 630 386 630 c 0
 246 630 153 520 153 356 c 0
 153 181 250 65 396 65 c 0
EndSplineSet
EndChar

StartChar: Odieresis
Encoding: 214 214 136
Width: 788
GlyphClass: 2
Flags: MW
HStem: -7 72<323 467.5 323 486> 630 73<316 460.5> 777 114<273 309 473 509>
VStem: 68 85<268.5 438 268.5 451.5> 234 114<816 852> 434 114<816 852> 635 85<260.5 430>
AnchorPoint: "Anchor-4" 585 694 basechar 0
AnchorPoint: "Anchor-3" 394 856 basechar 0
AnchorPoint: "Anchor-1" 394 347 basechar 0
AnchorPoint: "Anchor-0" 394 0 basechar 0
LayerCount: 2
Fore
SplineSet
291 777 m 0
 255 777 234 798 234 834 c 0
 234 870 255 891 291 891 c 0
 327 891 348 870 348 834 c 0
 348 798 327 777 291 777 c 0
491 777 m 0
 455 777 434 798 434 834 c 0
 434 870 455 891 491 891 c 0
 527 891 548 870 548 834 c 0
 548 798 527 777 491 777 c 0
386 -7 m 0
 195 -7 68 133 68 344 c 0
 68 559 199 703 396 703 c 0
 590 703 720 564 720 356 c 0
 720 138 586 -7 386 -7 c 0
396 65 m 0
 539 65 635 177 635 344 c 0
 635 516 535 630 386 630 c 0
 246 630 153 520 153 356 c 0
 153 181 250 65 396 65 c 0
EndSplineSet
EndChar

StartChar: uni022A
Encoding: 554 554 137
Width: 788
GlyphClass: 2
Flags: MW
HStem: -7 72<323 467.5 323 486> 630 73<316 460.5> 777 114<273 309 473 509> 950 66<237 550 237 550>
VStem: 68 85<268.5 438 268.5 451.5> 234 114<816 852> 434 114<816 852> 635 85<260.5 430>
AnchorPoint: "Anchor-4" 585 694 basechar 0
AnchorPoint: "Anchor-3" 394 1019 basechar 0
AnchorPoint: "Anchor-1" 394 347 basechar 0
AnchorPoint: "Anchor-0" 394 0 basechar 0
LayerCount: 2
Fore
SplineSet
237 950 m 1
 237 1016 l 1
 550 1016 l 1
 550 950 l 1
 237 950 l 1
291 777 m 0
 255 777 234 798 234 834 c 0
 234 870 255 891 291 891 c 0
 327 891 348 870 348 834 c 0
 348 798 327 777 291 777 c 0
491 777 m 0
 455 777 434 798 434 834 c 0
 434 870 455 891 491 891 c 0
 527 891 548 870 548 834 c 0
 548 798 527 777 491 777 c 0
386 -7 m 0
 195 -7 68 133 68 344 c 0
 68 559 199 703 396 703 c 0
 590 703 720 564 720 356 c 0
 720 138 586 -7 386 -7 c 0
396 65 m 0
 539 65 635 177 635 344 c 0
 635 516 535 630 386 630 c 0
 246 630 153 520 153 356 c 0
 153 181 250 65 396 65 c 0
EndSplineSet
EndChar

StartChar: uni0230
Encoding: 560 560 138
Width: 788
GlyphClass: 2
Flags: MW
HStem: -7 72<323 467.5 323 486> 630 73<316 460.5> 778 114<373 409> 950 66<237 550 237 550>
VStem: 68 85<268.5 438 268.5 451.5> 334 114<817 853> 635 85<260.5 430>
AnchorPoint: "Anchor-4" 585 694 basechar 0
AnchorPoint: "Anchor-3" 394 1019 basechar 0
AnchorPoint: "Anchor-1" 394 347 basechar 0
AnchorPoint: "Anchor-0" 394 0 basechar 0
LayerCount: 2
Fore
SplineSet
237 950 m 1
 237 1016 l 1
 550 1016 l 1
 550 950 l 1
 237 950 l 1
391 778 m 0
 355 778 334 799 334 835 c 0
 334 871 355 892 391 892 c 0
 427 892 448 871 448 835 c 0
 448 799 427 778 391 778 c 0
386 -7 m 0
 195 -7 68 133 68 344 c 0
 68 559 199 703 396 703 c 0
 590 703 720 564 720 356 c 0
 720 138 586 -7 386 -7 c 0
396 65 m 0
 539 65 635 177 635 344 c 0
 635 516 535 630 386 630 c 0
 246 630 153 520 153 356 c 0
 153 181 250 65 396 65 c 0
EndSplineSet
EndChar

StartChar: uni1ECC
Encoding: 7884 7884 139
Width: 788
GlyphClass: 2
Flags: MW
HStem: -195 114<376 412> -7 72<323 467.5 323 486> 630 73<316 460.5>
VStem: 68 85<268.5 438 268.5 451.5> 337 114<-156 -120> 635 85<260.5 430>
AnchorPoint: "Anchor-4" 585 694 basechar 0
AnchorPoint: "Anchor-3" 394 694 basechar 0
AnchorPoint: "Anchor-1" 394 347 basechar 0
AnchorPoint: "Anchor-0" 394 -205 basechar 0
LayerCount: 2
Fore
SplineSet
386 -7 m 0
 195 -7 68 133 68 344 c 0
 68 559 199 703 396 703 c 0
 590 703 720 564 720 356 c 0
 720 138 586 -7 386 -7 c 0
396 65 m 0
 539 65 635 177 635 344 c 0
 635 516 535 630 386 630 c 0
 246 630 153 520 153 356 c 0
 153 181 250 65 396 65 c 0
394 -195 m 0
 358 -195 337 -174 337 -138 c 0
 337 -102 358 -81 394 -81 c 0
 430 -81 451 -102 451 -138 c 0
 451 -174 430 -195 394 -195 c 0
EndSplineSet
EndChar

StartChar: Ograve
Encoding: 210 210 140
Width: 788
GlyphClass: 2
Flags: MW
HStem: -7 72<323 467.5 323 486> 630 73<316 460.5>
VStem: 68 85<268.5 438 268.5 451.5> 635 85<260.5 430>
AnchorPoint: "Anchor-4" 585 694 basechar 0
AnchorPoint: "Anchor-3" 443 801 basechar 0
AnchorPoint: "Anchor-1" 394 347 basechar 0
AnchorPoint: "Anchor-0" 394 0 basechar 0
LayerCount: 2
Fore
SplineSet
410 744 m 1
 246 853 l 1
 296 917 l 1
 442 786 l 1
 410 744 l 1
386 -7 m 0
 195 -7 68 133 68 344 c 0
 68 559 199 703 396 703 c 0
 590 703 720 564 720 356 c 0
 720 138 586 -7 386 -7 c 0
396 65 m 0
 539 65 635 177 635 344 c 0
 635 516 535 630 386 630 c 0
 246 630 153 520 153 356 c 0
 153 181 250 65 396 65 c 0
EndSplineSet
EndChar

StartChar: uni1ECE
Encoding: 7886 7886 141
Width: 788
GlyphClass: 2
Flags: MW
HStem: -7 72<323 467.5 323 486> 630 73<316 460.5> 899 63<384.5 398.5>
VStem: 68 85<268.5 438 268.5 451.5> 431 67<852 871> 635 85<260.5 430>
AnchorPoint: "Anchor-4" 585 694 basechar 0
AnchorPoint: "Anchor-3" 394 962 basechar 0
AnchorPoint: "Anchor-1" 394 347 basechar 0
AnchorPoint: "Anchor-0" 394 0 basechar 0
LayerCount: 2
Fore
SplineSet
386 739 m 1
 371 781 l 1
 407 801 431 832 431 859 c 0
 431 883 412 899 385 899 c 0
 365 899 337 890 309 876 c 1
 290 930 l 1
 326 952 368 962 401 962 c 0
 461 962 498 929 498 878 c 0
 498 826 459 774 386 739 c 1
386 -7 m 0
 195 -7 68 133 68 344 c 0
 68 559 199 703 396 703 c 0
 590 703 720 564 720 356 c 0
 720 138 586 -7 386 -7 c 0
396 65 m 0
 539 65 635 177 635 344 c 0
 635 516 535 630 386 630 c 0
 246 630 153 520 153 356 c 0
 153 181 250 65 396 65 c 0
EndSplineSet
EndChar

StartChar: Ohorn
Encoding: 416 416 142
Width: 788
GlyphClass: 2
Flags: MW
HStem: -7 72<323 467.5 323 486> 630 64<316 489> 630 73<316 412.5 297.5 460.5>
VStem: 68 85<268.5 438 268.5 451.5> 582 80<784 822> 635 85<260.5 424.5 247 430>
AnchorPoint: "Anchor-4" 585 694 basechar 0
AnchorPoint: "Anchor-3" 394 694 basechar 0
AnchorPoint: "Anchor-1" 394 347 basechar 0
AnchorPoint: "Anchor-0" 394 0 basechar 0
LayerCount: 2
Fore
SplineSet
386 -7 m 0xb4
 195 -7 68 133 68 344 c 0
 68 559 199 703 396 703 c 0xb4
 429 703 460 699 489 691 c 1
 489 694 l 1xd8
 545 695 582 746 582 822 c 1
 662 822 l 1xb8
 662 744 627 685 570 657 c 1
 664 600 720 493 720 356 c 0
 720 138 586 -7 386 -7 c 0xb4
396 65 m 0
 539 65 635 177 635 344 c 0
 635 516 535 630 386 630 c 0
 246 630 153 520 153 356 c 0
 153 181 250 65 396 65 c 0
EndSplineSet
EndChar

StartChar: uni1EDA
Encoding: 7898 7898 143
Width: 788
GlyphClass: 2
Flags: MW
HStem: -7 72<323 467.5 323 486> 630 64<316 489> 630 73<316 412.5 297.5 460.5>
VStem: 68 85<268.5 438 268.5 451.5> 582 80<784 822> 635 85<260.5 424.5 247 430>
AnchorPoint: "Anchor-4" 585 694 basechar 0
AnchorPoint: "Anchor-3" 345 801 basechar 0
AnchorPoint: "Anchor-1" 394 347 basechar 0
AnchorPoint: "Anchor-0" 394 0 basechar 0
LayerCount: 2
Fore
SplineSet
378 744 m 1xb4
 346 786 l 1
 492 917 l 1
 542 853 l 1
 378 744 l 1xb4
386 -7 m 0
 195 -7 68 133 68 344 c 0
 68 559 199 703 396 703 c 0xb4
 429 703 460 699 489 691 c 1
 489 694 l 1xd8
 545 695 582 746 582 822 c 1
 662 822 l 1xb8
 662 744 627 685 570 657 c 1
 664 600 720 493 720 356 c 0
 720 138 586 -7 386 -7 c 0
396 65 m 0
 539 65 635 177 635 344 c 0
 635 516 535 630 386 630 c 0
 246 630 153 520 153 356 c 0
 153 181 250 65 396 65 c 0
EndSplineSet
EndChar

StartChar: uni1EE2
Encoding: 7906 7906 144
Width: 788
GlyphClass: 2
Flags: MW
HStem: -195 114<376 412> -7 72<323 467.5 323 486> 630 64<316 489> 630 73<316 412.5 297.5 460.5>
VStem: 68 85<268.5 438 268.5 451.5> 337 114<-156 -120> 582 80<784 822> 635 85<260.5 424.5 247 430>
AnchorPoint: "Anchor-4" 585 694 basechar 0
AnchorPoint: "Anchor-3" 394 694 basechar 0
AnchorPoint: "Anchor-1" 394 347 basechar 0
AnchorPoint: "Anchor-0" 394 -205 basechar 0
LayerCount: 2
Fore
SplineSet
386 -7 m 0x59
 195 -7 68 133 68 344 c 0
 68 559 199 703 396 703 c 0x59
 429 703 460 699 489 691 c 1
 489 694 l 1x6a
 545 695 582 746 582 822 c 1
 662 822 l 1x5a
 662 744 627 685 570 657 c 1
 664 600 720 493 720 356 c 0
 720 138 586 -7 386 -7 c 0x59
396 65 m 0
 539 65 635 177 635 344 c 0
 635 516 535 630 386 630 c 0
 246 630 153 520 153 356 c 0
 153 181 250 65 396 65 c 0
394 -195 m 0xdd
 358 -195 337 -174 337 -138 c 0
 337 -102 358 -81 394 -81 c 0
 430 -81 451 -102 451 -138 c 0
 451 -174 430 -195 394 -195 c 0xdd
EndSplineSet
EndChar

StartChar: uni1EDC
Encoding: 7900 7900 145
Width: 788
GlyphClass: 2
Flags: MW
HStem: -7 72<323 467.5 323 486> 630 64<316 489> 630 73<316 412.5 297.5 460.5>
VStem: 68 85<268.5 438 268.5 451.5> 582 80<784 822> 635 85<260.5 424.5 247 430>
AnchorPoint: "Anchor-4" 585 694 basechar 0
AnchorPoint: "Anchor-3" 443 801 basechar 0
AnchorPoint: "Anchor-1" 394 347 basechar 0
AnchorPoint: "Anchor-0" 394 0 basechar 0
LayerCount: 2
Fore
SplineSet
410 744 m 1xb4
 246 853 l 1
 296 917 l 1
 442 786 l 1
 410 744 l 1xb4
386 -7 m 0
 195 -7 68 133 68 344 c 0
 68 559 199 703 396 703 c 0xb4
 429 703 460 699 489 691 c 1
 489 694 l 1xd8
 545 695 582 746 582 822 c 1
 662 822 l 1xb8
 662 744 627 685 570 657 c 1
 664 600 720 493 720 356 c 0
 720 138 586 -7 386 -7 c 0
396 65 m 0
 539 65 635 177 635 344 c 0
 635 516 535 630 386 630 c 0
 246 630 153 520 153 356 c 0
 153 181 250 65 396 65 c 0
EndSplineSet
EndChar

StartChar: uni1EDE
Encoding: 7902 7902 146
Width: 788
GlyphClass: 2
Flags: MW
HStem: -7 72<323 467.5 323 486> 630 64<316 489> 630 73<316 412.5 297.5 460.5> 899 63<384.5 398.5>
VStem: 68 85<268.5 438 268.5 451.5> 431 67<852 871> 582 80<784 822> 635 85<260.5 424.5 247 430>
AnchorPoint: "Anchor-4" 585 694 basechar 0
AnchorPoint: "Anchor-3" 394 962 basechar 0
AnchorPoint: "Anchor-1" 394 347 basechar 0
AnchorPoint: "Anchor-0" 394 0 basechar 0
LayerCount: 2
Fore
SplineSet
386 739 m 1xbd
 371 781 l 1
 407 801 431 832 431 859 c 0
 431 883 412 899 385 899 c 0
 365 899 337 890 309 876 c 1
 290 930 l 1
 326 952 368 962 401 962 c 0
 461 962 498 929 498 878 c 0
 498 826 459 774 386 739 c 1xbd
386 -7 m 0
 195 -7 68 133 68 344 c 0
 68 559 199 703 396 703 c 0xbd
 429 703 460 699 489 691 c 1
 489 694 l 1xde
 545 695 582 746 582 822 c 1
 662 822 l 1xbe
 662 744 627 685 570 657 c 1
 664 600 720 493 720 356 c 0
 720 138 586 -7 386 -7 c 0
396 65 m 0
 539 65 635 177 635 344 c 0
 635 516 535 630 386 630 c 0
 246 630 153 520 153 356 c 0
 153 181 250 65 396 65 c 0
EndSplineSet
EndChar

StartChar: uni1EE0
Encoding: 7904 7904 147
Width: 788
GlyphClass: 2
Flags: MW
HStem: -7 72<323 467.5 323 486> 630 64<316 489> 630 73<316 412.5 297.5 460.5> 764 64<435 470.5 435 482.5> 815 66<316 349.5>
VStem: 68 85<268.5 438 268.5 451.5> 582 80<784 822> 635 85<260.5 424.5 247 430>
AnchorPoint: "Anchor-4" 585 694 basechar 0
AnchorPoint: "Anchor-3" 395 876 basechar 0
AnchorPoint: "Anchor-1" 394 347 basechar 0
AnchorPoint: "Anchor-0" 394 0 basechar 0
LayerCount: 2
Fore
SplineSet
272 762 m 1xad
 219 776 l 1xad
 239 848 284 881 332 881 c 0
 393 881 413 828 457 828 c 0
 484 828 506 848 517 883 c 1
 570 869 l 1xb5
 556 800 511 764 454 764 c 0
 387 764 370 815 329 815 c 0
 303 815 282 794 272 762 c 1xad
386 -7 m 0
 195 -7 68 133 68 344 c 0
 68 559 199 703 396 703 c 0xb5
 429 703 460 699 489 691 c 1
 489 694 l 1
 545 695 582 746 582 822 c 1
 662 822 l 1xd6
 662 744 627 685 570 657 c 1
 664 600 720 493 720 356 c 0
 720 138 586 -7 386 -7 c 0
396 65 m 0
 539 65 635 177 635 344 c 0
 635 516 535 630 386 630 c 0xb5
 246 630 153 520 153 356 c 0
 153 181 250 65 396 65 c 0
EndSplineSet
EndChar

StartChar: Ohungarumlaut
Encoding: 336 336 148
Width: 788
GlyphClass: 2
Flags: MW
HStem: -7 72<323 467.5 323 486> 630 73<316 460.5>
VStem: 68 85<268.5 438 268.5 451.5> 635 85<260.5 430>
AnchorPoint: "Anchor-4" 585 694 basechar 0
AnchorPoint: "Anchor-3" 394 926 basechar 0
AnchorPoint: "Anchor-1" 394 347 basechar 0
AnchorPoint: "Anchor-0" 394 0 basechar 0
LayerCount: 2
Fore
SplineSet
259 764 m 1
 220 800 l 1
 329 939 l 1
 389 885 l 1
 259 764 l 1
449 764 m 1
 410 800 l 1
 519 939 l 1
 579 885 l 1
 449 764 l 1
386 -7 m 0
 195 -7 68 133 68 344 c 0
 68 559 199 703 396 703 c 0
 590 703 720 564 720 356 c 0
 720 138 586 -7 386 -7 c 0
396 65 m 0
 539 65 635 177 635 344 c 0
 635 516 535 630 386 630 c 0
 246 630 153 520 153 356 c 0
 153 181 250 65 396 65 c 0
EndSplineSet
EndChar

StartChar: uni020E
Encoding: 526 526 149
Width: 788
GlyphClass: 2
Flags: MW
HStem: -7 72<323 467.5 323 486> 630 73<316 460.5> 862 65<365 413.5>
VStem: 68 85<268.5 438 268.5 451.5> 635 85<260.5 430>
AnchorPoint: "Anchor-4" 585 694 basechar 0
AnchorPoint: "Anchor-3" 394 908 basechar 0
AnchorPoint: "Anchor-1" 394 347 basechar 0
AnchorPoint: "Anchor-0" 394 0 basechar 0
LayerCount: 2
Fore
SplineSet
293 757 m 1
 254 783 l 1
 267 869 326 927 402 927 c 0
 475 927 535 874 548 795 c 1
 484 758 l 1
 477 820 438 862 389 862 c 0
 341 862 300 823 293 757 c 1
386 -7 m 0
 195 -7 68 133 68 344 c 0
 68 559 199 703 396 703 c 0
 590 703 720 564 720 356 c 0
 720 138 586 -7 386 -7 c 0
396 65 m 0
 539 65 635 177 635 344 c 0
 635 516 535 630 386 630 c 0
 246 630 153 520 153 356 c 0
 153 181 250 65 396 65 c 0
EndSplineSet
EndChar

StartChar: Omacron
Encoding: 332 332 150
Width: 788
GlyphClass: 2
Flags: MW
HStem: -7 72<323 467.5 323 486> 630 73<316 460.5> 788 66<237 550 237 550>
VStem: 68 85<268.5 438 268.5 451.5> 635 85<260.5 430>
AnchorPoint: "Anchor-4" 585 694 basechar 0
AnchorPoint: "Anchor-3" 394 857 basechar 0
AnchorPoint: "Anchor-1" 394 347 basechar 0
AnchorPoint: "Anchor-0" 394 0 basechar 0
LayerCount: 2
Fore
SplineSet
237 788 m 1
 237 854 l 1
 550 854 l 1
 550 788 l 1
 237 788 l 1
386 -7 m 0
 195 -7 68 133 68 344 c 0
 68 559 199 703 396 703 c 0
 590 703 720 564 720 356 c 0
 720 138 586 -7 386 -7 c 0
396 65 m 0
 539 65 635 177 635 344 c 0
 635 516 535 630 386 630 c 0
 246 630 153 520 153 356 c 0
 153 181 250 65 396 65 c 0
EndSplineSet
EndChar

StartChar: uni1E52
Encoding: 7762 7762 151
Width: 788
GlyphClass: 2
Flags: MW
HStem: -7 72<323 467.5 323 486> 630 73<316 460.5> 788 66<237 550 237 550>
VStem: 68 85<268.5 438 268.5 451.5> 635 85<260.5 430>
AnchorPoint: "Anchor-4" 585 694 basechar 0
AnchorPoint: "Anchor-3" 345 964 basechar 0
AnchorPoint: "Anchor-1" 394 347 basechar 0
AnchorPoint: "Anchor-0" 394 0 basechar 0
LayerCount: 2
Fore
SplineSet
378 907 m 1
 346 949 l 1
 492 1080 l 1
 542 1016 l 1
 378 907 l 1
237 788 m 1
 237 854 l 1
 550 854 l 1
 550 788 l 1
 237 788 l 1
386 -7 m 0
 195 -7 68 133 68 344 c 0
 68 559 199 703 396 703 c 0
 590 703 720 564 720 356 c 0
 720 138 586 -7 386 -7 c 0
396 65 m 0
 539 65 635 177 635 344 c 0
 635 516 535 630 386 630 c 0
 246 630 153 520 153 356 c 0
 153 181 250 65 396 65 c 0
EndSplineSet
EndChar

StartChar: uni1E50
Encoding: 7760 7760 152
Width: 788
GlyphClass: 2
Flags: MW
HStem: -7 72<323 467.5 323 486> 630 73<316 460.5> 788 66<237 550 237 550>
VStem: 68 85<268.5 438 268.5 451.5> 635 85<260.5 430>
AnchorPoint: "Anchor-4" 585 694 basechar 0
AnchorPoint: "Anchor-3" 443 964 basechar 0
AnchorPoint: "Anchor-1" 394 347 basechar 0
AnchorPoint: "Anchor-0" 394 0 basechar 0
LayerCount: 2
Fore
SplineSet
410 907 m 1
 246 1016 l 1
 296 1080 l 1
 442 949 l 1
 410 907 l 1
237 788 m 1
 237 854 l 1
 550 854 l 1
 550 788 l 1
 237 788 l 1
386 -7 m 0
 195 -7 68 133 68 344 c 0
 68 559 199 703 396 703 c 0
 590 703 720 564 720 356 c 0
 720 138 586 -7 386 -7 c 0
396 65 m 0
 539 65 635 177 635 344 c 0
 635 516 535 630 386 630 c 0
 246 630 153 520 153 356 c 0
 153 181 250 65 396 65 c 0
EndSplineSet
EndChar

StartChar: uni01EA
Encoding: 490 490 153
Width: 788
GlyphClass: 2
Flags: MW
HStem: -229 54<437 448.5> -7 72<323 391.5> 0 21G<508 508> 630 73<316 460.5>
VStem: 68 85<268.5 438 268.5 451.5> 330 71<-135.5 -105.5> 635 85<266.5 430>
AnchorPoint: "Anchor-4" 585 694 basechar 0
AnchorPoint: "Anchor-3" 394 694 basechar 0
AnchorPoint: "Anchor-1" 394 347 basechar 0
AnchorPoint: "Anchor-0" 394 0 basechar 0
LayerCount: 2
Fore
SplineSet
386 -7 m 0xde
 195 -7 68 133 68 344 c 0
 68 559 199 703 396 703 c 0
 590 703 720 564 720 356 c 0
 720 177 630 48 487 7 c 1
 508 0 l 1xbe
 444 -18 401 -65 401 -118 c 0
 401 -153 421 -175 453 -175 c 0
 467 -175 483 -171 497 -165 c 1
 503 -209 l 1
 486 -220 464 -229 433 -229 c 0
 369 -229 330 -192 330 -132 c 0
 330 -79 362 -33 417 -6 c 1
 407 -7 397 -7 386 -7 c 0xde
396 65 m 0
 539 65 635 177 635 344 c 0
 635 516 535 630 386 630 c 0
 246 630 153 520 153 356 c 0
 153 181 250 65 396 65 c 0
EndSplineSet
EndChar

StartChar: Oslash
Encoding: 216 216 154
Width: 788
GlyphClass: 2
Flags: MW
HStem: -7 72<371.5 467.5 371.5 486> 630 73<316 410.5> 722 20G<613 613>
VStem: 68 85<312 438 312 451.5> 635 85<260.5 387.5>
AnchorPoint: "Anchor-4" 585 694 basechar 0
AnchorPoint: "Anchor-3" 394 694 basechar 0
AnchorPoint: "Anchor-1" 394 347 basechar 0
AnchorPoint: "Anchor-0" 394 0 basechar 0
LayerCount: 2
Fore
SplineSet
174 -41 m 1
 123 -6 l 1
 174 71 l 1
 107 133 68 228 68 344 c 0
 68 559 199 703 396 703 c 0
 458 703 514 689 561 662 c 1
 613 742 l 1
 667 707 l 1
 613 625 l 1
 681 564 720 470 720 356 c 0
 720 138 586 -7 386 -7 c 0
 325 -7 270 8 224 34 c 1
 174 -41 l 1
153 356 m 0
 153 268 178 194 221 143 c 1
 516 594 l 1
 479 617 435 630 386 630 c 0
 246 630 153 520 153 356 c 0
396 65 m 0
 539 65 635 177 635 344 c 0
 635 431 610 503 565 553 c 1
 268 102 l 1
 304 78 347 65 396 65 c 0
EndSplineSet
EndChar

StartChar: Oslashacute
Encoding: 510 510 155
Width: 788
GlyphClass: 2
Flags: MW
HStem: -7 72<371.5 467.5 371.5 486> 630 73<316 410.5> 722 20G<613 613>
VStem: 68 85<312 438 312 451.5> 635 85<260.5 387.5>
AnchorPoint: "Anchor-4" 585 694 basechar 0
AnchorPoint: "Anchor-3" 345 801 basechar 0
AnchorPoint: "Anchor-1" 394 347 basechar 0
AnchorPoint: "Anchor-0" 394 0 basechar 0
LayerCount: 2
Fore
SplineSet
378 744 m 1
 346 786 l 1
 492 917 l 1
 542 853 l 1
 378 744 l 1
174 -41 m 1
 123 -6 l 1
 174 71 l 1
 107 133 68 228 68 344 c 0
 68 559 199 703 396 703 c 0
 458 703 514 689 561 662 c 1
 613 742 l 1
 667 707 l 1
 613 625 l 1
 681 564 720 470 720 356 c 0
 720 138 586 -7 386 -7 c 0
 325 -7 270 8 224 34 c 1
 174 -41 l 1
153 356 m 0
 153 268 178 194 221 143 c 1
 516 594 l 1
 479 617 435 630 386 630 c 0
 246 630 153 520 153 356 c 0
396 65 m 0
 539 65 635 177 635 344 c 0
 635 431 610 503 565 553 c 1
 268 102 l 1
 304 78 347 65 396 65 c 0
EndSplineSet
EndChar

StartChar: Otilde
Encoding: 213 213 156
Width: 788
GlyphClass: 2
Flags: MW
HStem: -7 72<323 467.5 323 486> 630 73<316 460.5> 764 64<435 470.5 435 482.5> 815 66<316 349.5>
VStem: 68 85<268.5 438 268.5 451.5> 635 85<260.5 430>
AnchorPoint: "Anchor-4" 585 694 basechar 0
AnchorPoint: "Anchor-3" 395 876 basechar 0
AnchorPoint: "Anchor-1" 394 347 basechar 0
AnchorPoint: "Anchor-0" 394 0 basechar 0
LayerCount: 2
Fore
SplineSet
272 762 m 1xdc
 219 776 l 1xdc
 239 848 284 881 332 881 c 0
 393 881 413 828 457 828 c 0
 484 828 506 848 517 883 c 1
 570 869 l 1xec
 556 800 511 764 454 764 c 0
 387 764 370 815 329 815 c 0
 303 815 282 794 272 762 c 1xdc
386 -7 m 0
 195 -7 68 133 68 344 c 0
 68 559 199 703 396 703 c 0
 590 703 720 564 720 356 c 0
 720 138 586 -7 386 -7 c 0
396 65 m 0
 539 65 635 177 635 344 c 0
 635 516 535 630 386 630 c 0
 246 630 153 520 153 356 c 0
 153 181 250 65 396 65 c 0
EndSplineSet
EndChar

StartChar: uni1E4C
Encoding: 7756 7756 157
Width: 788
GlyphClass: 2
Flags: MW
HStem: -7 72<323 467.5 323 486> 630 73<316 460.5> 764 64<435 470.5 435 482.5> 815 66<316 349.5>
VStem: 68 85<268.5 438 268.5 451.5> 635 85<260.5 430>
AnchorPoint: "Anchor-4" 585 694 basechar 0
AnchorPoint: "Anchor-3" 346 983 basechar 0
AnchorPoint: "Anchor-1" 394 347 basechar 0
AnchorPoint: "Anchor-0" 394 0 basechar 0
LayerCount: 2
Fore
SplineSet
379 926 m 1xec
 347 968 l 1
 493 1099 l 1
 543 1035 l 1
 379 926 l 1xec
272 762 m 1xdc
 219 776 l 1xdc
 239 848 284 881 332 881 c 0
 393 881 413 828 457 828 c 0
 484 828 506 848 517 883 c 1
 570 869 l 1xec
 556 800 511 764 454 764 c 0
 387 764 370 815 329 815 c 0
 303 815 282 794 272 762 c 1xdc
386 -7 m 0
 195 -7 68 133 68 344 c 0
 68 559 199 703 396 703 c 0
 590 703 720 564 720 356 c 0
 720 138 586 -7 386 -7 c 0
396 65 m 0
 539 65 635 177 635 344 c 0
 635 516 535 630 386 630 c 0
 246 630 153 520 153 356 c 0
 153 181 250 65 396 65 c 0
EndSplineSet
EndChar

StartChar: uni1E4E
Encoding: 7758 7758 158
Width: 788
GlyphClass: 2
Flags: MW
HStem: -7 72<323 467.5 323 486> 630 73<316 460.5> 764 64<435 470.5 435 482.5> 815 66<316 349.5> 959 114<274 310 474 510>
VStem: 68 85<268.5 438 268.5 451.5> 235 114<998 1034> 435 114<998 1034> 635 85<260.5 430>
AnchorPoint: "Anchor-4" 585 694 basechar 0
AnchorPoint: "Anchor-3" 395 1038 basechar 0
AnchorPoint: "Anchor-1" 394 347 basechar 0
AnchorPoint: "Anchor-0" 394 0 basechar 0
LayerCount: 2
Fore
SplineSet
292 959 m 0xef80
 256 959 235 980 235 1016 c 0
 235 1052 256 1073 292 1073 c 0
 328 1073 349 1052 349 1016 c 0
 349 980 328 959 292 959 c 0xef80
492 959 m 0
 456 959 435 980 435 1016 c 0
 435 1052 456 1073 492 1073 c 0
 528 1073 549 1052 549 1016 c 0
 549 980 528 959 492 959 c 0
272 762 m 1xdf80
 219 776 l 1xdf80
 239 848 284 881 332 881 c 0
 393 881 413 828 457 828 c 0
 484 828 506 848 517 883 c 1
 570 869 l 1xef80
 556 800 511 764 454 764 c 0
 387 764 370 815 329 815 c 0
 303 815 282 794 272 762 c 1xdf80
386 -7 m 0
 195 -7 68 133 68 344 c 0
 68 559 199 703 396 703 c 0
 590 703 720 564 720 356 c 0
 720 138 586 -7 386 -7 c 0
396 65 m 0
 539 65 635 177 635 344 c 0
 635 516 535 630 386 630 c 0
 246 630 153 520 153 356 c 0
 153 181 250 65 396 65 c 0
EndSplineSet
EndChar

StartChar: uni022C
Encoding: 556 556 159
Width: 788
GlyphClass: 2
Flags: MW
HStem: -7 72<323 467.5 323 486> 630 73<316 460.5> 764 64<435 470.5 435 482.5> 815 66<316 349.5> 970 66<238 551 238 551>
VStem: 68 85<268.5 438 268.5 451.5> 635 85<260.5 430>
AnchorPoint: "Anchor-4" 585 694 basechar 0
AnchorPoint: "Anchor-3" 395 1039 basechar 0
AnchorPoint: "Anchor-1" 394 347 basechar 0
AnchorPoint: "Anchor-0" 394 0 basechar 0
LayerCount: 2
Fore
SplineSet
238 970 m 1xee
 238 1036 l 1
 551 1036 l 1
 551 970 l 1
 238 970 l 1xee
272 762 m 1xde
 219 776 l 1xde
 239 848 284 881 332 881 c 0
 393 881 413 828 457 828 c 0
 484 828 506 848 517 883 c 1
 570 869 l 1xee
 556 800 511 764 454 764 c 0
 387 764 370 815 329 815 c 0
 303 815 282 794 272 762 c 1xde
386 -7 m 0
 195 -7 68 133 68 344 c 0
 68 559 199 703 396 703 c 0
 590 703 720 564 720 356 c 0
 720 138 586 -7 386 -7 c 0
396 65 m 0
 539 65 635 177 635 344 c 0
 635 516 535 630 386 630 c 0
 246 630 153 520 153 356 c 0
 153 181 250 65 396 65 c 0
EndSplineSet
EndChar

StartChar: OE
Encoding: 338 338 160
Width: 1018
GlyphClass: 2
Flags: MW
HStem: -7 72<336.5 433> 0 72<602 955 602 955> 323 72<602 928 602 928> 622 72<602 955 602 602> 630 73<329 429.5>
VStem: 68 85<266.5 440 266.5 453.5> 519 83<0 323 76 323 395 615 615 615>
AnchorPoint: "Anchor-3" 569 694 basechar 0
AnchorPoint: "Anchor-0" 569 0 basechar 0
LayerCount: 2
Fore
SplineSet
417 -7 m 0xb6
 195 -7 68 127 68 343 c 0
 68 564 201 703 418 703 c 0x6e
 454 703 499 699 532 694 c 1
 955 694 l 1
 955 622 l 1
 602 622 l 1
 602 395 l 1
 928 395 l 1
 928 323 l 1
 602 323 l 1
 602 72 l 1
 955 72 l 1
 955 0 l 1
 519 0 l 1x76
 488 -4 449 -7 417 -7 c 0xb6
153 355 m 0
 153 178 256 65 417 65 c 0
 457 65 496 70 519 76 c 1
 519 615 l 1
 492 626 450 630 409 630 c 0xae
 249 630 153 525 153 355 c 0
EndSplineSet
EndChar

StartChar: P
Encoding: 80 80 161
Width: 624
GlyphClass: 2
Flags: MW
HStem: 0 21G<106 106 106 189> 242 72<189 307 189 322> 622 72<189 312 189 189>
VStem: 106 83<0 242 0 314 314 622> 481 85<411 507>
AnchorPoint: "Anchor-3" 307 694 basechar 0
AnchorPoint: "Anchor-0" 307 0 basechar 0
LayerCount: 2
Fore
SplineSet
106 0 m 1
 106 694 l 1
 322 694 l 2
 468 694 566 606 566 473 c 0
 566 334 462 242 307 242 c 2
 189 242 l 1
 189 0 l 1
 106 0 l 1
312 622 m 2
 189 622 l 1
 189 314 l 1
 322 314 l 2
 425 314 481 364 481 458 c 0
 481 556 413 622 312 622 c 2
EndSplineSet
EndChar

StartChar: Thorn
Encoding: 222 222 162
Width: 624
Flags: MW
HStem: 0 21G<106 106 106 189> 139 72<189 312 189 322> 519 72<189 312 189 322> 519 175<106 312 106 189>
VStem: 106 83<0 139 0 211 211 519 591 694> 481 85<308 405.5>
LayerCount: 2
Fore
SplineSet
106 0 m 1xdc
 106 694 l 1
 189 694 l 1xdc
 189 591 l 1
 322 591 l 2xec
 467 591 566 499 566 365 c 0
 566 229 465 139 312 139 c 2
 189 139 l 1
 189 0 l 1
 106 0 l 1xdc
312 519 m 2
 189 519 l 1
 189 211 l 1
 322 211 l 2
 425 211 481 261 481 355 c 0
 481 456 416 519 312 519 c 2
EndSplineSet
EndChar

StartChar: Q
Encoding: 81 81 163
Width: 788
GlyphClass: 2
Flags: MW
HStem: -7 72<323 424 323 426.5> 630 73<316 460.5>
VStem: 68 85<268.5 438 268.5 451.5> 635 85<308 430>
AnchorPoint: "Anchor-4" 585 694 basechar 0
AnchorPoint: "Anchor-3" 394 694 basechar 0
AnchorPoint: "Anchor-1" 394 347 basechar 0
AnchorPoint: "Anchor-0" 394 0 basechar 0
LayerCount: 2
Fore
SplineSet
386 -7 m 0
 195 -7 68 133 68 344 c 0
 68 559 199 703 396 703 c 0
 590 703 720 564 720 356 c 0
 720 256 692 171 642 109 c 1
 737 16 l 1
 687 -34 l 1
 592 60 l 1
 537 17 467 -7 386 -7 c 0
396 65 m 0
 452 65 500 82 539 112 c 1
 387 262 l 1
 433 311 l 1
 585 163 l 1
 617 210 635 272 635 344 c 0
 635 516 535 630 386 630 c 0
 246 630 153 520 153 356 c 0
 153 181 250 65 396 65 c 0
EndSplineSet
EndChar

StartChar: R
Encoding: 82 82 164
Width: 655
GlyphClass: 2
Flags: MW
HStem: 0 21G<106 106 106 189 509 509 509 608> 281 70<189 326 189 336> 622 72<189 326 189 189>
VStem: 106 83<0 281 0 351 351 622> 483 85<453.5 528>
AnchorPoint: "Anchor-3" 323 694 basechar 0
AnchorPoint: "Anchor-0" 323 0 basechar 0
LayerCount: 2
Fore
SplineSet
106 0 m 1
 106 694 l 1
 336 694 l 2
 478 694 568 622 568 500 c 0
 568 407 516 333 432 300 c 1
 608 0 l 1
 509 0 l 1
 348 282 l 1
 340 281 333 281 326 281 c 2
 189 281 l 1
 189 0 l 1
 106 0 l 1
326 622 m 2
 189 622 l 1
 189 351 l 1
 336 351 l 2
 431 351 483 400 483 485 c 0
 483 571 425 622 326 622 c 2
EndSplineSet
EndChar

StartChar: Racute
Encoding: 340 340 165
Width: 655
GlyphClass: 2
Flags: MW
HStem: 0 21G<106 106 106 189 509 509 509 608> 281 70<189 326 189 336> 622 72<189 326 189 189>
VStem: 106 83<0 281 0 351 351 622> 483 85<453.5 528>
AnchorPoint: "Anchor-3" 274 801 basechar 0
AnchorPoint: "Anchor-0" 323 0 basechar 0
LayerCount: 2
Fore
SplineSet
307 744 m 1
 275 786 l 1
 421 917 l 1
 471 853 l 1
 307 744 l 1
106 0 m 1
 106 694 l 1
 336 694 l 2
 478 694 568 622 568 500 c 0
 568 407 516 333 432 300 c 1
 608 0 l 1
 509 0 l 1
 348 282 l 1
 340 281 333 281 326 281 c 2
 189 281 l 1
 189 0 l 1
 106 0 l 1
326 622 m 2
 189 622 l 1
 189 351 l 1
 336 351 l 2
 431 351 483 400 483 485 c 0
 483 571 425 622 326 622 c 2
EndSplineSet
EndChar

StartChar: Rcaron
Encoding: 344 344 166
Width: 655
GlyphClass: 2
Flags: MW
HStem: 0 21G<106 106 106 189 509 509 509 608> 281 70<189 326 189 336> 622 72<189 326 189 189>
VStem: 106 83<0 281 0 351 351 622> 483 85<453.5 528>
AnchorPoint: "Anchor-3" 323 836 basechar 0
AnchorPoint: "Anchor-0" 323 0 basechar 0
LayerCount: 2
Fore
SplineSet
303 754 m 1
 173 880 l 1
 222 922 l 1
 327 822 l 1
 439 923 l 1
 473 893 l 1
 346 754 l 1
 303 754 l 1
106 0 m 1
 106 694 l 1
 336 694 l 2
 478 694 568 622 568 500 c 0
 568 407 516 333 432 300 c 1
 608 0 l 1
 509 0 l 1
 348 282 l 1
 340 281 333 281 326 281 c 2
 189 281 l 1
 189 0 l 1
 106 0 l 1
326 622 m 2
 189 622 l 1
 189 351 l 1
 336 351 l 2
 431 351 483 400 483 485 c 0
 483 571 425 622 326 622 c 2
EndSplineSet
EndChar

StartChar: uni0156
Encoding: 342 342 167
Width: 655
GlyphClass: 2
Flags: MW
HStem: -227 162<256 360 285 311> 0 21G<106 106 106 189 509 509 509 608> 281 70<189 326 189 336> 622 72<189 326 189 189>
VStem: 106 83<0 281 0 351 351 622> 285 75<-97 -65 -97 -65> 483 85<453.5 528>
AnchorPoint: "Anchor-3" 323 694 basechar 0
AnchorPoint: "Anchor-0" 323 -231 basechar 0
LayerCount: 2
Fore
SplineSet
106 0 m 1
 106 694 l 1
 336 694 l 2
 478 694 568 622 568 500 c 0
 568 407 516 333 432 300 c 1
 608 0 l 1
 509 0 l 1
 348 282 l 1
 340 281 333 281 326 281 c 2
 189 281 l 1
 189 0 l 1
 106 0 l 1
326 622 m 2
 189 622 l 1
 189 351 l 1
 336 351 l 2
 431 351 483 400 483 485 c 0
 483 571 425 622 326 622 c 2
256 -227 m 1
 274 -194 285 -132 285 -65 c 1
 360 -65 l 1
 360 -129 344 -181 311 -227 c 1
 256 -227 l 1
EndSplineSet
EndChar

StartChar: uni0210
Encoding: 528 528 168
Width: 655
GlyphClass: 2
Flags: MW
HStem: 0 21G<106 106 106 189 509 509 509 608> 281 70<189 326 189 336> 622 72<189 326 189 189>
VStem: 106 83<0 281 0 351 351 622> 483 85<453.5 528>
AnchorPoint: "Anchor-3" 323 926 basechar 0
AnchorPoint: "Anchor-0" 323 0 basechar 0
LayerCount: 2
Fore
SplineSet
458 764 m 1
 328 885 l 1
 388 939 l 1
 497 800 l 1
 458 764 l 1
268 764 m 1
 138 885 l 1
 198 939 l 1
 307 800 l 1
 268 764 l 1
106 0 m 1
 106 694 l 1
 336 694 l 2
 478 694 568 622 568 500 c 0
 568 407 516 333 432 300 c 1
 608 0 l 1
 509 0 l 1
 348 282 l 1
 340 281 333 281 326 281 c 2
 189 281 l 1
 189 0 l 1
 106 0 l 1
326 622 m 2
 189 622 l 1
 189 351 l 1
 336 351 l 2
 431 351 483 400 483 485 c 0
 483 571 425 622 326 622 c 2
EndSplineSet
EndChar

StartChar: uni1E5A
Encoding: 7770 7770 169
Width: 655
GlyphClass: 2
Flags: MW
HStem: -195 114<305 341> 0 21G<106 106 106 189 509 509 509 608> 281 70<189 326 189 336> 622 72<189 326 189 189>
VStem: 106 83<0 281 0 351 351 622> 266 114<-156 -120> 483 85<453.5 528>
AnchorPoint: "Anchor-3" 323 694 basechar 0
AnchorPoint: "Anchor-0" 323 -205 basechar 0
LayerCount: 2
Fore
SplineSet
106 0 m 1
 106 694 l 1
 336 694 l 2
 478 694 568 622 568 500 c 0
 568 407 516 333 432 300 c 1
 608 0 l 1
 509 0 l 1
 348 282 l 1
 340 281 333 281 326 281 c 2
 189 281 l 1
 189 0 l 1
 106 0 l 1
326 622 m 2
 189 622 l 1
 189 351 l 1
 336 351 l 2
 431 351 483 400 483 485 c 0
 483 571 425 622 326 622 c 2
323 -195 m 0
 287 -195 266 -174 266 -138 c 0
 266 -102 287 -81 323 -81 c 0
 359 -81 380 -102 380 -138 c 0
 380 -174 359 -195 323 -195 c 0
EndSplineSet
EndChar

StartChar: uni0212
Encoding: 530 530 170
Width: 655
GlyphClass: 2
Flags: MW
HStem: 0 21G<106 106 106 189 509 509 509 608> 281 70<189 326 189 336> 622 72<189 326 189 189> 862 65<294 342.5>
VStem: 106 83<0 281 0 351 351 622> 483 85<453.5 528>
AnchorPoint: "Anchor-3" 323 908 basechar 0
AnchorPoint: "Anchor-0" 323 0 basechar 0
LayerCount: 2
Fore
SplineSet
222 757 m 1
 183 783 l 1
 196 869 255 927 331 927 c 0
 404 927 464 874 477 795 c 1
 413 758 l 1
 406 820 367 862 318 862 c 0
 270 862 229 823 222 757 c 1
106 0 m 1
 106 694 l 1
 336 694 l 2
 478 694 568 622 568 500 c 0
 568 407 516 333 432 300 c 1
 608 0 l 1
 509 0 l 1
 348 282 l 1
 340 281 333 281 326 281 c 2
 189 281 l 1
 189 0 l 1
 106 0 l 1
326 622 m 2
 189 622 l 1
 189 351 l 1
 336 351 l 2
 431 351 483 400 483 485 c 0
 483 571 425 622 326 622 c 2
EndSplineSet
EndChar

StartChar: uni1E5E
Encoding: 7774 7774 171
Width: 655
GlyphClass: 2
Flags: MW
HStem: -171 65<166 479 166 479> 0 21G<106 106 106 189 509 509 509 608> 281 70<189 326 189 336> 622 72<189 326 189 189>
VStem: 106 83<0 281 0 351 351 622> 483 85<453.5 528>
AnchorPoint: "Anchor-3" 323 694 basechar 0
AnchorPoint: "Anchor-0" 323 -172 basechar 0
LayerCount: 2
Fore
SplineSet
106 0 m 1
 106 694 l 1
 336 694 l 2
 478 694 568 622 568 500 c 0
 568 407 516 333 432 300 c 1
 608 0 l 1
 509 0 l 1
 348 282 l 1
 340 281 333 281 326 281 c 2
 189 281 l 1
 189 0 l 1
 106 0 l 1
326 622 m 2
 189 622 l 1
 189 351 l 1
 336 351 l 2
 431 351 483 400 483 485 c 0
 483 571 425 622 326 622 c 2
166 -171 m 1
 166 -106 l 1
 479 -106 l 1
 479 -171 l 1
 166 -171 l 1
EndSplineSet
EndChar

StartChar: S
Encoding: 83 83 172
Width: 606
GlyphClass: 2
Flags: MW
HStem: -10 74<263.5 347.5 263.5 367.5> 631 72<269 351.5>
VStem: 72 85<428.5 554.5 428.5 565.5> 460 86<144 267.5>
AnchorPoint: "Anchor-3" 300 694 basechar 0
AnchorPoint: "Anchor-0" 300 0 basechar 0
LayerCount: 2
Fore
SplineSet
290 -10 m 0
 216 -10 138 9 61 44 c 1
 86 109 l 1
 154 81 232 64 295 64 c 0
 400 64 460 109 460 179 c 0
 460 356 72 267 72 505 c 0
 72 626 173 703 328 703 c 0
 394 703 461 689 520 663 c 1
 495 598 l 1
 445 619 381 631 322 631 c 0
 216 631 157 591 157 518 c 0
 157 339 546 437 546 191 c 0
 546 69 445 -10 290 -10 c 0
EndSplineSet
EndChar

StartChar: Sacute
Encoding: 346 346 173
Width: 606
GlyphClass: 2
Flags: MW
HStem: -10 74<263.5 347.5 263.5 367.5> 631 72<269 351.5>
VStem: 72 85<428.5 554.5 428.5 565.5> 460 86<144 267.5>
AnchorPoint: "Anchor-3" 251 801 basechar 0
AnchorPoint: "Anchor-0" 300 0 basechar 0
LayerCount: 2
Fore
SplineSet
284 744 m 1
 252 786 l 1
 398 917 l 1
 448 853 l 1
 284 744 l 1
290 -10 m 0
 216 -10 138 9 61 44 c 1
 86 109 l 1
 154 81 232 64 295 64 c 0
 400 64 460 109 460 179 c 0
 460 356 72 267 72 505 c 0
 72 626 173 703 328 703 c 0
 394 703 461 689 520 663 c 1
 495 598 l 1
 445 619 381 631 322 631 c 0
 216 631 157 591 157 518 c 0
 157 339 546 437 546 191 c 0
 546 69 445 -10 290 -10 c 0
EndSplineSet
EndChar

StartChar: uni1E64
Encoding: 7780 7780 174
Width: 606
GlyphClass: 2
Flags: MW
HStem: -10 74<263.5 347.5 263.5 367.5> 631 72<269 351.5> 885 114<230 266>
VStem: 72 85<428.5 554.5 428.5 565.5> 191 114<924 960> 460 86<144 267.5>
AnchorPoint: "Anchor-3" 251 963 basechar 0
AnchorPoint: "Anchor-0" 300 0 basechar 0
LayerCount: 2
Fore
SplineSet
248 885 m 0
 212 885 191 906 191 942 c 0
 191 978 212 999 248 999 c 0
 284 999 305 978 305 942 c 0
 305 906 284 885 248 885 c 0
284 744 m 1
 252 786 l 1
 398 917 l 1
 448 853 l 1
 284 744 l 1
290 -10 m 0
 216 -10 138 9 61 44 c 1
 86 109 l 1
 154 81 232 64 295 64 c 0
 400 64 460 109 460 179 c 0
 460 356 72 267 72 505 c 0
 72 626 173 703 328 703 c 0
 394 703 461 689 520 663 c 1
 495 598 l 1
 445 619 381 631 322 631 c 0
 216 631 157 591 157 518 c 0
 157 339 546 437 546 191 c 0
 546 69 445 -10 290 -10 c 0
EndSplineSet
EndChar

StartChar: uniA78B
Encoding: 42891 42891 175
Width: 261
Flags: MW
HStem: 674 20G<85 176 176 176>
VStem: 90.5 80
LayerCount: 2
Fore
SplineSet
96 192 m 1
 85 694 l 1
 176 694 l 1
 165 192 l 1
 96 192 l 1
EndSplineSet
EndChar

StartChar: Scaron
Encoding: 352 352 176
Width: 606
GlyphClass: 2
Flags: MW
HStem: -10 74<263.5 347.5 263.5 367.5> 631 72<269 351.5>
VStem: 72 85<428.5 554.5 428.5 565.5> 460 86<144 267.5>
AnchorPoint: "Anchor-3" 300 836 basechar 0
AnchorPoint: "Anchor-0" 300 0 basechar 0
LayerCount: 2
Fore
SplineSet
280 754 m 1
 150 880 l 1
 199 922 l 1
 304 822 l 1
 416 923 l 1
 450 893 l 1
 323 754 l 1
 280 754 l 1
290 -10 m 0
 216 -10 138 9 61 44 c 1
 86 109 l 1
 154 81 232 64 295 64 c 0
 400 64 460 109 460 179 c 0
 460 356 72 267 72 505 c 0
 72 626 173 703 328 703 c 0
 394 703 461 689 520 663 c 1
 495 598 l 1
 445 619 381 631 322 631 c 0
 216 631 157 591 157 518 c 0
 157 339 546 437 546 191 c 0
 546 69 445 -10 290 -10 c 0
EndSplineSet
EndChar

StartChar: uni1E66
Encoding: 7782 7782 177
Width: 606
GlyphClass: 2
Flags: MW
HStem: -10 74<263.5 347.5 263.5 367.5> 631 72<269 351.5> 920 114<279 315>
VStem: 72 85<428.5 554.5 428.5 565.5> 240 114<959 995> 460 86<144 267.5>
AnchorPoint: "Anchor-3" 300 998 basechar 0
AnchorPoint: "Anchor-0" 300 0 basechar 0
LayerCount: 2
Fore
SplineSet
297 920 m 0
 261 920 240 941 240 977 c 0
 240 1013 261 1034 297 1034 c 0
 333 1034 354 1013 354 977 c 0
 354 941 333 920 297 920 c 0
280 754 m 1
 150 880 l 1
 199 922 l 1
 304 822 l 1
 416 923 l 1
 450 893 l 1
 323 754 l 1
 280 754 l 1
290 -10 m 0
 216 -10 138 9 61 44 c 1
 86 109 l 1
 154 81 232 64 295 64 c 0
 400 64 460 109 460 179 c 0
 460 356 72 267 72 505 c 0
 72 626 173 703 328 703 c 0
 394 703 461 689 520 663 c 1
 495 598 l 1
 445 619 381 631 322 631 c 0
 216 631 157 591 157 518 c 0
 157 339 546 437 546 191 c 0
 546 69 445 -10 290 -10 c 0
EndSplineSet
EndChar

StartChar: Scedilla
Encoding: 350 350 178
Width: 606
GlyphClass: 2
Flags: MW
HStem: -227 21G<278.5 335.5> -227 55<287.5 322 287.5 335.5> -89 44 -9 73<267 267 322 322> 631 72<269 351.5>
VStem: 72 85<428.5 554.5 428.5 565.5> 357 71<-152.5 -126.5> 460 86<144 267.5>
AnchorPoint: "Anchor-3" 300 694 basechar 0
AnchorPoint: "Anchor-0" 409 -230 basechar 0
LayerCount: 2
Fore
SplineSet
296 -227 m 0x7f
 261 -227 228 -220 202 -207 c 1xbf
 219 -155 l 1
 243 -166 272 -172 303 -172 c 0
 341 -172 357 -163 357 -142 c 0
 357 -111 322 -94 248 -89 c 1
 267 -9 l 1
 200 -6 130 13 61 44 c 1
 86 109 l 1
 154 81 232 64 295 64 c 0
 400 64 460 109 460 179 c 0
 460 356 72 267 72 505 c 0
 72 626 173 703 328 703 c 0
 394 703 461 689 520 663 c 1
 495 598 l 1
 445 619 381 631 322 631 c 0
 216 631 157 591 157 518 c 0
 157 339 546 437 546 191 c 0
 546 78 459 1 322 -9 c 1
 314 -45 l 1
 385 -50 428 -83 428 -132 c 0
 428 -189 375 -227 296 -227 c 0x7f
EndSplineSet
Substitution2: "'locl' Localized Forms in Latin lookup 18 subtable" uni0218
Substitution2: "'locl' Localized Forms in Latin lookup 17 subtable" uni0218
Substitution2: "'aalt' Access All Alternates in Latin lookup 0 subtable" uni0218
EndChar

StartChar: Scircumflex
Encoding: 348 348 179
Width: 606
GlyphClass: 2
Flags: MW
HStem: -10 74<263.5 347.5 263.5 367.5> 631 72<269 351.5>
VStem: 72 85<428.5 554.5 428.5 565.5> 460 86<144 267.5>
AnchorPoint: "Anchor-3" 300 852 basechar 0
AnchorPoint: "Anchor-0" 300 0 basechar 0
LayerCount: 2
Fore
SplineSet
157 782 m 1
 285 923 l 1
 328 923 l 1
 455 796 l 1
 411 754 l 1
 302 852 l 1
 192 754 l 1
 157 782 l 1
290 -10 m 0
 216 -10 138 9 61 44 c 1
 86 109 l 1
 154 81 232 64 295 64 c 0
 400 64 460 109 460 179 c 0
 460 356 72 267 72 505 c 0
 72 626 173 703 328 703 c 0
 394 703 461 689 520 663 c 1
 495 598 l 1
 445 619 381 631 322 631 c 0
 216 631 157 591 157 518 c 0
 157 339 546 437 546 191 c 0
 546 69 445 -10 290 -10 c 0
EndSplineSet
EndChar

StartChar: uni0218
Encoding: 536 536 180
Width: 606
GlyphClass: 2
Flags: MW
HStem: -227 162<233 337 262 288> -10 74<263.5 347.5 263.5 367.5> 631 72<269 351.5>
VStem: 72 85<428.5 554.5 428.5 565.5> 262 75<-97 -65 -97 -65> 460 86<144 267.5>
AnchorPoint: "Anchor-3" 300 694 basechar 0
AnchorPoint: "Anchor-0" 300 -231 basechar 0
LayerCount: 2
Fore
SplineSet
290 -10 m 0
 216 -10 138 9 61 44 c 1
 86 109 l 1
 154 81 232 64 295 64 c 0
 400 64 460 109 460 179 c 0
 460 356 72 267 72 505 c 0
 72 626 173 703 328 703 c 0
 394 703 461 689 520 663 c 1
 495 598 l 1
 445 619 381 631 322 631 c 0
 216 631 157 591 157 518 c 0
 157 339 546 437 546 191 c 0
 546 69 445 -10 290 -10 c 0
233 -227 m 1
 251 -194 262 -132 262 -65 c 1
 337 -65 l 1
 337 -129 321 -181 288 -227 c 1
 233 -227 l 1
EndSplineSet
EndChar

StartChar: uni1E60
Encoding: 7776 7776 181
Width: 606
GlyphClass: 2
Flags: MW
HStem: -10 74<263.5 347.5 263.5 367.5> 631 72<269 351.5> 778 114<279 315>
VStem: 72 85<428.5 554.5 428.5 565.5> 240 114<817 853> 460 86<144 267.5>
AnchorPoint: "Anchor-3" 300 856 basechar 0
AnchorPoint: "Anchor-0" 300 0 basechar 0
LayerCount: 2
Fore
SplineSet
297 778 m 0
 261 778 240 799 240 835 c 0
 240 871 261 892 297 892 c 0
 333 892 354 871 354 835 c 0
 354 799 333 778 297 778 c 0
290 -10 m 0
 216 -10 138 9 61 44 c 1
 86 109 l 1
 154 81 232 64 295 64 c 0
 400 64 460 109 460 179 c 0
 460 356 72 267 72 505 c 0
 72 626 173 703 328 703 c 0
 394 703 461 689 520 663 c 1
 495 598 l 1
 445 619 381 631 322 631 c 0
 216 631 157 591 157 518 c 0
 157 339 546 437 546 191 c 0
 546 69 445 -10 290 -10 c 0
EndSplineSet
EndChar

StartChar: uni1E62
Encoding: 7778 7778 182
Width: 606
GlyphClass: 2
Flags: MW
HStem: -195 114<282 318> -10 74<263.5 347.5 263.5 367.5> 631 72<269 351.5>
VStem: 72 85<428.5 554.5 428.5 565.5> 243 114<-156 -120> 460 86<144 267.5>
AnchorPoint: "Anchor-3" 300 694 basechar 0
AnchorPoint: "Anchor-0" 300 -205 basechar 0
LayerCount: 2
Fore
SplineSet
290 -10 m 0
 216 -10 138 9 61 44 c 1
 86 109 l 1
 154 81 232 64 295 64 c 0
 400 64 460 109 460 179 c 0
 460 356 72 267 72 505 c 0
 72 626 173 703 328 703 c 0
 394 703 461 689 520 663 c 1
 495 598 l 1
 445 619 381 631 322 631 c 0
 216 631 157 591 157 518 c 0
 157 339 546 437 546 191 c 0
 546 69 445 -10 290 -10 c 0
300 -195 m 0
 264 -195 243 -174 243 -138 c 0
 243 -102 264 -81 300 -81 c 0
 336 -81 357 -102 357 -138 c 0
 357 -174 336 -195 300 -195 c 0
EndSplineSet
EndChar

StartChar: uni1E68
Encoding: 7784 7784 183
Width: 606
GlyphClass: 2
Flags: MW
HStem: -195 114<282 318> -10 74<263.5 347.5 263.5 367.5> 631 72<269 351.5> 778 114<279 315>
VStem: 72 85<428.5 554.5 428.5 565.5> 240 114<817 853> 243 114<-156 -120> 460 86<144 267.5>
AnchorPoint: "Anchor-3" 300 856 basechar 0
AnchorPoint: "Anchor-0" 300 -205 basechar 0
LayerCount: 2
Fore
SplineSet
297 778 m 0x7d
 261 778 240 799 240 835 c 0
 240 871 261 892 297 892 c 0
 333 892 354 871 354 835 c 0
 354 799 333 778 297 778 c 0x7d
290 -10 m 0
 216 -10 138 9 61 44 c 1
 86 109 l 1
 154 81 232 64 295 64 c 0
 400 64 460 109 460 179 c 0
 460 356 72 267 72 505 c 0
 72 626 173 703 328 703 c 0
 394 703 461 689 520 663 c 1
 495 598 l 1
 445 619 381 631 322 631 c 0
 216 631 157 591 157 518 c 0
 157 339 546 437 546 191 c 0
 546 69 445 -10 290 -10 c 0
300 -195 m 0xfb
 264 -195 243 -174 243 -138 c 0
 243 -102 264 -81 300 -81 c 0
 336 -81 357 -102 357 -138 c 0
 357 -174 336 -195 300 -195 c 0xfb
EndSplineSet
EndChar

StartChar: uni1E9E
Encoding: 7838 7838 184
Width: 721
Flags: MW
HStem: -10 73<433 493.5 433 513.5> 0 21G<95 178 95 95> 631 73<305.5 399.5>
VStem: 95 83<0 468 0 539> 579 85<136.5 213>
LayerCount: 2
Fore
SplineSet
449 -10 m 0xb8
 394 -10 338 3 294 26 c 1
 319 91 l 1
 359 74 412 63 454 63 c 0xb8
 533 63 579 102 579 171 c 0
 579 255 510 312 385 332 c 1
 520 565 l 1
 497 605 436 631 363 631 c 0
 248 631 178 566 178 468 c 2
 178 0 l 1
 95 0 l 1x78
 95 468 l 2
 95 610 203 704 368 704 c 0
 485 704 581 657 614 583 c 1
 495 382 l 1
 606 352 664 275 664 181 c 0
 664 66 578 -10 449 -10 c 0xb8
EndSplineSet
EndChar

StartChar: uni018F
Encoding: 399 399 185
Width: 748
GlyphClass: 2
Flags: MW
HStem: -10 73<294 433 294 452.5> 300 68<142 594 69 595 142 142> 627 73<280.5 393>
VStem: 65 77<224 300 224 301.5> 594 87<368 368> 595 86<300 300>
AnchorPoint: "Anchor-3" 371 694 basechar 0
AnchorPoint: "Anchor-0" 371 0 basechar 0
LayerCount: 2
Fore
SplineSet
324 700 m 0xf4
 543 700 681 566 681 347 c 0xf4
 681 132 548 -10 357 -10 c 0
 181 -10 65 111 65 291 c 0
 65 312 67 345 69 368 c 1
 594 368 l 1xf8
 581 535 476 627 310 627 c 0
 242 627 172 610 108 579 c 1
 89 640 l 1
 159 680 237 700 324 700 c 0xf4
364 63 m 0
 502 63 586 147 595 300 c 1
 142 300 l 1
 142 148 224 63 364 63 c 0
EndSplineSet
EndChar

StartChar: T
Encoding: 84 84 186
Width: 634
GlyphClass: 2
Flags: MW
HStem: 0 21G<275 275 275 358> 622 72<44 275 44 590 358 358 358 590>
VStem: 275 83<0 622 0 622>
AnchorPoint: "Anchor-3" 317 694 basechar 0
AnchorPoint: "Anchor-1" 317 347 basechar 0
AnchorPoint: "Anchor-0" 317 0 basechar 0
LayerCount: 2
Fore
SplineSet
275 0 m 1
 275 622 l 1
 44 622 l 1
 44 694 l 1
 590 694 l 1
 590 622 l 1
 358 622 l 1
 358 0 l 1
 275 0 l 1
EndSplineSet
EndChar

StartChar: Tbar
Encoding: 358 358 187
Width: 634
GlyphClass: 2
Flags: MW
HStem: 0 21G<275 275 275 358> 318 58<178 275 178 275 358 455> 622 72<44 275 44 590 358 358 358 590>
VStem: 275 83<0 318 0 318 376 622>
AnchorPoint: "Anchor-3" 317 694 basechar 0
AnchorPoint: "Anchor-1" 317 347 basechar 0
AnchorPoint: "Anchor-0" 317 0 basechar 0
LayerCount: 2
Fore
SplineSet
275 0 m 1
 275 318 l 1
 178 318 l 1
 178 376 l 1
 275 376 l 1
 275 622 l 1
 44 622 l 1
 44 694 l 1
 590 694 l 1
 590 622 l 1
 358 622 l 1
 358 376 l 1
 455 376 l 1
 455 318 l 1
 358 318 l 1
 358 0 l 1
 275 0 l 1
EndSplineSet
EndChar

StartChar: Tcaron
Encoding: 356 356 188
Width: 634
GlyphClass: 2
Flags: MW
HStem: 0 21G<275 275 275 358> 622 72<44 275 44 590 358 358 358 590>
VStem: 275 83<0 622 0 622>
AnchorPoint: "Anchor-3" 317 836 basechar 0
AnchorPoint: "Anchor-1" 317 347 basechar 0
AnchorPoint: "Anchor-0" 317 0 basechar 0
LayerCount: 2
Fore
SplineSet
297 754 m 1
 167 880 l 1
 216 922 l 1
 321 822 l 1
 433 923 l 1
 467 893 l 1
 340 754 l 1
 297 754 l 1
275 0 m 1
 275 622 l 1
 44 622 l 1
 44 694 l 1
 590 694 l 1
 590 622 l 1
 358 622 l 1
 358 0 l 1
 275 0 l 1
EndSplineSet
EndChar

StartChar: uni0162
Encoding: 354 354 189
Width: 634
GlyphClass: 2
Flags: MW
HStem: -227 21G<295.5 352.5> -227 55<304.5 339 304.5 352.5> -89 44 0 21G<275 275 275 286 341 341 341 358> 622 72<44 275 44 590 358 358 358 590>
VStem: 275 83<0 622 0 622> 374 71<-152.5 -126.5>
AnchorPoint: "Anchor-3" 317 694 basechar 0
AnchorPoint: "Anchor-1" 317 347 basechar 0
AnchorPoint: "Anchor-0" 426 -230 basechar 0
LayerCount: 2
Fore
SplineSet
275 0 m 1x7c
 275 622 l 1
 44 622 l 1
 44 694 l 1
 590 694 l 1
 590 622 l 1
 358 622 l 1
 358 0 l 1
 341 0 l 1x7c
 331 -45 l 1
 402 -50 445 -83 445 -132 c 0
 445 -189 392 -227 313 -227 c 0x7e
 278 -227 245 -220 219 -207 c 1xbc
 236 -155 l 1
 260 -166 289 -172 320 -172 c 0
 358 -172 374 -163 374 -142 c 0x7e
 374 -111 339 -94 265 -89 c 1
 286 0 l 1
 275 0 l 1x7c
EndSplineSet
Substitution2: "'locl' Localized Forms in Latin lookup 18 subtable" uni021A
Substitution2: "'locl' Localized Forms in Latin lookup 17 subtable" uni021A
Substitution2: "'aalt' Access All Alternates in Latin lookup 0 subtable" uni021A
EndChar

StartChar: uni021A
Encoding: 538 538 190
Width: 634
GlyphClass: 2
Flags: MW
HStem: -227 162<250 354 279 305> 0 21G<275 275 275 358> 622 72<44 275 44 590 358 358 358 590>
VStem: 275 79<-97 622> 275 83<0 622 0 622> 279 79<-98.5 622>
AnchorPoint: "Anchor-3" 317 694 basechar 0
AnchorPoint: "Anchor-1" 317 347 basechar 0
AnchorPoint: "Anchor-0" 317 -231 basechar 0
LayerCount: 2
Fore
SplineSet
275 0 m 1xe8
 275 622 l 1
 44 622 l 1
 44 694 l 1
 590 694 l 1
 590 622 l 1
 358 622 l 1
 358 0 l 1
 275 0 l 1xe8
250 -227 m 1xe4
 268 -194 279 -132 279 -65 c 1xe4
 354 -65 l 1
 354 -129 338 -181 305 -227 c 1xf0
 250 -227 l 1xe4
EndSplineSet
EndChar

StartChar: uni1E6C
Encoding: 7788 7788 191
Width: 634
GlyphClass: 2
Flags: MW
HStem: -195 114<299 335> 0 21G<275 275 275 358> 622 72<44 275 44 590 358 358 358 590>
VStem: 260 114<-156 -120> 275 83<0 622 0 622>
AnchorPoint: "Anchor-3" 317 694 basechar 0
AnchorPoint: "Anchor-1" 317 347 basechar 0
AnchorPoint: "Anchor-0" 317 -205 basechar 0
LayerCount: 2
Fore
SplineSet
275 0 m 1xe8
 275 622 l 1
 44 622 l 1
 44 694 l 1
 590 694 l 1
 590 622 l 1
 358 622 l 1
 358 0 l 1
 275 0 l 1xe8
317 -195 m 0xf0
 281 -195 260 -174 260 -138 c 0
 260 -102 281 -81 317 -81 c 0
 353 -81 374 -102 374 -138 c 0
 374 -174 353 -195 317 -195 c 0xf0
EndSplineSet
EndChar

StartChar: uni1E6E
Encoding: 7790 7790 192
Width: 634
GlyphClass: 2
Flags: MW
HStem: -171 65<160 473 160 473> 0 21G<275 275 275 358> 622 72<44 275 44 590 358 358 358 590>
VStem: 275 83<0 622 0 622>
AnchorPoint: "Anchor-3" 317 694 basechar 0
AnchorPoint: "Anchor-1" 317 347 basechar 0
AnchorPoint: "Anchor-0" 317 -172 basechar 0
LayerCount: 2
Fore
SplineSet
275 0 m 1
 275 622 l 1
 44 622 l 1
 44 694 l 1
 590 694 l 1
 590 622 l 1
 358 622 l 1
 358 0 l 1
 275 0 l 1
160 -171 m 1
 160 -106 l 1
 473 -106 l 1
 473 -171 l 1
 160 -171 l 1
EndSplineSet
EndChar

StartChar: U
Encoding: 85 85 193
Width: 714
GlyphClass: 2
Flags: MW
HStem: -10 73<304 419 304 432.5> 674 20G<94 177 177 177 540 621 621 621>
VStem: 94 83<243 253 253 694> 540 81<236 246 246 694>
AnchorPoint: "Anchor-4" 656 694 basechar 0
AnchorPoint: "Anchor-3" 357 694 basechar 0
AnchorPoint: "Anchor-0" 357 0 basechar 0
LayerCount: 2
Fore
SplineSet
352 -10 m 0
 195 -10 94 90 94 243 c 2
 94 694 l 1
 177 694 l 1
 177 253 l 2
 177 133 245 63 363 63 c 0
 475 63 540 127 540 236 c 2
 540 694 l 1
 621 694 l 1
 621 246 l 2
 621 92 513 -10 352 -10 c 0
EndSplineSet
EndChar

StartChar: Uacute
Encoding: 218 218 194
Width: 714
GlyphClass: 2
Flags: MW
HStem: -10 73<304 419 304 432.5> 674 20G<94 177 177 177 540 621 621 621>
VStem: 94 83<243 253 253 694> 540 81<236 246 246 694>
AnchorPoint: "Anchor-4" 656 694 basechar 0
AnchorPoint: "Anchor-3" 308 801 basechar 0
AnchorPoint: "Anchor-0" 357 0 basechar 0
LayerCount: 2
Fore
SplineSet
341 744 m 1
 309 786 l 1
 455 917 l 1
 505 853 l 1
 341 744 l 1
352 -10 m 0
 195 -10 94 90 94 243 c 2
 94 694 l 1
 177 694 l 1
 177 253 l 2
 177 133 245 63 363 63 c 0
 475 63 540 127 540 236 c 2
 540 694 l 1
 621 694 l 1
 621 246 l 2
 621 92 513 -10 352 -10 c 0
EndSplineSet
EndChar

StartChar: Ubreve
Encoding: 364 364 195
Width: 714
GlyphClass: 2
Flags: MW
HStem: -10 73<304 419 304 432.5> 674 20G<94 177 177 177 540 621 621 621> 758 65<339.5 391.5 339.5 391.5>
VStem: 94 83<243 253 253 694> 540 81<236 246 246 694>
AnchorPoint: "Anchor-4" 656 694 basechar 0
AnchorPoint: "Anchor-3" 357 826 basechar 0
AnchorPoint: "Anchor-0" 357 0 basechar 0
LayerCount: 2
Fore
SplineSet
353 758 m 0
 277 758 217 811 203 890 c 1
 267 927 l 1
 275 865 314 823 365 823 c 0
 418 823 458 865 465 928 c 1
 504 902 l 1
 491 816 430 758 353 758 c 0
352 -10 m 0
 195 -10 94 90 94 243 c 2
 94 694 l 1
 177 694 l 1
 177 253 l 2
 177 133 245 63 363 63 c 0
 475 63 540 127 540 236 c 2
 540 694 l 1
 621 694 l 1
 621 246 l 2
 621 92 513 -10 352 -10 c 0
EndSplineSet
EndChar

StartChar: uni01D3
Encoding: 467 467 196
Width: 714
GlyphClass: 2
Flags: MW
HStem: -10 73<304 419 304 432.5> 674 20G<94 177 177 177 540 621 621 621>
VStem: 94 83<243 253 253 694> 540 81<236 246 246 694>
AnchorPoint: "Anchor-4" 656 694 basechar 0
AnchorPoint: "Anchor-3" 357 836 basechar 0
AnchorPoint: "Anchor-0" 357 0 basechar 0
LayerCount: 2
Fore
SplineSet
337 754 m 1
 207 880 l 1
 256 922 l 1
 361 822 l 1
 473 923 l 1
 507 893 l 1
 380 754 l 1
 337 754 l 1
352 -10 m 0
 195 -10 94 90 94 243 c 2
 94 694 l 1
 177 694 l 1
 177 253 l 2
 177 133 245 63 363 63 c 0
 475 63 540 127 540 236 c 2
 540 694 l 1
 621 694 l 1
 621 246 l 2
 621 92 513 -10 352 -10 c 0
EndSplineSet
EndChar

StartChar: Ucircumflex
Encoding: 219 219 197
Width: 714
GlyphClass: 2
Flags: MW
HStem: -10 73<304 419 304 432.5> 674 20G<94 177 177 177 540 621 621 621>
VStem: 94 83<243 253 253 694> 540 81<236 246 246 694>
AnchorPoint: "Anchor-4" 656 694 basechar 0
AnchorPoint: "Anchor-3" 357 852 basechar 0
AnchorPoint: "Anchor-0" 357 0 basechar 0
LayerCount: 2
Fore
SplineSet
214 782 m 1
 342 923 l 1
 385 923 l 1
 512 796 l 1
 468 754 l 1
 359 852 l 1
 249 754 l 1
 214 782 l 1
352 -10 m 0
 195 -10 94 90 94 243 c 2
 94 694 l 1
 177 694 l 1
 177 253 l 2
 177 133 245 63 363 63 c 0
 475 63 540 127 540 236 c 2
 540 694 l 1
 621 694 l 1
 621 246 l 2
 621 92 513 -10 352 -10 c 0
EndSplineSet
EndChar

StartChar: uni0214
Encoding: 532 532 198
Width: 714
GlyphClass: 2
Flags: MW
HStem: -10 73<304 419 304 432.5> 674 20G<94 177 177 177 540 621 621 621>
VStem: 94 83<243 253 253 694> 540 81<236 246 246 694>
AnchorPoint: "Anchor-4" 656 694 basechar 0
AnchorPoint: "Anchor-3" 357 926 basechar 0
AnchorPoint: "Anchor-0" 357 0 basechar 0
LayerCount: 2
Fore
SplineSet
492 764 m 1
 362 885 l 1
 422 939 l 1
 531 800 l 1
 492 764 l 1
302 764 m 1
 172 885 l 1
 232 939 l 1
 341 800 l 1
 302 764 l 1
352 -10 m 0
 195 -10 94 90 94 243 c 2
 94 694 l 1
 177 694 l 1
 177 253 l 2
 177 133 245 63 363 63 c 0
 475 63 540 127 540 236 c 2
 540 694 l 1
 621 694 l 1
 621 246 l 2
 621 92 513 -10 352 -10 c 0
EndSplineSet
EndChar

StartChar: Udieresis
Encoding: 220 220 199
Width: 714
GlyphClass: 2
Flags: MW
HStem: -10 73<304 419 304 432.5> 674 20G<94 177 177 177 540 621 621 621> 777 114<236 272 436 472>
VStem: 94 83<243 253 253 694> 197 114<816 852> 397 114<816 852> 540 81<236 246 246 694>
AnchorPoint: "Anchor-4" 656 694 basechar 0
AnchorPoint: "Anchor-3" 357 856 basechar 0
AnchorPoint: "Anchor-0" 357 0 basechar 0
LayerCount: 2
Fore
SplineSet
254 777 m 0
 218 777 197 798 197 834 c 0
 197 870 218 891 254 891 c 0
 290 891 311 870 311 834 c 0
 311 798 290 777 254 777 c 0
454 777 m 0
 418 777 397 798 397 834 c 0
 397 870 418 891 454 891 c 0
 490 891 511 870 511 834 c 0
 511 798 490 777 454 777 c 0
352 -10 m 0xf2
 195 -10 94 90 94 243 c 2
 94 694 l 1
 177 694 l 1
 177 253 l 2
 177 133 245 63 363 63 c 0
 475 63 540 127 540 236 c 2
 540 694 l 1
 621 694 l 1
 621 246 l 2
 621 92 513 -10 352 -10 c 0xf2
EndSplineSet
EndChar

StartChar: uni01D7
Encoding: 471 471 200
Width: 714
GlyphClass: 2
Flags: MW
HStem: -10 73<304 419 304 432.5> 674 20G<94 177 177 177 540 621 621 621> 777 114<236 272 436 472>
VStem: 94 83<243 253 253 694> 197 114<816 852> 397 114<816 852> 540 81<236 246 246 694>
AnchorPoint: "Anchor-4" 656 694 basechar 0
AnchorPoint: "Anchor-3" 308 963 basechar 0
AnchorPoint: "Anchor-0" 357 0 basechar 0
LayerCount: 2
Fore
SplineSet
341 906 m 1
 309 948 l 1
 455 1079 l 1
 505 1015 l 1
 341 906 l 1
254 777 m 0xfe
 218 777 197 798 197 834 c 0
 197 870 218 891 254 891 c 0
 290 891 311 870 311 834 c 0
 311 798 290 777 254 777 c 0xfe
454 777 m 0
 418 777 397 798 397 834 c 0
 397 870 418 891 454 891 c 0
 490 891 511 870 511 834 c 0
 511 798 490 777 454 777 c 0
352 -10 m 0xf2
 195 -10 94 90 94 243 c 2
 94 694 l 1
 177 694 l 1
 177 253 l 2
 177 133 245 63 363 63 c 0
 475 63 540 127 540 236 c 2
 540 694 l 1
 621 694 l 1
 621 246 l 2
 621 92 513 -10 352 -10 c 0xf2
EndSplineSet
EndChar

StartChar: uni01D9
Encoding: 473 473 201
Width: 714
GlyphClass: 2
Flags: MW
HStem: -10 73<304 419 304 432.5> 674 20G<94 177 177 177 540 621 621 621> 777 114<236 272 436 472>
VStem: 94 83<243 253 253 694> 197 114<816 852> 397 114<816 852> 540 81<236 246 246 694>
AnchorPoint: "Anchor-4" 656 694 basechar 0
AnchorPoint: "Anchor-3" 357 998 basechar 0
AnchorPoint: "Anchor-0" 357 0 basechar 0
LayerCount: 2
Fore
SplineSet
337 916 m 1
 207 1042 l 1
 256 1084 l 1
 361 984 l 1
 473 1085 l 1
 507 1055 l 1
 380 916 l 1
 337 916 l 1
254 777 m 0xfe
 218 777 197 798 197 834 c 0
 197 870 218 891 254 891 c 0
 290 891 311 870 311 834 c 0
 311 798 290 777 254 777 c 0xfe
454 777 m 0
 418 777 397 798 397 834 c 0
 397 870 418 891 454 891 c 0
 490 891 511 870 511 834 c 0
 511 798 490 777 454 777 c 0
352 -10 m 0xf2
 195 -10 94 90 94 243 c 2
 94 694 l 1
 177 694 l 1
 177 253 l 2
 177 133 245 63 363 63 c 0
 475 63 540 127 540 236 c 2
 540 694 l 1
 621 694 l 1
 621 246 l 2
 621 92 513 -10 352 -10 c 0xf2
EndSplineSet
EndChar

StartChar: uni01DB
Encoding: 475 475 202
Width: 714
GlyphClass: 2
Flags: MW
HStem: -10 73<304 419 304 432.5> 674 20G<94 177 177 177 540 621 621 621> 777 114<236 272 436 472>
VStem: 94 83<243 253 253 694> 197 114<816 852> 397 114<816 852> 540 81<236 246 246 694>
AnchorPoint: "Anchor-4" 656 694 basechar 0
AnchorPoint: "Anchor-3" 406 963 basechar 0
AnchorPoint: "Anchor-0" 357 0 basechar 0
LayerCount: 2
Fore
SplineSet
373 906 m 1
 209 1015 l 1
 259 1079 l 1
 405 948 l 1
 373 906 l 1
254 777 m 0xfe
 218 777 197 798 197 834 c 0
 197 870 218 891 254 891 c 0
 290 891 311 870 311 834 c 0
 311 798 290 777 254 777 c 0xfe
454 777 m 0
 418 777 397 798 397 834 c 0
 397 870 418 891 454 891 c 0
 490 891 511 870 511 834 c 0
 511 798 490 777 454 777 c 0
352 -10 m 0xf2
 195 -10 94 90 94 243 c 2
 94 694 l 1
 177 694 l 1
 177 253 l 2
 177 133 245 63 363 63 c 0
 475 63 540 127 540 236 c 2
 540 694 l 1
 621 694 l 1
 621 246 l 2
 621 92 513 -10 352 -10 c 0xf2
EndSplineSet
EndChar

StartChar: uni01D5
Encoding: 469 469 203
Width: 714
GlyphClass: 2
Flags: MW
HStem: -10 73<304 419 304 432.5> 674 20G<94 177 177 177 540 621 621 621> 777 114<236 272 436 472> 950 66<200 513 200 513>
VStem: 94 83<243 253 253 694> 197 114<816 852> 397 114<816 852> 540 81<236 246 246 694>
AnchorPoint: "Anchor-4" 656 694 basechar 0
AnchorPoint: "Anchor-3" 357 1019 basechar 0
AnchorPoint: "Anchor-0" 357 0 basechar 0
LayerCount: 2
Fore
SplineSet
200 950 m 1
 200 1016 l 1
 513 1016 l 1
 513 950 l 1
 200 950 l 1
254 777 m 0xff
 218 777 197 798 197 834 c 0
 197 870 218 891 254 891 c 0
 290 891 311 870 311 834 c 0
 311 798 290 777 254 777 c 0xff
454 777 m 0
 418 777 397 798 397 834 c 0
 397 870 418 891 454 891 c 0
 490 891 511 870 511 834 c 0
 511 798 490 777 454 777 c 0
352 -10 m 0xf9
 195 -10 94 90 94 243 c 2
 94 694 l 1
 177 694 l 1
 177 253 l 2
 177 133 245 63 363 63 c 0
 475 63 540 127 540 236 c 2
 540 694 l 1
 621 694 l 1
 621 246 l 2
 621 92 513 -10 352 -10 c 0xf9
EndSplineSet
EndChar

StartChar: uni1EE4
Encoding: 7908 7908 204
Width: 714
GlyphClass: 2
Flags: MW
HStem: -195 114<339 375> -10 73<304 419 304 432.5> 674 20G<94 177 177 177 540 621 621 621>
VStem: 94 83<243 253 253 694> 300 114<-156 -120> 540 81<236 246 246 694>
AnchorPoint: "Anchor-4" 656 694 basechar 0
AnchorPoint: "Anchor-3" 357 694 basechar 0
AnchorPoint: "Anchor-0" 357 -205 basechar 0
LayerCount: 2
Fore
SplineSet
352 -10 m 0
 195 -10 94 90 94 243 c 2
 94 694 l 1
 177 694 l 1
 177 253 l 2
 177 133 245 63 363 63 c 0
 475 63 540 127 540 236 c 2
 540 694 l 1
 621 694 l 1
 621 246 l 2
 621 92 513 -10 352 -10 c 0
357 -195 m 0
 321 -195 300 -174 300 -138 c 0
 300 -102 321 -81 357 -81 c 0
 393 -81 414 -102 414 -138 c 0
 414 -174 393 -195 357 -195 c 0
EndSplineSet
EndChar

StartChar: Ugrave
Encoding: 217 217 205
Width: 714
GlyphClass: 2
Flags: MW
HStem: -10 73<304 419 304 432.5> 674 20G<94 177 177 177 540 621 621 621>
VStem: 94 83<243 253 253 694> 540 81<236 246 246 694>
AnchorPoint: "Anchor-4" 656 694 basechar 0
AnchorPoint: "Anchor-3" 406 801 basechar 0
AnchorPoint: "Anchor-0" 357 0 basechar 0
LayerCount: 2
Fore
SplineSet
373 744 m 1
 209 853 l 1
 259 917 l 1
 405 786 l 1
 373 744 l 1
352 -10 m 0
 195 -10 94 90 94 243 c 2
 94 694 l 1
 177 694 l 1
 177 253 l 2
 177 133 245 63 363 63 c 0
 475 63 540 127 540 236 c 2
 540 694 l 1
 621 694 l 1
 621 246 l 2
 621 92 513 -10 352 -10 c 0
EndSplineSet
EndChar

StartChar: uni1EE6
Encoding: 7910 7910 206
Width: 714
GlyphClass: 2
Flags: MW
HStem: -10 73<304 419 304 432.5> 674 20G<94 177 177 177 540 621 621 621> 899 63<347.5 361.5>
VStem: 94 83<243 253 253 694> 394 67<852 871> 540 81<236 246 246 694>
AnchorPoint: "Anchor-4" 656 694 basechar 0
AnchorPoint: "Anchor-3" 357 962 basechar 0
AnchorPoint: "Anchor-0" 357 0 basechar 0
LayerCount: 2
Fore
SplineSet
349 739 m 1
 334 781 l 1
 370 801 394 832 394 859 c 0
 394 883 375 899 348 899 c 0
 328 899 300 890 272 876 c 1
 253 930 l 1
 289 952 331 962 364 962 c 0
 424 962 461 929 461 878 c 0
 461 826 422 774 349 739 c 1
352 -10 m 0
 195 -10 94 90 94 243 c 2
 94 694 l 1
 177 694 l 1
 177 253 l 2
 177 133 245 63 363 63 c 0
 475 63 540 127 540 236 c 2
 540 694 l 1
 621 694 l 1
 621 246 l 2
 621 92 513 -10 352 -10 c 0
EndSplineSet
EndChar

StartChar: Uhorn
Encoding: 431 431 207
Width: 714
GlyphClass: 2
Flags: MW
HStem: -10 73<304 419 304 432.5> 674 20G<94 177 177 177 540 560 560 560>
VStem: 94 83<243 253 253 694> 540 81<236 246 246 648> 653 80<784 822>
AnchorPoint: "Anchor-4" 656 694 basechar 0
AnchorPoint: "Anchor-3" 357 694 basechar 0
AnchorPoint: "Anchor-0" 357 0 basechar 0
LayerCount: 2
Fore
SplineSet
352 -10 m 0
 195 -10 94 90 94 243 c 2
 94 694 l 1
 177 694 l 1
 177 253 l 2
 177 133 245 63 363 63 c 0
 475 63 540 127 540 236 c 2
 540 694 l 1
 560 694 l 2
 616 695 653 746 653 822 c 1
 733 822 l 1
 733 735 690 672 621 648 c 1
 621 246 l 2
 621 92 513 -10 352 -10 c 0
EndSplineSet
EndChar

StartChar: uni1EE8
Encoding: 7912 7912 208
Width: 714
GlyphClass: 2
Flags: MW
HStem: -10 73<304 419 304 432.5> 674 20G<94 177 177 177 540 560 560 560>
VStem: 94 83<243 253 253 694> 540 81<236 246 246 648> 653 80<784 822>
AnchorPoint: "Anchor-4" 656 694 basechar 0
AnchorPoint: "Anchor-3" 308 801 basechar 0
AnchorPoint: "Anchor-0" 357 0 basechar 0
LayerCount: 2
Fore
SplineSet
341 744 m 1
 309 786 l 1
 455 917 l 1
 505 853 l 1
 341 744 l 1
352 -10 m 0
 195 -10 94 90 94 243 c 2
 94 694 l 1
 177 694 l 1
 177 253 l 2
 177 133 245 63 363 63 c 0
 475 63 540 127 540 236 c 2
 540 694 l 1
 560 694 l 2
 616 695 653 746 653 822 c 1
 733 822 l 1
 733 735 690 672 621 648 c 1
 621 246 l 2
 621 92 513 -10 352 -10 c 0
EndSplineSet
EndChar

StartChar: uni1EF0
Encoding: 7920 7920 209
Width: 714
GlyphClass: 2
Flags: MW
HStem: -195 114<339 375> -10 73<304 419 304 432.5> 674 20G<94 177 177 177 540 560 560 560>
VStem: 94 83<243 253 253 694> 300 114<-156 -120> 540 81<236 246 246 648> 653 80<784 822>
AnchorPoint: "Anchor-4" 656 694 basechar 0
AnchorPoint: "Anchor-3" 357 694 basechar 0
AnchorPoint: "Anchor-0" 357 -205 basechar 0
LayerCount: 2
Fore
SplineSet
352 -10 m 0
 195 -10 94 90 94 243 c 2
 94 694 l 1
 177 694 l 1
 177 253 l 2
 177 133 245 63 363 63 c 0
 475 63 540 127 540 236 c 2
 540 694 l 1
 560 694 l 2
 616 695 653 746 653 822 c 1
 733 822 l 1
 733 735 690 672 621 648 c 1
 621 246 l 2
 621 92 513 -10 352 -10 c 0
357 -195 m 0
 321 -195 300 -174 300 -138 c 0
 300 -102 321 -81 357 -81 c 0
 393 -81 414 -102 414 -138 c 0
 414 -174 393 -195 357 -195 c 0
EndSplineSet
EndChar

StartChar: uni1EEA
Encoding: 7914 7914 210
Width: 714
GlyphClass: 2
Flags: MW
HStem: -10 73<304 419 304 432.5> 674 20G<94 177 177 177 540 560 560 560>
VStem: 94 83<243 253 253 694> 540 81<236 246 246 648> 653 80<784 822>
AnchorPoint: "Anchor-4" 656 694 basechar 0
AnchorPoint: "Anchor-3" 406 801 basechar 0
AnchorPoint: "Anchor-0" 357 0 basechar 0
LayerCount: 2
Fore
SplineSet
373 744 m 1
 209 853 l 1
 259 917 l 1
 405 786 l 1
 373 744 l 1
352 -10 m 0
 195 -10 94 90 94 243 c 2
 94 694 l 1
 177 694 l 1
 177 253 l 2
 177 133 245 63 363 63 c 0
 475 63 540 127 540 236 c 2
 540 694 l 1
 560 694 l 2
 616 695 653 746 653 822 c 1
 733 822 l 1
 733 735 690 672 621 648 c 1
 621 246 l 2
 621 92 513 -10 352 -10 c 0
EndSplineSet
EndChar

StartChar: uni1EEC
Encoding: 7916 7916 211
Width: 714
GlyphClass: 2
Flags: MW
HStem: -10 73<304 419 304 432.5> 674 20G<94 177 177 177 540 560 560 560> 899 63<347.5 361.5>
VStem: 94 83<243 253 253 694> 394 67<852 871> 540 81<236 246 246 648> 653 80<784 822>
AnchorPoint: "Anchor-4" 656 694 basechar 0
AnchorPoint: "Anchor-3" 357 962 basechar 0
AnchorPoint: "Anchor-0" 357 0 basechar 0
LayerCount: 2
Fore
SplineSet
349 739 m 1
 334 781 l 1
 370 801 394 832 394 859 c 0
 394 883 375 899 348 899 c 0
 328 899 300 890 272 876 c 1
 253 930 l 1
 289 952 331 962 364 962 c 0
 424 962 461 929 461 878 c 0
 461 826 422 774 349 739 c 1
352 -10 m 0
 195 -10 94 90 94 243 c 2
 94 694 l 1
 177 694 l 1
 177 253 l 2
 177 133 245 63 363 63 c 0
 475 63 540 127 540 236 c 2
 540 694 l 1
 560 694 l 2
 616 695 653 746 653 822 c 1
 733 822 l 1
 733 735 690 672 621 648 c 1
 621 246 l 2
 621 92 513 -10 352 -10 c 0
EndSplineSet
EndChar

StartChar: uni1EEE
Encoding: 7918 7918 212
Width: 714
GlyphClass: 2
Flags: MW
HStem: -10 73<304 419 304 432.5> 674 20G<94 177 177 177 540 560 560 560> 764 64<398 433.5 398 445.5> 815 66<279 312.5>
VStem: 94 83<243 253 253 694> 540 81<236 246 246 648> 653 80<784 822>
AnchorPoint: "Anchor-4" 656 694 basechar 0
AnchorPoint: "Anchor-3" 358 876 basechar 0
AnchorPoint: "Anchor-0" 357 0 basechar 0
LayerCount: 2
Fore
SplineSet
235 762 m 1xdc
 182 776 l 1xde
 202 848 247 881 295 881 c 0
 356 881 376 828 420 828 c 0
 447 828 469 848 480 883 c 1
 533 869 l 1xec
 519 800 474 764 417 764 c 0
 350 764 333 815 292 815 c 0
 266 815 245 794 235 762 c 1xdc
352 -10 m 0
 195 -10 94 90 94 243 c 2
 94 694 l 1
 177 694 l 1
 177 253 l 2
 177 133 245 63 363 63 c 0
 475 63 540 127 540 236 c 2
 540 694 l 1
 560 694 l 2
 616 695 653 746 653 822 c 1
 733 822 l 1
 733 735 690 672 621 648 c 1
 621 246 l 2
 621 92 513 -10 352 -10 c 0
EndSplineSet
EndChar

StartChar: Uhungarumlaut
Encoding: 368 368 213
Width: 714
GlyphClass: 2
Flags: MW
HStem: -10 73<304 419 304 432.5> 674 20G<94 177 177 177 540 621 621 621>
VStem: 94 83<243 253 253 694> 540 81<236 246 246 694>
AnchorPoint: "Anchor-4" 656 694 basechar 0
AnchorPoint: "Anchor-3" 357 926 basechar 0
AnchorPoint: "Anchor-0" 357 0 basechar 0
LayerCount: 2
Fore
SplineSet
222 764 m 1
 183 800 l 1
 292 939 l 1
 352 885 l 1
 222 764 l 1
412 764 m 1
 373 800 l 1
 482 939 l 1
 542 885 l 1
 412 764 l 1
352 -10 m 0
 195 -10 94 90 94 243 c 2
 94 694 l 1
 177 694 l 1
 177 253 l 2
 177 133 245 63 363 63 c 0
 475 63 540 127 540 236 c 2
 540 694 l 1
 621 694 l 1
 621 246 l 2
 621 92 513 -10 352 -10 c 0
EndSplineSet
EndChar

StartChar: uni0216
Encoding: 534 534 214
Width: 714
GlyphClass: 2
Flags: MW
HStem: -10 73<304 419 304 432.5> 674 20G<94 177 177 177 540 621 621 621> 862 65<328 376.5>
VStem: 94 83<243 253 253 694> 540 81<236 246 246 694>
AnchorPoint: "Anchor-4" 656 694 basechar 0
AnchorPoint: "Anchor-3" 357 908 basechar 0
AnchorPoint: "Anchor-0" 357 0 basechar 0
LayerCount: 2
Fore
SplineSet
256 757 m 1
 217 783 l 1
 230 869 289 927 365 927 c 0
 438 927 498 874 511 795 c 1
 447 758 l 1
 440 820 401 862 352 862 c 0
 304 862 263 823 256 757 c 1
352 -10 m 0
 195 -10 94 90 94 243 c 2
 94 694 l 1
 177 694 l 1
 177 253 l 2
 177 133 245 63 363 63 c 0
 475 63 540 127 540 236 c 2
 540 694 l 1
 621 694 l 1
 621 246 l 2
 621 92 513 -10 352 -10 c 0
EndSplineSet
EndChar

StartChar: Umacron
Encoding: 362 362 215
Width: 714
GlyphClass: 2
Flags: MW
HStem: -10 73<304 419 304 432.5> 674 20G<94 177 177 177 540 621 621 621> 788 66<200 513 200 513>
VStem: 94 83<243 253 253 694> 540 81<236 246 246 694>
AnchorPoint: "Anchor-4" 656 694 basechar 0
AnchorPoint: "Anchor-3" 357 857 basechar 0
AnchorPoint: "Anchor-0" 357 0 basechar 0
LayerCount: 2
Fore
SplineSet
200 788 m 1
 200 854 l 1
 513 854 l 1
 513 788 l 1
 200 788 l 1
352 -10 m 0
 195 -10 94 90 94 243 c 2
 94 694 l 1
 177 694 l 1
 177 253 l 2
 177 133 245 63 363 63 c 0
 475 63 540 127 540 236 c 2
 540 694 l 1
 621 694 l 1
 621 246 l 2
 621 92 513 -10 352 -10 c 0
EndSplineSet
EndChar

StartChar: uni1E7A
Encoding: 7802 7802 216
Width: 714
GlyphClass: 2
Flags: MW
HStem: -10 73<304 419 304 432.5> 674 20G<94 177 177 177 540 621 621 621> 788 66<200 513 200 513> 940 114<236 272 436 472>
VStem: 94 83<243 253 253 694> 197 114<979 1015> 397 114<979 1015> 540 81<236 246 246 694>
AnchorPoint: "Anchor-4" 656 694 basechar 0
AnchorPoint: "Anchor-3" 357 1019 basechar 0
AnchorPoint: "Anchor-0" 357 0 basechar 0
LayerCount: 2
Fore
SplineSet
254 940 m 0
 218 940 197 961 197 997 c 0
 197 1033 218 1054 254 1054 c 0
 290 1054 311 1033 311 997 c 0
 311 961 290 940 254 940 c 0
454 940 m 0
 418 940 397 961 397 997 c 0
 397 1033 418 1054 454 1054 c 0
 490 1054 511 1033 511 997 c 0
 511 961 490 940 454 940 c 0
200 788 m 1
 200 854 l 1
 513 854 l 1
 513 788 l 1
 200 788 l 1
352 -10 m 0xf9
 195 -10 94 90 94 243 c 2
 94 694 l 1
 177 694 l 1
 177 253 l 2
 177 133 245 63 363 63 c 0
 475 63 540 127 540 236 c 2
 540 694 l 1
 621 694 l 1
 621 246 l 2
 621 92 513 -10 352 -10 c 0xf9
EndSplineSet
EndChar

StartChar: Uogonek
Encoding: 370 370 217
Width: 714
GlyphClass: 2
Flags: MW
HStem: -229 54<392 403.5> -10 73<304 354 352 364> 0 21G<463 463> 674 20G<94 177 177 177 540 621 621 621>
VStem: 94 83<243 253 253 694> 285 71<-135.5 -106.5> 540 81<236 246 246 694>
AnchorPoint: "Anchor-4" 656 694 basechar 0
AnchorPoint: "Anchor-3" 357 694 basechar 0
AnchorPoint: "Anchor-0" 357 0 basechar 0
LayerCount: 2
Fore
SplineSet
352 -10 m 0xde
 195 -10 94 90 94 243 c 2
 94 694 l 1
 177 694 l 1
 177 253 l 2
 177 133 245 63 363 63 c 0xde
 475 63 540 127 540 236 c 2
 540 694 l 1
 621 694 l 1
 621 246 l 2
 621 126 555 37 450 4 c 1
 463 0 l 1xbe
 399 -18 356 -65 356 -118 c 0
 356 -153 376 -175 408 -175 c 0
 422 -175 438 -171 452 -165 c 1
 458 -209 l 1
 441 -220 419 -229 388 -229 c 0
 324 -229 285 -192 285 -132 c 0
 285 -81 314 -38 364 -10 c 1
 360 -10 356 -10 352 -10 c 0xde
EndSplineSet
EndChar

StartChar: Uring
Encoding: 366 366 218
Width: 714
GlyphClass: 2
Flags: MW
HStem: -10 73<304 419 304 432.5> 674 20G<94 177 177 177 540 621 621 621> 742 58<344.5 372 344.5 387> 892 58<342 369.5>
VStem: 94 83<243 253 253 694> 253 58<833.5 861 833.5 876> 403 58<831 858.5> 540 81<236 246 246 694>
AnchorPoint: "Anchor-4" 656 694 basechar 0
AnchorPoint: "Anchor-3" 357 950 basechar 0
AnchorPoint: "Anchor-0" 357 0 basechar 0
LayerCount: 2
Fore
SplineSet
355 742 m 0
 294 742 253 783 253 844 c 0
 253 908 295 950 359 950 c 0
 420 950 461 909 461 848 c 0
 461 784 419 742 355 742 c 0
359 800 m 0
 385 800 403 818 403 844 c 0
 403 873 384 892 355 892 c 0
 329 892 311 874 311 848 c 0
 311 819 330 800 359 800 c 0
352 -10 m 0
 195 -10 94 90 94 243 c 2
 94 694 l 1
 177 694 l 1
 177 253 l 2
 177 133 245 63 363 63 c 0
 475 63 540 127 540 236 c 2
 540 694 l 1
 621 694 l 1
 621 246 l 2
 621 92 513 -10 352 -10 c 0
EndSplineSet
EndChar

StartChar: Utilde
Encoding: 360 360 219
Width: 714
GlyphClass: 2
Flags: MW
HStem: -10 73<304 419 304 432.5> 674 20G<94 177 177 177 540 621 621 621> 764 64<398 433.5 398 445.5> 815 66<279 312.5>
VStem: 94 83<243 253 253 694> 540 81<236 246 246 694>
AnchorPoint: "Anchor-4" 656 694 basechar 0
AnchorPoint: "Anchor-3" 358 876 basechar 0
AnchorPoint: "Anchor-0" 357 0 basechar 0
LayerCount: 2
Fore
SplineSet
235 762 m 1xdc
 182 776 l 1xdc
 202 848 247 881 295 881 c 0
 356 881 376 828 420 828 c 0
 447 828 469 848 480 883 c 1
 533 869 l 1xec
 519 800 474 764 417 764 c 0
 350 764 333 815 292 815 c 0
 266 815 245 794 235 762 c 1xdc
352 -10 m 0
 195 -10 94 90 94 243 c 2
 94 694 l 1
 177 694 l 1
 177 253 l 2
 177 133 245 63 363 63 c 0
 475 63 540 127 540 236 c 2
 540 694 l 1
 621 694 l 1
 621 246 l 2
 621 92 513 -10 352 -10 c 0
EndSplineSet
EndChar

StartChar: uni1E78
Encoding: 7800 7800 220
Width: 714
GlyphClass: 2
Flags: MW
HStem: -10 73<304 419 304 432.5> 674 20G<94 177 177 177 540 621 621 621> 764 64<398 433.5 398 445.5> 815 66<279 312.5>
VStem: 94 83<243 253 253 694> 540 81<236 246 246 694>
AnchorPoint: "Anchor-4" 656 694 basechar 0
AnchorPoint: "Anchor-3" 309 983 basechar 0
AnchorPoint: "Anchor-0" 357 0 basechar 0
LayerCount: 2
Fore
SplineSet
342 926 m 1xec
 310 968 l 1
 456 1099 l 1
 506 1035 l 1
 342 926 l 1xec
235 762 m 1xdc
 182 776 l 1xdc
 202 848 247 881 295 881 c 0
 356 881 376 828 420 828 c 0
 447 828 469 848 480 883 c 1
 533 869 l 1xec
 519 800 474 764 417 764 c 0
 350 764 333 815 292 815 c 0
 266 815 245 794 235 762 c 1xdc
352 -10 m 0
 195 -10 94 90 94 243 c 2
 94 694 l 1
 177 694 l 1
 177 253 l 2
 177 133 245 63 363 63 c 0
 475 63 540 127 540 236 c 2
 540 694 l 1
 621 694 l 1
 621 246 l 2
 621 92 513 -10 352 -10 c 0
EndSplineSet
EndChar

StartChar: V
Encoding: 86 86 221
Width: 675
GlyphClass: 2
Flags: MW
HStem: 0 21G<297 297 297 378> 0 102<297 341 341 341 341 378> 674 20G<44 139 139 139 547 631 631 631>
VStem: 44 587<694 694>
AnchorPoint: "Anchor-3" 338 694 basechar 0
AnchorPoint: "Anchor-0" 338 0 basechar 0
LayerCount: 2
Fore
SplineSet
297 0 m 1xb0
 44 694 l 1
 139 694 l 1
 341 102 l 1x70
 547 694 l 1
 631 694 l 1
 378 0 l 1
 297 0 l 1xb0
EndSplineSet
EndChar

StartChar: W
Encoding: 87 87 222
Width: 1050
GlyphClass: 2
Flags: MW
HStem: 0 21G<267 267 267 347 708 708 708 788> 0 113<267 310 310 310 310 347> 674 20G<45 141 141 141 921 1004 1004 1004>
VStem: 45 959<694 694>
AnchorPoint: "Anchor-3" 523 694 basechar 0
AnchorPoint: "Anchor-0" 523 0 basechar 0
LayerCount: 2
Fore
SplineSet
267 0 m 1xb0
 45 694 l 1
 141 694 l 1
 310 113 l 1x70
 477 689 l 1
 575 689 l 1
 751 114 l 1
 921 694 l 1
 1004 694 l 1
 788 0 l 1
 708 0 l 1
 521 592 l 1
 347 0 l 1
 267 0 l 1xb0
EndSplineSet
EndChar

StartChar: Wacute
Encoding: 7810 7810 223
Width: 1050
GlyphClass: 2
Flags: MW
HStem: 0 21G<267 267 267 347 708 708 708 788> 0 113<267 310 310 310 310 347> 674 20G<45 141 141 141 921 1004 1004 1004>
VStem: 45 959<694 694>
AnchorPoint: "Anchor-3" 474 801 basechar 0
AnchorPoint: "Anchor-0" 523 0 basechar 0
LayerCount: 2
Fore
SplineSet
507 744 m 1xb0
 475 786 l 1
 621 917 l 1
 671 853 l 1
 507 744 l 1xb0
267 0 m 1
 45 694 l 1
 141 694 l 1
 310 113 l 1x70
 477 689 l 1
 575 689 l 1
 751 114 l 1
 921 694 l 1
 1004 694 l 1
 788 0 l 1
 708 0 l 1
 521 592 l 1
 347 0 l 1
 267 0 l 1
EndSplineSet
EndChar

StartChar: Wcircumflex
Encoding: 372 372 224
Width: 1050
GlyphClass: 2
Flags: MW
HStem: 0 21G<267 267 267 347 708 708 708 788> 0 113<267 310 310 310 310 347> 674 20G<45 141 141 141 921 1004 1004 1004>
VStem: 45 959<694 694>
AnchorPoint: "Anchor-3" 523 852 basechar 0
AnchorPoint: "Anchor-0" 523 0 basechar 0
LayerCount: 2
Fore
SplineSet
380 782 m 1xb0
 508 923 l 1
 551 923 l 1
 678 796 l 1
 634 754 l 1
 525 852 l 1
 415 754 l 1
 380 782 l 1xb0
267 0 m 1
 45 694 l 1
 141 694 l 1
 310 113 l 1x70
 477 689 l 1
 575 689 l 1
 751 114 l 1
 921 694 l 1
 1004 694 l 1
 788 0 l 1
 708 0 l 1
 521 592 l 1
 347 0 l 1
 267 0 l 1
EndSplineSet
EndChar

StartChar: Wdieresis
Encoding: 7812 7812 225
Width: 1050
GlyphClass: 2
Flags: MW
HStem: 0 21G<267 267 267 347 708 708 708 788> 0 113<267 310 310 310 310 347> 674 20G<45 141 141 141 921 1004 1004 1004> 777 114<402 438 602 638>
VStem: 363 114<816 852> 563 114<816 852>
AnchorPoint: "Anchor-3" 523 856 basechar 0
AnchorPoint: "Anchor-0" 523 0 basechar 0
LayerCount: 2
Fore
SplineSet
420 777 m 0xbc
 384 777 363 798 363 834 c 0
 363 870 384 891 420 891 c 0
 456 891 477 870 477 834 c 0
 477 798 456 777 420 777 c 0xbc
620 777 m 0
 584 777 563 798 563 834 c 0
 563 870 584 891 620 891 c 0
 656 891 677 870 677 834 c 0
 677 798 656 777 620 777 c 0
267 0 m 1
 45 694 l 1
 141 694 l 1
 310 113 l 1x7c
 477 689 l 1
 575 689 l 1
 751 114 l 1
 921 694 l 1
 1004 694 l 1
 788 0 l 1
 708 0 l 1
 521 592 l 1
 347 0 l 1
 267 0 l 1
EndSplineSet
EndChar

StartChar: Wgrave
Encoding: 7808 7808 226
Width: 1050
GlyphClass: 2
Flags: MW
HStem: 0 21G<267 267 267 347 708 708 708 788> 0 113<267 310 310 310 310 347> 674 20G<45 141 141 141 921 1004 1004 1004>
VStem: 45 959<694 694>
AnchorPoint: "Anchor-3" 572 801 basechar 0
AnchorPoint: "Anchor-0" 523 0 basechar 0
LayerCount: 2
Fore
SplineSet
539 744 m 1xb0
 375 853 l 1
 425 917 l 1
 571 786 l 1
 539 744 l 1xb0
267 0 m 1
 45 694 l 1
 141 694 l 1
 310 113 l 1x70
 477 689 l 1
 575 689 l 1
 751 114 l 1
 921 694 l 1
 1004 694 l 1
 788 0 l 1
 708 0 l 1
 521 592 l 1
 347 0 l 1
 267 0 l 1
EndSplineSet
EndChar

StartChar: X
Encoding: 88 88 227
Width: 669
GlyphClass: 2
Flags: MW
HStem: 0 21G<42 42 42 136 529 529 529 628> 674 20G<62 161 161 161 508 602 602 602>
VStem: 42 586<0 0>
AnchorPoint: "Anchor-3" 335 694 basechar 0
AnchorPoint: "Anchor-0" 335 0 basechar 0
LayerCount: 2
Fore
SplineSet
42 0 m 1
 287 360 l 1
 62 694 l 1
 161 694 l 1
 333 429 l 1
 508 694 l 1
 602 694 l 1
 376 364 l 1
 628 0 l 1
 529 0 l 1
 330 296 l 1
 136 0 l 1
 42 0 l 1
EndSplineSet
EndChar

StartChar: Y
Encoding: 89 89 228
Width: 648
GlyphClass: 2
Flags: MW
HStem: 0 21G<285 285 285 368> 674 20G<40 137 137 137 517 608 608 608>
VStem: 285 83<0 299 0 299>
AnchorPoint: "Anchor-3" 330 694 basechar 0
AnchorPoint: "Anchor-0" 330 0 basechar 0
LayerCount: 2
Fore
SplineSet
285 0 m 1
 285 299 l 1
 40 694 l 1
 137 694 l 1
 329 371 l 1
 517 694 l 1
 608 694 l 1
 368 299 l 1
 368 0 l 1
 285 0 l 1
EndSplineSet
EndChar

StartChar: Yacute
Encoding: 221 221 229
Width: 648
GlyphClass: 2
Flags: MW
HStem: 0 21G<285 285 285 368> 674 20G<40 137 137 137 517 608 608 608>
VStem: 285 83<0 299 0 299>
AnchorPoint: "Anchor-3" 281 801 basechar 0
AnchorPoint: "Anchor-0" 330 0 basechar 0
LayerCount: 2
Fore
SplineSet
314 744 m 1
 282 786 l 1
 428 917 l 1
 478 853 l 1
 314 744 l 1
285 0 m 1
 285 299 l 1
 40 694 l 1
 137 694 l 1
 329 371 l 1
 517 694 l 1
 608 694 l 1
 368 299 l 1
 368 0 l 1
 285 0 l 1
EndSplineSet
EndChar

StartChar: Ycircumflex
Encoding: 374 374 230
Width: 648
GlyphClass: 2
Flags: MW
HStem: 0 21G<285 285 285 368> 674 20G<40 137 137 137 517 608 608 608>
VStem: 285 83<0 299 0 299>
AnchorPoint: "Anchor-3" 330 852 basechar 0
AnchorPoint: "Anchor-0" 330 0 basechar 0
LayerCount: 2
Fore
SplineSet
187 782 m 1
 315 923 l 1
 358 923 l 1
 485 796 l 1
 441 754 l 1
 332 852 l 1
 222 754 l 1
 187 782 l 1
285 0 m 1
 285 299 l 1
 40 694 l 1
 137 694 l 1
 329 371 l 1
 517 694 l 1
 608 694 l 1
 368 299 l 1
 368 0 l 1
 285 0 l 1
EndSplineSet
EndChar

StartChar: Ydieresis
Encoding: 376 376 231
Width: 648
GlyphClass: 2
Flags: MW
HStem: 0 21G<285 285 285 368> 674 20G<40 137 137 137 517 608 608 608> 777 114<209 245 409 445>
VStem: 170 114<816 852> 285 83<0 299 0 299> 370 114<816 852>
AnchorPoint: "Anchor-3" 330 856 basechar 0
AnchorPoint: "Anchor-0" 330 0 basechar 0
LayerCount: 2
Fore
SplineSet
227 777 m 0
 191 777 170 798 170 834 c 0
 170 870 191 891 227 891 c 0
 263 891 284 870 284 834 c 0
 284 798 263 777 227 777 c 0
427 777 m 0
 391 777 370 798 370 834 c 0
 370 870 391 891 427 891 c 0
 463 891 484 870 484 834 c 0
 484 798 463 777 427 777 c 0
285 0 m 1xe8
 285 299 l 1
 40 694 l 1
 137 694 l 1
 329 371 l 1
 517 694 l 1
 608 694 l 1
 368 299 l 1
 368 0 l 1
 285 0 l 1xe8
EndSplineSet
EndChar

StartChar: uni1E8E
Encoding: 7822 7822 232
Width: 648
GlyphClass: 2
Flags: MW
HStem: 0 21G<285 285 285 368> 674 20G<40 137 137 137 517 608 608 608> 778 114<309 345>
VStem: 270 114<817 853> 285 83<0 299 0 299>
AnchorPoint: "Anchor-3" 330 856 basechar 0
AnchorPoint: "Anchor-0" 330 0 basechar 0
LayerCount: 2
Fore
SplineSet
327 778 m 0xf0
 291 778 270 799 270 835 c 0
 270 871 291 892 327 892 c 0
 363 892 384 871 384 835 c 0
 384 799 363 778 327 778 c 0xf0
285 0 m 1xe8
 285 299 l 1
 40 694 l 1
 137 694 l 1
 329 371 l 1
 517 694 l 1
 608 694 l 1
 368 299 l 1
 368 0 l 1
 285 0 l 1xe8
EndSplineSet
EndChar

StartChar: uni1EF4
Encoding: 7924 7924 233
Width: 648
GlyphClass: 2
Flags: MW
HStem: -195 114<312 348> 0 21G<285 285 285 368> 674 20G<40 137 137 137 517 608 608 608>
VStem: 273 114<-156 -120> 285 83<0 299 0 299>
AnchorPoint: "Anchor-3" 330 694 basechar 0
AnchorPoint: "Anchor-0" 330 -205 basechar 0
LayerCount: 2
Fore
SplineSet
285 0 m 1xe8
 285 299 l 1
 40 694 l 1
 137 694 l 1
 329 371 l 1
 517 694 l 1
 608 694 l 1
 368 299 l 1
 368 0 l 1
 285 0 l 1xe8
330 -195 m 0xf0
 294 -195 273 -174 273 -138 c 0
 273 -102 294 -81 330 -81 c 0
 366 -81 387 -102 387 -138 c 0
 387 -174 366 -195 330 -195 c 0xf0
EndSplineSet
EndChar

StartChar: Ygrave
Encoding: 7922 7922 234
Width: 648
GlyphClass: 2
Flags: MW
HStem: 0 21G<285 285 285 368> 674 20G<40 137 137 137 517 608 608 608>
VStem: 285 83<0 299 0 299>
AnchorPoint: "Anchor-3" 379 801 basechar 0
AnchorPoint: "Anchor-0" 330 0 basechar 0
LayerCount: 2
Fore
SplineSet
346 744 m 1
 182 853 l 1
 232 917 l 1
 378 786 l 1
 346 744 l 1
285 0 m 1
 285 299 l 1
 40 694 l 1
 137 694 l 1
 329 371 l 1
 517 694 l 1
 608 694 l 1
 368 299 l 1
 368 0 l 1
 285 0 l 1
EndSplineSet
EndChar

StartChar: uni1EF6
Encoding: 7926 7926 235
Width: 648
GlyphClass: 2
Flags: MW
HStem: 0 21G<285 285 285 368> 674 20G<40 137 137 137 517 608 608 608> 899 63<320.5 334.5>
VStem: 285 83<0 299 0 299> 367 67<852 871>
AnchorPoint: "Anchor-3" 330 962 basechar 0
AnchorPoint: "Anchor-0" 330 0 basechar 0
LayerCount: 2
Fore
SplineSet
322 739 m 1xf0
 307 781 l 1
 343 801 367 832 367 859 c 0
 367 883 348 899 321 899 c 0
 301 899 273 890 245 876 c 1
 226 930 l 1
 262 952 304 962 337 962 c 0
 397 962 434 929 434 878 c 0xe8
 434 826 395 774 322 739 c 1xf0
285 0 m 1xf0
 285 299 l 1
 40 694 l 1
 137 694 l 1
 329 371 l 1
 517 694 l 1
 608 694 l 1
 368 299 l 1
 368 0 l 1
 285 0 l 1xf0
EndSplineSet
EndChar

StartChar: uni0232
Encoding: 562 562 236
Width: 648
GlyphClass: 2
Flags: MW
HStem: 0 21G<285 285 285 368> 674 20G<40 137 137 137 517 608 608 608> 788 66<173 486 173 486>
VStem: 285 83<0 299 0 299>
AnchorPoint: "Anchor-3" 330 857 basechar 0
AnchorPoint: "Anchor-0" 330 0 basechar 0
LayerCount: 2
Fore
SplineSet
173 788 m 1
 173 854 l 1
 486 854 l 1
 486 788 l 1
 173 788 l 1
285 0 m 1
 285 299 l 1
 40 694 l 1
 137 694 l 1
 329 371 l 1
 517 694 l 1
 608 694 l 1
 368 299 l 1
 368 0 l 1
 285 0 l 1
EndSplineSet
EndChar

StartChar: uni1EF8
Encoding: 7928 7928 237
Width: 648
GlyphClass: 2
Flags: MW
HStem: 0 21G<285 285 285 368> 674 20G<40 137 137 137 517 608 608 608> 764 64<371 406.5 371 418.5> 815 66<252 285.5>
VStem: 285 83<0 299 0 299>
AnchorPoint: "Anchor-3" 331 876 basechar 0
AnchorPoint: "Anchor-0" 330 0 basechar 0
LayerCount: 2
Fore
SplineSet
208 762 m 1xd8
 155 776 l 1xd8
 175 848 220 881 268 881 c 0
 329 881 349 828 393 828 c 0
 420 828 442 848 453 883 c 1
 506 869 l 1xe8
 492 800 447 764 390 764 c 0
 323 764 306 815 265 815 c 0
 239 815 218 794 208 762 c 1xd8
285 0 m 1
 285 299 l 1
 40 694 l 1
 137 694 l 1
 329 371 l 1
 517 694 l 1
 608 694 l 1
 368 299 l 1
 368 0 l 1
 285 0 l 1
EndSplineSet
EndChar

StartChar: Z
Encoding: 90 90 238
Width: 662
GlyphClass: 2
Flags: MW
HStem: 0 72<161 610 161 610> 622 72<66 487 66 597>
VStem: 52 558<0 53 53 53>
AnchorPoint: "Anchor-3" 331 694 basechar 0
AnchorPoint: "Anchor-0" 331 0 basechar 0
LayerCount: 2
Fore
SplineSet
52 0 m 1
 52 53 l 1
 487 622 l 1
 66 622 l 1
 66 694 l 1
 597 694 l 1
 597 642 l 1
 161 72 l 1
 610 72 l 1
 610 0 l 1
 52 0 l 1
EndSplineSet
EndChar

StartChar: Zacute
Encoding: 377 377 239
Width: 662
GlyphClass: 2
Flags: MW
HStem: 0 72<161 610 161 610> 622 72<66 487 66 597>
VStem: 52 558<0 53 53 53>
AnchorPoint: "Anchor-3" 282 801 basechar 0
AnchorPoint: "Anchor-0" 331 0 basechar 0
LayerCount: 2
Fore
SplineSet
315 744 m 1
 283 786 l 1
 429 917 l 1
 479 853 l 1
 315 744 l 1
52 0 m 1
 52 53 l 1
 487 622 l 1
 66 622 l 1
 66 694 l 1
 597 694 l 1
 597 642 l 1
 161 72 l 1
 610 72 l 1
 610 0 l 1
 52 0 l 1
EndSplineSet
EndChar

StartChar: Zcaron
Encoding: 381 381 240
Width: 662
GlyphClass: 2
Flags: MW
HStem: 0 72<161 610 161 610> 622 72<66 487 66 597>
VStem: 52 558<0 53 53 53>
AnchorPoint: "Anchor-3" 331 836 basechar 0
AnchorPoint: "Anchor-0" 331 0 basechar 0
LayerCount: 2
Fore
SplineSet
311 754 m 1
 181 880 l 1
 230 922 l 1
 335 822 l 1
 447 923 l 1
 481 893 l 1
 354 754 l 1
 311 754 l 1
52 0 m 1
 52 53 l 1
 487 622 l 1
 66 622 l 1
 66 694 l 1
 597 694 l 1
 597 642 l 1
 161 72 l 1
 610 72 l 1
 610 0 l 1
 52 0 l 1
EndSplineSet
EndChar

StartChar: Zdotaccent
Encoding: 379 379 241
Width: 662
GlyphClass: 2
Flags: MW
HStem: 0 72<161 610 161 610> 622 72<66 487 66 597> 778 114<310 346>
VStem: 271 114<817 853>
AnchorPoint: "Anchor-3" 331 856 basechar 0
AnchorPoint: "Anchor-0" 331 0 basechar 0
LayerCount: 2
Fore
SplineSet
328 778 m 0
 292 778 271 799 271 835 c 0
 271 871 292 892 328 892 c 0
 364 892 385 871 385 835 c 0
 385 799 364 778 328 778 c 0
52 0 m 1
 52 53 l 1
 487 622 l 1
 66 622 l 1
 66 694 l 1
 597 694 l 1
 597 642 l 1
 161 72 l 1
 610 72 l 1
 610 0 l 1
 52 0 l 1
EndSplineSet
EndChar

StartChar: uni1E92
Encoding: 7826 7826 242
Width: 662
GlyphClass: 2
Flags: MW
HStem: -195 114<313 349> 0 72<161 610 161 610> 622 72<66 487 66 597>
VStem: 274 114<-156 -120>
AnchorPoint: "Anchor-3" 331 694 basechar 0
AnchorPoint: "Anchor-0" 331 -205 basechar 0
LayerCount: 2
Fore
SplineSet
52 0 m 1
 52 53 l 1
 487 622 l 1
 66 622 l 1
 66 694 l 1
 597 694 l 1
 597 642 l 1
 161 72 l 1
 610 72 l 1
 610 0 l 1
 52 0 l 1
331 -195 m 0
 295 -195 274 -174 274 -138 c 0
 274 -102 295 -81 331 -81 c 0
 367 -81 388 -102 388 -138 c 0
 388 -174 367 -195 331 -195 c 0
EndSplineSet
EndChar

StartChar: a
Encoding: 97 97 243
Width: 515
GlyphClass: 2
Flags: MW
HStem: -10 70<204.5 239.5> 0 21G<383 439 383 383> 227 54<359 359> 420 72<217.5 274>
VStem: 49 80<117.5 171 117.5 179.5> 359 80<111 227 227 227 281 313 0 348.5>
AnchorPoint: "Anchor-3" 248 482 basechar 0
AnchorPoint: "Anchor-0" 263 0 basechar 0
LayerCount: 2
Fore
SplineSet
210 -10 m 0xbc
 113 -10 49 46 49 129 c 0
 49 230 149 279 359 281 c 1
 359 313 l 2
 359 384 316 420 232 420 c 0
 182 420 134 407 80 378 c 1
 62 436 l 1
 125 475 185 492 250 492 c 0
 371 492 439 428 439 313 c 2
 439 0 l 1
 383 0 l 1x7c
 363 48 l 1
 323 12 269 -10 210 -10 c 0xbc
129 142 m 0
 129 93 172 60 237 60 c 0
 284 60 328 80 359 111 c 1
 359 227 l 1
 199 226 129 200 129 142 c 0
EndSplineSet
Substitution2: "Single Substitution lookup 35 subtable" ordfeminine
Substitution2: "'aalt' Access All Alternates in Latin lookup 0 subtable" ordfeminine
EndChar

StartChar: aacute
Encoding: 225 225 244
Width: 515
GlyphClass: 2
Flags: MW
HStem: -10 70<204.5 239.5> 0 21G<383 439 383 383> 227 54<359 359> 420 72<217.5 274> 674 20G<384 384> 725 20G<321 321>
VStem: 49 80<117.5 171 117.5 179.5> 359 80<111 227 227 227 281 313 0 348.5>
AnchorPoint: "Anchor-3" 282 704 basechar 0
AnchorPoint: "Anchor-0" 263 0 basechar 0
LayerCount: 2
Fore
SplineSet
254 560 m 1xbf
 217 589 l 1
 321 745 l 1
 384 694 l 1
 254 560 l 1xbf
210 -10 m 0
 113 -10 49 46 49 129 c 0
 49 230 149 279 359 281 c 1
 359 313 l 2
 359 384 316 420 232 420 c 0
 182 420 134 407 80 378 c 1
 62 436 l 1
 125 475 185 492 250 492 c 0
 371 492 439 428 439 313 c 2
 439 0 l 1
 383 0 l 1x7f
 363 48 l 1
 323 12 269 -10 210 -10 c 0
129 142 m 0
 129 93 172 60 237 60 c 0
 284 60 328 80 359 111 c 1
 359 227 l 1
 199 226 129 200 129 142 c 0
EndSplineSet
EndChar

StartChar: abreve
Encoding: 259 259 245
Width: 515
GlyphClass: 2
Flags: MW
HStem: -10 70<204.5 239.5> 0 21G<383 439 383 383> 227 54<359 359> 420 72<217.5 274> 561 65<231.5 283.5 231.5 283.5>
VStem: 49 80<117.5 171 117.5 179.5> 359 80<111 227 227 227 281 313 0 348.5>
AnchorPoint: "Anchor-3" 248 681 basechar 0
AnchorPoint: "Anchor-0" 263 0 basechar 0
LayerCount: 2
Fore
SplineSet
245 561 m 0xbe
 169 561 109 614 95 693 c 1
 159 730 l 1
 167 668 206 626 257 626 c 0
 310 626 350 668 357 731 c 1
 396 705 l 1
 383 619 322 561 245 561 c 0xbe
210 -10 m 0
 113 -10 49 46 49 129 c 0
 49 230 149 279 359 281 c 1
 359 313 l 2
 359 384 316 420 232 420 c 0
 182 420 134 407 80 378 c 1
 62 436 l 1
 125 475 185 492 250 492 c 0
 371 492 439 428 439 313 c 2
 439 0 l 1
 383 0 l 1x7e
 363 48 l 1
 323 12 269 -10 210 -10 c 0
129 142 m 0
 129 93 172 60 237 60 c 0
 284 60 328 80 359 111 c 1
 359 227 l 1
 199 226 129 200 129 142 c 0
EndSplineSet
EndChar

StartChar: uni1EAF
Encoding: 7855 7855 246
Width: 515
GlyphClass: 2
Flags: MW
HStem: -10 70<204.5 239.5> 0 21G<383 439 383 383> 227 54<359 359> 420 72<217.5 274> 539 63<231.5 283.5 231.5 283.5>
VStem: 49 80<117.5 171 117.5 179.5> 359 80<111 227 227 227 281 313 0 348.5>
AnchorPoint: "Anchor-3" 248 482 basechar 0
AnchorPoint: "Anchor-0" 263 0 basechar 0
LayerCount: 2
Fore
SplineSet
251 660 m 1xbe
 215 690 l 1
 324 842 l 1
 385 789 l 1
 251 660 l 1xbe
245 539 m 0
 169 539 109 582 95 647 c 1
 159 683 l 1
 167 635 206 602 257 602 c 0
 310 602 350 635 357 684 c 1
 396 658 l 1
 383 587 322 539 245 539 c 0
210 -10 m 0
 113 -10 49 46 49 129 c 0
 49 230 149 279 359 281 c 1
 359 313 l 2
 359 384 316 420 232 420 c 0
 182 420 134 407 80 378 c 1
 62 436 l 1
 125 475 185 492 250 492 c 0
 371 492 439 428 439 313 c 2
 439 0 l 1
 383 0 l 1x7e
 363 48 l 1
 323 12 269 -10 210 -10 c 0
129 142 m 0
 129 93 172 60 237 60 c 0
 284 60 328 80 359 111 c 1
 359 227 l 1
 199 226 129 200 129 142 c 0
EndSplineSet
EndChar

StartChar: uni1EB7
Encoding: 7863 7863 247
Width: 515
GlyphClass: 2
Flags: MW
HStem: -195 114<245 281> -10 70<204.5 239.5> 0 21G<383 439 383 383> 227 54<359 359> 420 72<217.5 274> 561 65<231.5 283.5 231.5 283.5>
VStem: 49 80<117.5 171 117.5 179.5> 206 114<-156 -120> 359 80<111 227 227 227 281 313 0 348.5>
AnchorPoint: "Anchor-3" 248 681 basechar 0
AnchorPoint: "Anchor-0" 263 -205 basechar 0
LayerCount: 2
Fore
SplineSet
245 561 m 0xdf80
 169 561 109 614 95 693 c 1
 159 730 l 1
 167 668 206 626 257 626 c 0
 310 626 350 668 357 731 c 1
 396 705 l 1
 383 619 322 561 245 561 c 0xdf80
210 -10 m 0
 113 -10 49 46 49 129 c 0
 49 230 149 279 359 281 c 1
 359 313 l 2
 359 384 316 420 232 420 c 0
 182 420 134 407 80 378 c 1
 62 436 l 1
 125 475 185 492 250 492 c 0
 371 492 439 428 439 313 c 2
 439 0 l 1
 383 0 l 1xbf80
 363 48 l 1
 323 12 269 -10 210 -10 c 0
129 142 m 0
 129 93 172 60 237 60 c 0
 284 60 328 80 359 111 c 1
 359 227 l 1
 199 226 129 200 129 142 c 0
263 -195 m 0
 227 -195 206 -174 206 -138 c 0
 206 -102 227 -81 263 -81 c 0
 299 -81 320 -102 320 -138 c 0
 320 -174 299 -195 263 -195 c 0
EndSplineSet
EndChar

StartChar: uni1EB1
Encoding: 7857 7857 248
Width: 515
GlyphClass: 2
Flags: MW
HStem: -10 70<204.5 239.5> 0 21G<383 439 383 383> 227 54<359 359> 420 72<217.5 274> 539 63<231.5 283.5 231.5 283.5> 675 20G<286 286>
VStem: 49 80<117.5 171 117.5 179.5> 359 80<111 227 227 227 281 313 0 348.5>
AnchorPoint: "Anchor-3" 248 482 basechar 0
AnchorPoint: "Anchor-0" 263 0 basechar 0
LayerCount: 2
Fore
SplineSet
252 662 m 1xbf
 111 785 l 1
 169 841 l 1
 286 695 l 1
 252 662 l 1xbf
245 539 m 0
 169 539 109 582 95 647 c 1
 159 683 l 1
 167 635 206 602 257 602 c 0
 310 602 350 635 357 684 c 1
 396 658 l 1
 383 587 322 539 245 539 c 0
210 -10 m 0
 113 -10 49 46 49 129 c 0
 49 230 149 279 359 281 c 1
 359 313 l 2
 359 384 316 420 232 420 c 0
 182 420 134 407 80 378 c 1
 62 436 l 1
 125 475 185 492 250 492 c 0
 371 492 439 428 439 313 c 2
 439 0 l 1
 383 0 l 1x7f
 363 48 l 1
 323 12 269 -10 210 -10 c 0
129 142 m 0
 129 93 172 60 237 60 c 0
 284 60 328 80 359 111 c 1
 359 227 l 1
 199 226 129 200 129 142 c 0
EndSplineSet
EndChar

StartChar: uni1EB3
Encoding: 7859 7859 249
Width: 515
GlyphClass: 2
Flags: MW
HStem: -10 70<204.5 239.5> 0 21G<383 439 383 383> 227 54<359 359> 420 72<217.5 274> 539 63<231.5 283.5 231.5 283.5> 790 60<249.5 262.5>
VStem: 49 80<117.5 171 117.5 179.5> 295 67<756.5 768.5> 359 80<111 227 227 227 281 313 0 348.5>
AnchorPoint: "Anchor-3" 248 482 basechar 0
AnchorPoint: "Anchor-0" 263 0 basechar 0
LayerCount: 2
Fore
SplineSet
250 662 m 1xbe80
 235 702 l 1
 271 716 295 740 295 760 c 0
 295 777 276 790 249 790 c 0
 229 790 201 783 173 773 c 1
 154 825 l 1
 190 842 234 850 265 850 c 0
 325 850 362 821 362 778 c 0xbf
 362 735 323 690 250 662 c 1xbe80
245 539 m 0
 169 539 109 582 95 647 c 1
 159 683 l 1
 167 635 206 602 257 602 c 0
 310 602 350 635 357 684 c 1
 396 658 l 1
 383 587 322 539 245 539 c 0
210 -10 m 0
 113 -10 49 46 49 129 c 0
 49 230 149 279 359 281 c 1
 359 313 l 2
 359 384 316 420 232 420 c 0
 182 420 134 407 80 378 c 1
 62 436 l 1
 125 475 185 492 250 492 c 0
 371 492 439 428 439 313 c 2
 439 0 l 1
 383 0 l 1x7e80
 363 48 l 1xbe80
 323 12 269 -10 210 -10 c 0
129 142 m 0xbe80
 129 93 172 60 237 60 c 0
 284 60 328 80 359 111 c 1
 359 227 l 1
 199 226 129 200 129 142 c 0xbe80
EndSplineSet
EndChar

StartChar: uni1EB5
Encoding: 7861 7861 250
Width: 515
GlyphClass: 2
Flags: MW
HStem: -10 70<204.5 239.5> 0 21G<383 439 383 383> 227 54<359 359> 420 72<217.5 274> 539 63<231.5 283.5 231.5 283.5> 719 61<289.5 323.5 289.5 334> 760 63<179 210.5>
VStem: 49 80<117.5 171 117.5 179.5> 359 80<111 227 227 227 281 313 0 348.5>
AnchorPoint: "Anchor-3" 248 482 basechar 0
AnchorPoint: "Anchor-0" 263 0 basechar 0
LayerCount: 2
Fore
SplineSet
138 717 m 1xbb80
 87 729 l 1
 105 792 149 823 193 823 c 0xbb80
 249 823 269 780 310 780 c 0
 337 780 356 798 366 824 c 1
 417 811 l 1
 404 751 360 719 308 719 c 0xbd80
 246 719 230 760 191 760 c 0
 167 760 148 743 138 717 c 1xbb80
245 539 m 0
 169 539 109 582 95 647 c 1
 159 683 l 1
 167 635 206 602 257 602 c 0
 310 602 350 635 357 684 c 1
 396 658 l 1
 383 587 322 539 245 539 c 0
210 -10 m 0
 113 -10 49 46 49 129 c 0
 49 230 149 279 359 281 c 1
 359 313 l 2
 359 384 316 420 232 420 c 0
 182 420 134 407 80 378 c 1
 62 436 l 1
 125 475 185 492 250 492 c 0
 371 492 439 428 439 313 c 2
 439 0 l 1
 383 0 l 1x7d80
 363 48 l 1
 323 12 269 -10 210 -10 c 0
129 142 m 0xbd80
 129 93 172 60 237 60 c 0
 284 60 328 80 359 111 c 1
 359 227 l 1
 199 226 129 200 129 142 c 0xbd80
EndSplineSet
EndChar

StartChar: uni01CE
Encoding: 462 462 251
Width: 515
GlyphClass: 2
Flags: MW
HStem: -10 70<204.5 239.5> 0 21G<383 439 383 383> 227 54<359 359> 420 72<217.5 274>
VStem: 49 80<117.5 171 117.5 179.5> 359 80<111 227 227 227 281 313 0 348.5>
AnchorPoint: "Anchor-3" 248 642 basechar 0
AnchorPoint: "Anchor-0" 263 0 basechar 0
LayerCount: 2
Fore
SplineSet
229 567 m 1xbc
 99 693 l 1
 148 735 l 1
 253 635 l 1
 365 736 l 1
 399 706 l 1
 272 567 l 1
 229 567 l 1xbc
210 -10 m 0
 113 -10 49 46 49 129 c 0
 49 230 149 279 359 281 c 1
 359 313 l 2
 359 384 316 420 232 420 c 0
 182 420 134 407 80 378 c 1
 62 436 l 1
 125 475 185 492 250 492 c 0
 371 492 439 428 439 313 c 2
 439 0 l 1
 383 0 l 1x7c
 363 48 l 1
 323 12 269 -10 210 -10 c 0
129 142 m 0
 129 93 172 60 237 60 c 0
 284 60 328 80 359 111 c 1
 359 227 l 1
 199 226 129 200 129 142 c 0
EndSplineSet
EndChar

StartChar: acircumflex
Encoding: 226 226 252
Width: 515
GlyphClass: 2
Flags: MW
HStem: -10 70<204.5 239.5> 0 21G<383 439 383 383> 227 54<359 359> 420 72<217.5 274>
VStem: 49 80<117.5 171 117.5 179.5> 359 80<111 227 227 227 281 313 0 348.5>
AnchorPoint: "Anchor-3" 248 658 basechar 0
AnchorPoint: "Anchor-0" 263 0 basechar 0
LayerCount: 2
Fore
SplineSet
100 587 m 1xbc
 228 728 l 1
 271 728 l 1
 398 601 l 1
 354 559 l 1
 245 657 l 1
 135 559 l 1
 100 587 l 1xbc
210 -10 m 0
 113 -10 49 46 49 129 c 0
 49 230 149 279 359 281 c 1
 359 313 l 2
 359 384 316 420 232 420 c 0
 182 420 134 407 80 378 c 1
 62 436 l 1
 125 475 185 492 250 492 c 0
 371 492 439 428 439 313 c 2
 439 0 l 1
 383 0 l 1x7c
 363 48 l 1
 323 12 269 -10 210 -10 c 0
129 142 m 0
 129 93 172 60 237 60 c 0
 284 60 328 80 359 111 c 1
 359 227 l 1
 199 226 129 200 129 142 c 0
EndSplineSet
EndChar

StartChar: uni1EA5
Encoding: 7845 7845 253
Width: 515
GlyphClass: 2
Flags: MW
HStem: -10 70<204.5 239.5> 0 21G<383 439 383 383> 227 54<359 359> 420 72<217.5 274>
VStem: 49 80<117.5 171 117.5 179.5> 359 80<111 227 227 227 281 313 0 348.5>
AnchorPoint: "Anchor-3" 248 482 basechar 0
AnchorPoint: "Anchor-0" 263 0 basechar 0
LayerCount: 2
Fore
SplineSet
381 643 m 1xbc
 345 673 l 1
 454 825 l 1
 515 772 l 1
 381 643 l 1xbc
102 564 m 1
 230 680 l 1
 273 680 l 1
 400 578 l 1
 356 536 l 1
 247 610 l 1
 137 536 l 1
 102 564 l 1
210 -10 m 0
 113 -10 49 46 49 129 c 0
 49 230 149 279 359 281 c 1
 359 313 l 2
 359 384 316 420 232 420 c 0
 182 420 134 407 80 378 c 1
 62 436 l 1
 125 475 185 492 250 492 c 0
 371 492 439 428 439 313 c 2
 439 0 l 1
 383 0 l 1x7c
 363 48 l 1
 323 12 269 -10 210 -10 c 0
129 142 m 0
 129 93 172 60 237 60 c 0
 284 60 328 80 359 111 c 1
 359 227 l 1
 199 226 129 200 129 142 c 0
EndSplineSet
EndChar

StartChar: uni1EAD
Encoding: 7853 7853 254
Width: 515
GlyphClass: 2
Flags: MW
HStem: -195 114<245 281> -10 70<204.5 239.5> 0 21G<383 439 383 383> 227 54<359 359> 420 72<217.5 274>
VStem: 49 80<117.5 171 117.5 179.5> 206 114<-156 -120> 359 80<111 227 227 227 281 313 0 348.5>
AnchorPoint: "Anchor-3" 248 658 basechar 0
AnchorPoint: "Anchor-0" 263 -205 basechar 0
LayerCount: 2
Fore
SplineSet
100 587 m 1x5f
 228 728 l 1
 271 728 l 1
 398 601 l 1
 354 559 l 1
 245 657 l 1
 135 559 l 1
 100 587 l 1x5f
210 -10 m 0
 113 -10 49 46 49 129 c 0
 49 230 149 279 359 281 c 1
 359 313 l 2
 359 384 316 420 232 420 c 0
 182 420 134 407 80 378 c 1
 62 436 l 1
 125 475 185 492 250 492 c 0
 371 492 439 428 439 313 c 2
 439 0 l 1
 383 0 l 1x3f
 363 48 l 1
 323 12 269 -10 210 -10 c 0
129 142 m 0
 129 93 172 60 237 60 c 0
 284 60 328 80 359 111 c 1
 359 227 l 1
 199 226 129 200 129 142 c 0
263 -195 m 0xdf
 227 -195 206 -174 206 -138 c 0
 206 -102 227 -81 263 -81 c 0
 299 -81 320 -102 320 -138 c 0
 320 -174 299 -195 263 -195 c 0xdf
EndSplineSet
EndChar

StartChar: uni1EA7
Encoding: 7847 7847 255
Width: 515
GlyphClass: 2
Flags: MW
HStem: -10 70<204.5 239.5> 0 21G<383 439 383 383> 227 54<359 359> 420 72<217.5 274>
VStem: 49 80<117.5 171 117.5 179.5> 359 80<111 227 227 227 281 313 0 348.5>
AnchorPoint: "Anchor-3" 248 482 basechar 0
AnchorPoint: "Anchor-0" 263 0 basechar 0
LayerCount: 2
Fore
SplineSet
382 645 m 1xbc
 241 768 l 1
 299 824 l 1
 416 678 l 1
 382 645 l 1xbc
102 564 m 1
 230 680 l 1
 273 680 l 1
 400 578 l 1
 356 536 l 1
 247 610 l 1
 137 536 l 1
 102 564 l 1
210 -10 m 0
 113 -10 49 46 49 129 c 0
 49 230 149 279 359 281 c 1
 359 313 l 2
 359 384 316 420 232 420 c 0
 182 420 134 407 80 378 c 1
 62 436 l 1
 125 475 185 492 250 492 c 0
 371 492 439 428 439 313 c 2
 439 0 l 1
 383 0 l 1x7c
 363 48 l 1
 323 12 269 -10 210 -10 c 0
129 142 m 0
 129 93 172 60 237 60 c 0
 284 60 328 80 359 111 c 1
 359 227 l 1
 199 226 129 200 129 142 c 0
EndSplineSet
EndChar

StartChar: uni1EA9
Encoding: 7849 7849 256
Width: 515
GlyphClass: 2
Flags: MW
HStem: -10 70<204.5 239.5> 0 21G<383 439 383 383> 227 54<359 359> 420 72<217.5 274> 773 60<379.5 392.5>
VStem: 49 80<117.5 171 117.5 179.5> 359 80<111 227 227 227 281 313 0 348.5> 425 67<739.5 751.5>
AnchorPoint: "Anchor-3" 248 482 basechar 0
AnchorPoint: "Anchor-0" 263 0 basechar 0
LayerCount: 2
Fore
SplineSet
380 645 m 1xb6
 365 685 l 1
 401 699 425 723 425 743 c 0
 425 760 406 773 379 773 c 0
 359 773 331 766 303 756 c 1
 284 808 l 1
 320 825 364 833 395 833 c 0
 455 833 492 804 492 761 c 0xbd
 492 718 453 673 380 645 c 1xb6
102 564 m 1
 230 680 l 1
 273 680 l 1
 400 578 l 1
 356 536 l 1
 247 610 l 1
 137 536 l 1
 102 564 l 1
210 -10 m 0
 113 -10 49 46 49 129 c 0
 49 230 149 279 359 281 c 1
 359 313 l 2
 359 384 316 420 232 420 c 0
 182 420 134 407 80 378 c 1
 62 436 l 1
 125 475 185 492 250 492 c 0
 371 492 439 428 439 313 c 2
 439 0 l 1
 383 0 l 1x76
 363 48 l 1xb6
 323 12 269 -10 210 -10 c 0
129 142 m 0xb6
 129 93 172 60 237 60 c 0
 284 60 328 80 359 111 c 1
 359 227 l 1
 199 226 129 200 129 142 c 0xb6
EndSplineSet
EndChar

StartChar: uni1EAB
Encoding: 7851 7851 257
Width: 515
GlyphClass: 2
Flags: MW
HStem: -10 70<204.5 239.5> 0 21G<383 439 383 383> 227 54<359 359> 420 72<217.5 274> 719 61<290.5 324.5 290.5 335> 760 63<180 211.5>
VStem: 49 80<117.5 171 117.5 179.5> 359 80<111 227 227 227 281 313 0 348.5>
AnchorPoint: "Anchor-3" 248 482 basechar 0
AnchorPoint: "Anchor-0" 263 0 basechar 0
LayerCount: 2
Fore
SplineSet
139 717 m 1xb7
 88 729 l 1
 106 792 150 823 194 823 c 0xb7
 250 823 270 780 311 780 c 0
 338 780 357 798 367 824 c 1
 418 811 l 1
 405 751 361 719 309 719 c 0xbb
 247 719 231 760 192 760 c 0
 168 760 149 743 139 717 c 1xb7
102 564 m 1
 230 680 l 1
 273 680 l 1
 400 578 l 1
 356 536 l 1
 247 610 l 1
 137 536 l 1
 102 564 l 1
210 -10 m 0
 113 -10 49 46 49 129 c 0
 49 230 149 279 359 281 c 1
 359 313 l 2
 359 384 316 420 232 420 c 0
 182 420 134 407 80 378 c 1
 62 436 l 1
 125 475 185 492 250 492 c 0
 371 492 439 428 439 313 c 2
 439 0 l 1
 383 0 l 1x7b
 363 48 l 1
 323 12 269 -10 210 -10 c 0
129 142 m 0xbb
 129 93 172 60 237 60 c 0
 284 60 328 80 359 111 c 1
 359 227 l 1
 199 226 129 200 129 142 c 0xbb
EndSplineSet
EndChar

StartChar: uni0201
Encoding: 513 513 258
Width: 515
GlyphClass: 2
Flags: MW
HStem: -10 70<204.5 239.5> 0 21G<383 439 383 383> 227 54<359 359> 420 72<217.5 274> 727 20G<119 119 289 289>
VStem: 49 80<117.5 171 117.5 179.5> 359 80<111 227 227 227 281 313 0 348.5>
AnchorPoint: "Anchor-3" 248 704 basechar 0
AnchorPoint: "Anchor-0" 263 0 basechar 0
LayerCount: 2
Fore
SplineSet
153 553 m 1xbe
 48 708 l 1
 119 747 l 1
 195 575 l 1
 153 553 l 1xbe
323 553 m 1
 218 708 l 1
 289 747 l 1
 365 575 l 1
 323 553 l 1
210 -10 m 0
 113 -10 49 46 49 129 c 0
 49 230 149 279 359 281 c 1
 359 313 l 2
 359 384 316 420 232 420 c 0
 182 420 134 407 80 378 c 1
 62 436 l 1
 125 475 185 492 250 492 c 0
 371 492 439 428 439 313 c 2
 439 0 l 1
 383 0 l 1x7e
 363 48 l 1
 323 12 269 -10 210 -10 c 0
129 142 m 0
 129 93 172 60 237 60 c 0
 284 60 328 80 359 111 c 1
 359 227 l 1
 199 226 129 200 129 142 c 0
EndSplineSet
EndChar

StartChar: adieresis
Encoding: 228 228 259
Width: 515
GlyphClass: 2
Flags: MW
HStem: -10 70<204.5 239.5> 0 21G<383 439 383 383> 227 54<359 359> 420 72<217.5 274> 595 114<130 166 330 366>
VStem: 49 80<117.5 171 117.5 179.5> 91 114<634 670> 291 114<634 670> 359 80<111 227 227 227 281 313 0 348.5>
AnchorPoint: "Anchor-3" 248 674 basechar 0
AnchorPoint: "Anchor-0" 263 0 basechar 0
LayerCount: 2
Fore
SplineSet
148 595 m 0xbb
 112 595 91 616 91 652 c 0
 91 688 112 709 148 709 c 0
 184 709 205 688 205 652 c 0
 205 616 184 595 148 595 c 0xbb
348 595 m 0
 312 595 291 616 291 652 c 0
 291 688 312 709 348 709 c 0
 384 709 405 688 405 652 c 0
 405 616 384 595 348 595 c 0
210 -10 m 0xb480
 113 -10 49 46 49 129 c 0
 49 230 149 279 359 281 c 1
 359 313 l 2
 359 384 316 420 232 420 c 0
 182 420 134 407 80 378 c 1
 62 436 l 1
 125 475 185 492 250 492 c 0
 371 492 439 428 439 313 c 2
 439 0 l 1
 383 0 l 1x7480
 363 48 l 1
 323 12 269 -10 210 -10 c 0xb480
129 142 m 0
 129 93 172 60 237 60 c 0
 284 60 328 80 359 111 c 1
 359 227 l 1
 199 226 129 200 129 142 c 0
EndSplineSet
EndChar

StartChar: uni1EA1
Encoding: 7841 7841 260
Width: 515
GlyphClass: 2
Flags: MW
HStem: -195 114<245 281> -10 70<204.5 239.5> 0 21G<383 439 383 383> 227 54<359 359> 420 72<217.5 274>
VStem: 49 80<117.5 171 117.5 179.5> 206 114<-156 -120> 359 80<111 227 227 227 281 313 0 348.5>
AnchorPoint: "Anchor-3" 248 482 basechar 0
AnchorPoint: "Anchor-0" 263 -205 basechar 0
LayerCount: 2
Fore
SplineSet
210 -10 m 0x5f
 113 -10 49 46 49 129 c 0
 49 230 149 279 359 281 c 1
 359 313 l 2
 359 384 316 420 232 420 c 0
 182 420 134 407 80 378 c 1
 62 436 l 1
 125 475 185 492 250 492 c 0
 371 492 439 428 439 313 c 2
 439 0 l 1
 383 0 l 1x3f
 363 48 l 1
 323 12 269 -10 210 -10 c 0x5f
129 142 m 0
 129 93 172 60 237 60 c 0
 284 60 328 80 359 111 c 1
 359 227 l 1
 199 226 129 200 129 142 c 0
263 -195 m 0xdf
 227 -195 206 -174 206 -138 c 0
 206 -102 227 -81 263 -81 c 0
 299 -81 320 -102 320 -138 c 0
 320 -174 299 -195 263 -195 c 0xdf
EndSplineSet
EndChar

StartChar: uni1EA3
Encoding: 7843 7843 262
Width: 515
GlyphClass: 2
Flags: MW
HStem: -10 70<204.5 239.5> 0 21G<383 439 383 383> 227 54<359 359> 420 72<217.5 274> 709 63<229.5 243.5>
VStem: 49 80<117.5 171 117.5 179.5> 276 67<662 681> 359 80<111 227 227 227 281 313 0 348.5>
AnchorPoint: "Anchor-3" 240 709 basechar 0
AnchorPoint: "Anchor-0" 263 0 basechar 0
LayerCount: 2
Fore
SplineSet
231 549 m 1xb5
 216 591 l 1
 252 611 276 642 276 669 c 0
 276 693 257 709 230 709 c 0
 210 709 182 700 154 686 c 1
 135 740 l 1
 171 762 213 772 246 772 c 0
 306 772 343 739 343 688 c 0xbf
 343 636 304 584 231 549 c 1xb5
210 -10 m 0
 113 -10 49 46 49 129 c 0
 49 230 149 279 359 281 c 1
 359 313 l 2
 359 384 316 420 232 420 c 0
 182 420 134 407 80 378 c 1
 62 436 l 1
 125 475 185 492 250 492 c 0
 371 492 439 428 439 313 c 2
 439 0 l 1
 383 0 l 1x75
 363 48 l 1xb5
 323 12 269 -10 210 -10 c 0
129 142 m 0xb5
 129 93 172 60 237 60 c 0
 284 60 328 80 359 111 c 1
 359 227 l 1
 199 226 129 200 129 142 c 0xb5
EndSplineSet
EndChar

StartChar: uni0203
Encoding: 515 515 263
Width: 515
GlyphClass: 2
Flags: MW
HStem: -10 70<204.5 239.5> 0 21G<383 439 383 383> 227 54<359 359> 420 72<217.5 274> 670 65<214 262.5>
VStem: 49 80<117.5 171 117.5 179.5> 359 80<111 227 227 227 281 313 0 348.5>
AnchorPoint: "Anchor-3" 248 716 basechar 0
AnchorPoint: "Anchor-0" 263 0 basechar 0
LayerCount: 2
Fore
SplineSet
142 565 m 1xbe
 103 591 l 1
 116 677 175 735 251 735 c 0
 324 735 384 682 397 603 c 1
 333 566 l 1
 326 628 287 670 238 670 c 0
 190 670 149 631 142 565 c 1xbe
210 -10 m 0
 113 -10 49 46 49 129 c 0
 49 230 149 279 359 281 c 1
 359 313 l 2
 359 384 316 420 232 420 c 0
 182 420 134 407 80 378 c 1
 62 436 l 1
 125 475 185 492 250 492 c 0
 371 492 439 428 439 313 c 2
 439 0 l 1
 383 0 l 1x7e
 363 48 l 1
 323 12 269 -10 210 -10 c 0
129 142 m 0
 129 93 172 60 237 60 c 0
 284 60 328 80 359 111 c 1
 359 227 l 1
 199 226 129 200 129 142 c 0
EndSplineSet
EndChar

StartChar: amacron
Encoding: 257 257 264
Width: 515
GlyphClass: 2
Flags: MW
HStem: -10 70<204.5 239.5> 0 21G<383 439 383 383> 227 54<359 359> 420 72<217.5 274> 606 66<91 404 91 404>
VStem: 49 80<117.5 171 117.5 179.5> 359 80<111 227 227 227 281 313 0 348.5>
AnchorPoint: "Anchor-3" 248 635 basechar 0
AnchorPoint: "Anchor-0" 263 0 basechar 0
LayerCount: 2
Fore
SplineSet
91 606 m 1xbe
 91 672 l 1
 404 672 l 1
 404 606 l 1
 91 606 l 1xbe
210 -10 m 0
 113 -10 49 46 49 129 c 0
 49 230 149 279 359 281 c 1
 359 313 l 2
 359 384 316 420 232 420 c 0
 182 420 134 407 80 378 c 1
 62 436 l 1
 125 475 185 492 250 492 c 0
 371 492 439 428 439 313 c 2
 439 0 l 1
 383 0 l 1x7e
 363 48 l 1
 323 12 269 -10 210 -10 c 0
129 142 m 0
 129 93 172 60 237 60 c 0
 284 60 328 80 359 111 c 1
 359 227 l 1
 199 226 129 200 129 142 c 0
EndSplineSet
EndChar

StartChar: aogonek
Encoding: 261 261 265
Width: 515
GlyphClass: 2
Flags: MW
HStem: -229 54<368 379.5> -10 70<204.5 239.5> 0 21G<439 439> 227 54<359 359> 420 72<217.5 274>
VStem: 49 80<117.5 171 117.5 179.5> 261 71<-135.5 -100.5> 359 80<111 227 227 227 281 313 0 348.5>
AnchorPoint: "Anchor-3" 248 482 basechar 0
AnchorPoint: "Anchor-0" 263 0 basechar 0
LayerCount: 2
Fore
SplineSet
210 -10 m 0x5d
 113 -10 49 46 49 129 c 0
 49 230 149 279 359 281 c 1
 359 313 l 2
 359 384 316 420 232 420 c 0
 182 420 134 407 80 378 c 1
 62 436 l 1
 125 475 185 492 250 492 c 0
 371 492 439 428 439 313 c 2
 439 0 l 1x3d
 375 -18 332 -65 332 -118 c 0
 332 -153 352 -175 384 -175 c 0
 398 -175 414 -171 428 -165 c 1
 434 -209 l 1
 417 -220 395 -229 364 -229 c 0
 300 -229 261 -192 261 -132 c 0xdf
 261 -69 305 -18 380 7 c 1
 363 48 l 1
 323 12 269 -10 210 -10 c 0x5d
129 142 m 0
 129 93 172 60 237 60 c 0
 284 60 328 80 359 111 c 1
 359 227 l 1
 199 226 129 200 129 142 c 0
EndSplineSet
EndChar

StartChar: aring
Encoding: 229 229 266
Width: 515
GlyphClass: 2
Flags: MW
HStem: -10 70<204.5 239.5> 0 21G<383 439 383 383> 227 54<359 359> 420 72<217.5 274> 555 58<235.5 263 235.5 278> 705 58<233 260.5>
VStem: 49 80<117.5 171 117.5 179.5> 144 58<646.5 674 646.5 689> 294 58<644 671.5> 359 80<111 227 227 227 281 313 0 348.5>
AnchorPoint: "Anchor-3" 251 739 basechar 0
AnchorPoint: "Anchor-0" 263 0 basechar 0
LayerCount: 2
Fore
SplineSet
246 555 m 0xbf80
 185 555 144 596 144 657 c 0
 144 721 186 763 250 763 c 0
 311 763 352 722 352 661 c 0
 352 597 310 555 246 555 c 0xbf80
250 613 m 0
 276 613 294 631 294 657 c 0
 294 686 275 705 246 705 c 0
 220 705 202 687 202 661 c 0
 202 632 221 613 250 613 c 0
210 -10 m 0xbe40
 113 -10 49 46 49 129 c 0
 49 230 149 279 359 281 c 1
 359 313 l 2
 359 384 316 420 232 420 c 0
 182 420 134 407 80 378 c 1
 62 436 l 1
 125 475 185 492 250 492 c 0
 371 492 439 428 439 313 c 2
 439 0 l 1
 383 0 l 1x7e40
 363 48 l 1
 323 12 269 -10 210 -10 c 0xbe40
129 142 m 0
 129 93 172 60 237 60 c 0
 284 60 328 80 359 111 c 1
 359 227 l 1
 199 226 129 200 129 142 c 0
EndSplineSet
EndChar

